<?xml version="1.0" encoding="utf-8"?>
<svg id="master-artboard" viewBox="0 0 485.0422058105469 456.6197204589844" version="1.1" xmlns="http://www.w3.org/2000/svg" x="0px" y="0px" style="enable-background:new 0 0 1096 780;" width="485.0422058105469px" height="456.6197204589844px" xmlns:xlink="http://www.w3.org/1999/xlink"><rect id="ee-background" x="0" y="0" width="485.0422058105469" height="456.6197204589844" style="fill: white; fill-opacity: 0; pointer-events: none;"/>

<defs>
		<path d="M 0 0 H 1096 V 780 H 0 V 0 Z" id="SVGID_1_"/>
	</defs><clipPath id="SVGID_2_">
		<use style="overflow:visible;" xlink:href="#SVGID_1_"/>
	</clipPath><path class="st3" d="M384.8,372.8c-0.1,0.4-0.2,0.7-0.3,1.1C384.6,373.5,384.7,373.1,384.8,372.8z" style="fill: none; clip-path: url('#SVGID_2_');" transform="matrix(1, 0, 0, 1, -304.90142822265625, -259.859148979187)"/><path class="st3" d="M388.1,362.3c0,0.1-0.1,0.3-0.1,0.4C388.1,362.6,388.1,362.5,388.1,362.3z" style="fill: none; clip-path: url('#SVGID_2_');" transform="matrix(1, 0, 0, 1, -304.90142822265625, -259.859148979187)"/><path class="st3" d="M386.5,367.5c-0.1,0.3-0.2,0.6-0.3,0.8C386.3,368.1,386.4,367.8,386.5,367.5z" style="fill: none; clip-path: url('#SVGID_2_');" transform="matrix(1, 0, 0, 1, -304.90142822265625, -259.859148979187)"/><g transform="matrix(1, 0, 0, 1, -304.90142822265625, -259.859148979187)" style="clip-path: url('#SVGID_2_');">
			<path class="st9" d="M621.7,506.1c0.7,2.7,1.2,5.6,1.6,8.4c0.1,0.8,0.8,1.5,1.6,1.6c11.3,1.4,22,3,32,4.8c1.9,0.3,3.7,0.7,5.6,1&#10;&#9;&#9;&#9;&#9;c1.3,0.2,2.6,0.5,3.9,0.8c0.1,0,0.2,0,0.4,0c0.3,0,0.7-0.1,1-0.3c35.3-21.1,62.8-41.7,76-52.1c0.5-0.4,0.8-1.1,0.7-1.8&#10;&#9;&#9;&#9;&#9;c0-0.2-0.1-0.5,0-0.6c0,0,0.1-2.3-0.1-6c-0.9-14.2-7.2-49.6-46.9-69.9c-0.9-0.4-1.7-0.8-2.5-1.2c-0.9-0.4-2-0.1-2.5,0.8&#10;&#9;&#9;&#9;&#9;c-10.9,21.8-34.6,65.6-70.3,112.9C621.7,504.9,621.6,505.5,621.7,506.1z" style="fill: rgb(217, 244, 240);"/>
			<path class="st10" d="M368.7,540.7c0.3,0,0.5-0.1,0.7-0.2c12.9-5.6,28.5-10.6,46.3-14.8c0.7-0.2,1.3-0.8,1.4-1.5&#10;&#9;&#9;&#9;&#9;c0.1-0.7-0.2-1.5-0.9-1.9c-29-17.9-51.8-34.6-65.8-45.6c-0.5-0.4-1.1-0.5-1.7-0.3c-0.6,0.2-1,0.6-1.2,1.2l-0.1,0.4&#10;&#9;&#9;&#9;&#9;c-0.1,0.3-0.2,0.6-0.3,0.9c-6.4,19.6,0.4,40.2,20.2,61.2C367.7,540.5,368.2,540.7,368.7,540.7z" style="fill: rgb(167, 211, 203);"/>
			<path class="st9" d="M505.1,462c0.6-0.4,0.9-1.2,0.8-1.9c-13.7-59.7-18.2-110.9-19.7-136.2c0-0.5-0.3-1-0.7-1.3&#10;&#9;&#9;&#9;&#9;c-0.4-0.3-0.9-0.5-1.5-0.4l-0.4,0.1c-0.6,0.1-1.2,0.2-1.9,0.3c-18.2,3.3-32,9.4-42.4,16.5c2.5,12.5,16.2,75.1,51.3,135.9&#10;&#9;&#9;&#9;&#9;C494.9,470.1,499.7,465.7,505.1,462z" style="fill: rgb(217, 244, 240);"/>
			<path class="st10" d="M410.6,376.7c-1.9,5.6-2.4,9.3-2.4,9.3l0,0.2c-0.1,0.4,0,0.8,0.2,1.2c8.2,16.6,31.2,60.5,66.6,108.4&#10;&#9;&#9;&#9;&#9;c0.4,0.5,0.9,0.8,1.5,0.8c0.1,0,0.2,0,0.2,0c0.7-0.1,1.2-0.5,1.5-1.1c3.1-7.5,7.3-14.3,12.5-20.4&#10;&#9;&#9;&#9;&#9;c-35.1-60.8-48.8-123.3-51.3-135.9C422,351.2,414.1,366.4,410.6,376.7z" style="fill: rgb(167, 211, 203);"/>
			<path class="st9" d="M512.2,456.8c0.3,0.1,0.5,0.2,0.8,0.2c0.3,0,0.6-0.1,0.9-0.2c10.8-5.5,22.3-8.3,34.4-8.3&#10;&#9;&#9;&#9;&#9;c12,0,23.6,2.8,34.3,8.3c0.5,0.3,1.1,0.3,1.6,0c0.5-0.2,0.9-0.7,1-1.3c14-62.5,18-115.8,19-135.8c0-0.5-0.2-1.1-0.6-1.5&#10;&#9;&#9;&#9;&#9;c-1.7-1.6-3.5-3.1-5.4-4.6c-9.7-7.4-25.9-16.2-48.4-16.7l0-2.8c0-1-0.8-1.9-1.9-1.9c-1,0-1.9,0.8-1.9,1.9l0,2.8&#10;&#9;&#9;&#9;&#9;c-22.2,0.5-38.3,9.1-48,16.4c-1.9,1.5-3.8,3-5.4,4.5c-0.4,0.4-0.6,0.9-0.6,1.5c1,20,4.9,73.5,19,136.2&#10;&#9;&#9;&#9;&#9;C511.3,456.1,511.6,456.6,512.2,456.8z" style="fill: rgb(217, 244, 240);"/>
			<path class="st10" d="M428.4,522.5c0.3,0.2,0.6,0.3,1,0.3c0.1,0,0.2,0,0.4,0c1.4-0.3,2.9-0.6,4.3-0.8c1.7-0.3,3.4-0.6,5.2-0.9&#10;&#9;&#9;&#9;&#9;c10.1-1.8,21-3.4,32.4-4.8c0.8-0.1,1.5-0.8,1.6-1.6c0.3-2.7,0.8-5.3,1.4-7.9c0.1-0.5,0-1.1-0.3-1.6&#10;&#9;&#9;&#9;&#9;c-35.9-47.5-59.7-91.5-70.7-113.4c-0.5-0.9-1.6-1.3-2.5-0.8c-0.8,0.4-1.6,0.8-2.5,1.2c-39.7,20.3-46.1,55.7-46.9,69.9&#10;&#9;&#9;&#9;&#9;c-0.2,3.7-0.1,5.9-0.1,6c0,0.2,0,0.4,0,0.6c-0.1,0.7,0.1,1.4,0.7,1.8C365.5,480.7,393,501.3,428.4,522.5z" style="fill: rgb(167, 211, 203);"/>
			<path class="st9" d="M591.3,462c11.9,8.3,21.2,19.6,26.7,32.9c0.3,0.6,0.8,1,1.5,1.1c0.1,0,0.1,0,0.2,0c0.6,0,1.1-0.3,1.5-0.8&#10;&#9;&#9;&#9;&#9;c35.3-47.7,58.1-91.4,66.3-107.9c0.2-0.4,0.2-0.8,0.2-1.1l0-0.2c0,0-0.5-3.8-2.3-9.3c-5.6-16.4-22.2-45.2-70.8-54.1&#10;&#9;&#9;&#9;&#9;c-0.6-0.1-1.2-0.2-1.8-0.3l-0.4-0.1c-0.5-0.1-1.1,0.1-1.5,0.4c-0.4,0.3-0.7,0.8-0.7,1.3c-1.5,25.2-6,76.4-19.6,136.1&#10;&#9;&#9;&#9;&#9;C590.3,460.8,590.6,461.5,591.3,462z" style="fill: rgb(217, 244, 240);"/>
			<path class="st9" d="M678.9,524.1c0.1,0.7,0.7,1.3,1.4,1.5c17.8,4.1,33.3,9.1,46.3,14.7c0.2,0.1,0.5,0.2,0.7,0.2&#10;&#9;&#9;&#9;&#9;c0.5,0,1-0.2,1.4-0.6c19.6-20.9,26.4-41.5,20-61c-0.1-0.3-0.2-0.6-0.3-0.9l-0.1-0.4c-0.2-0.6-0.7-1-1.2-1.2&#10;&#9;&#9;&#9;&#9;c-0.6-0.2-1.2,0-1.7,0.3c-13.9,10.9-36.6,27.6-65.6,45.5C679.2,522.7,678.8,523.4,678.9,524.1z" style="fill: rgb(217, 244, 240);"/>
			<path class="st10" d="M401.8,637.2c-0.2-0.6-0.7-1.1-1.4-1.3c-6-1.4-11.7-2.8-17-4.3c-12-3.3-22.9-7.1-32.3-11.1&#10;&#9;&#9;&#9;&#9;c-0.7-0.3-1.5-0.1-2,0.4c-0.5,0.5-0.7,1.3-0.4,2c5.1,12.2,17.5,27.7,47.7,32.8c3.5,0.6,7.4,1,11.5,1.3c0,0,0.1,0,0.1,0&#10;&#9;&#9;&#9;&#9;c0.7,0,1.3-0.3,1.6-0.9c0.4-0.6,0.4-1.4,0-2C406.4,649,403.7,643.3,401.8,637.2z" style="fill: rgb(167, 211, 203);"/>
			<path class="st9" d="M745.4,620.3c-10.1,4.3-21.9,8.3-35.1,11.9c-5.2,1.4-10.7,2.7-16.4,4c-0.7,0.1-1.2,0.6-1.4,1.3&#10;&#9;&#9;&#9;&#9;c-1.8,5.9-4.4,11.5-7.5,16.5c-0.4,0.6-0.4,1.3,0,1.9c0.3,0.6,0.9,0.9,1.6,0.9c0,0,0.1,0,0.1,0c5.5-0.3,10-0.6,10.6-0.6&#10;&#9;&#9;&#9;&#9;c0,0,0.1,0,0.1,0c32.2-4.6,45.3-20.7,50.5-33.5c0.3-0.7,0.1-1.5-0.4-2C746.9,620.2,746.1,620,745.4,620.3z" style="fill: rgb(217, 244, 240);"/>
			<path class="st9" d="M684.3,639.2c-0.4-0.5-1.1-0.8-1.8-0.7c-12.4,2.4-25.6,4.4-39.3,6.1c-5.2,0.6-10.7,1.2-16.5,1.7&#10;&#9;&#9;&#9;&#9;c-0.7,0.1-1.3,0.5-1.6,1.2c-2.5,7-6.1,13.5-10.6,19.3c-0.4,0.5-0.5,1.2-0.3,1.8c0.2,0.6,0.7,1,1.3,1.2c3.4,0.8,6.8,1.4,10.1,1.7&#10;&#9;&#9;&#9;&#9;c2.5,0.2,4.9,0.4,7.2,0.4c15.3,0,27.5-4.7,35.2-8.7c0.1,0,0.2-0.1,0.2-0.1c2-1.4,3.9-3.1,5.8-4.9c0.1,0,0.1-0.1,0.2-0.2&#10;&#9;&#9;&#9;&#9;c4.2-5.1,7.7-10.8,10.3-17C684.9,640.5,684.7,639.7,684.3,639.2z" style="fill: rgb(217, 244, 240);"/>
			<path class="st9" d="M617.4,648.1c-0.4-0.5-1-0.8-1.7-0.8c-21.5,1.7-44.4,2.5-68,2.5c-23.5,0-46.1-0.8-67.3-2.5&#10;&#9;&#9;&#9;&#9;c-0.7-0.1-1.3,0.2-1.7,0.8c-0.4,0.5-0.4,1.2-0.2,1.8c2.9,6.5,6.9,12.4,11.7,17.6c0.1,0.1,0.3,0.3,0.4,0.4c0.1,0,0.2,0.1,0.2,0.1&#10;&#9;&#9;&#9;&#9;c0,0,0.3,0.2,0.6,0.4c3.1,1.9,20.4,11.4,56.2,11.5c0.1,0,0.1,0,0.2,0c0.1,0,0.1,0,0.2,0l0.1,0l0.1,0c0,0,0,0,0,0c0,0,0.1,0,0.1,0&#10;&#9;&#9;&#9;&#9;c0.1,0,0.1,0,0.2,0c30.6-0.2,49.8-7.4,56.3-11.6c0.1-0.1,0.2-0.2,0.3-0.3c5.1-5.3,9.2-11.4,12.2-18.2&#10;&#9;&#9;&#9;&#9;C617.8,649.3,617.8,648.6,617.4,648.1z" style="fill: rgb(217, 244, 240);"/>
			<g>
				<path class="st10" d="M406.3,639.2c-0.8-0.1-1.5,0.2-2,0.9c-0.4,0.6-0.5,1.5-0.2,2.1c3.5,6.9,7.9,13.1,13.3,18.6&#10;&#9;&#9;&#9;&#9;&#9;c0.1,0.1,0.2,0.2,0.4,0.3c2.7,1.7,14.6,8.6,31.8,10.9c-6.3-11.4-9.2-23.3-10.4-29.8C427.8,641.4,416.8,640.4,406.3,639.2z" style="fill: rgb(167, 211, 203);"/>
				<path class="st9" d="M486.9,665.4c-5.6-6.1-10.1-13.1-13.6-20.8c-0.3-0.7-1.1-1.2-1.9-1.2c-6.3-0.1-12.3-0.3-18-0.5&#10;&#9;&#9;&#9;&#9;&#9;c-4.8-0.2-9.5-0.4-14.1-0.7c1.2,6.5,4,18.4,10.4,29.8c5.4,0.7,11.3,1,17.5,0.5c2.6-0.2,5.3-0.5,8-1c3.6-0.6,7.2-1.5,10.8-2.6&#10;&#9;&#9;&#9;&#9;&#9;c0.7-0.2,1.2-0.8,1.4-1.5C487.5,666.6,487.3,665.9,486.9,665.4z" style="fill: rgb(217, 244, 240);"/>
			</g>
		</g><path class="st11" d="M742.4,587c-0.4-0.4-0.8-0.9-1.3-1.3l-0.7-0.7c-0.5-0.4-0.9-0.9-1.4-1.3l-0.8-0.7c-0.4-0.4-1-0.8-1.5-1.2&#10;&#9;&#9;&#9;c-0.2-0.1-0.3-0.2-0.5-0.4l-0.2-0.2c-0.6-0.5-1.1-0.9-1.8-1.4l-0.2-0.1c-0.1-0.1-0.2-0.2-0.4-0.3c-0.8-0.6-1.7-1.2-2.7-1.9&#10;&#9;&#9;&#9;c-2.2-1.5-4.7-2.9-7.2-4.3l-0.2-0.1c0,0-0.1,0-0.1-0.1c-0.8-0.4-1.6-0.8-2.4-1.3c-0.3-0.1-0.5-0.2-0.7-0.3&#10;&#9;&#9;&#9;c-0.8-0.4-1.6-0.8-2.4-1.2l-0.9-0.4c-0.8-0.3-1.6-0.7-2.4-1.1l-0.9-0.4c-0.8-0.4-1.7-0.7-2.5-1.1l-0.9-0.4&#10;&#9;&#9;&#9;c-0.9-0.4-1.8-0.7-2.8-1.1c-0.2-0.1-0.4-0.1-0.6-0.2l-1.4-0.5c-4.9-1.8-10.3-3.6-15.9-5.2l-0.6-0.2c-1-0.3-2.1-0.6-3.2-0.9&#10;&#9;&#9;&#9;l-0.8-0.2c-1.1-0.3-2.1-0.6-3.2-0.8l-0.9-0.2c-1-0.3-2.1-0.5-3.2-0.8c-0.3-0.1-0.6-0.1-0.9-0.2c-1-0.3-2.1-0.5-3.2-0.8l-0.7-0.2&#10;&#9;&#9;&#9;c-6.2-1.4-12.8-2.8-19.6-4l-0.3-0.1c-1.2-0.2-2.3-0.4-3.5-0.6c-0.3-0.1-0.6-0.1-0.8-0.1c-0.9-0.2-1.7-0.3-2.5-0.4l-1.9-0.3&#10;&#9;&#9;&#9;c0,0,0,0-0.1,0l-4.1-0.6c-1.1-0.2-2.2-0.3-3.3-0.5l-2-0.3c-0.7-0.1-1.5-0.2-2.2-0.3l-0.4-0.1c-3.4-0.5-6.8-0.9-10.4-1.4&#10;&#9;&#9;&#9;c-1.1-0.1-2.1,0.5-2.5,1.6c-3.2,9.3-8.3,18.1-14.8,25.5c-14.3,16.2-34.9,25.5-56.4,25.5c-21.1,0-41.3-8.9-55.5-24.5&#10;&#9;&#9;&#9;c-6.9-7.6-12.3-16.7-15.7-26.4c-0.4-1-1.4-1.7-2.5-1.6c-3.4,0.4-6.8,0.9-10.1,1.3c-0.3,0-0.6,0.1-0.8,0.1&#10;&#9;&#9;&#9;c-0.7,0.1-1.4,0.2-2.1,0.3l-7.4,1.1c-0.7,0.1-1.4,0.2-2.1,0.3l-0.2,0c0,0-0.1,0-0.1,0c-0.3,0-0.5,0.1-0.8,0.1l-0.6,0.1&#10;&#9;&#9;&#9;c-0.8,0.1-1.7,0.3-2.6,0.4c-0.3,0.1-0.6,0.1-1,0.2l-1.3,0.2c-0.7,0.1-1.4,0.2-2.1,0.4l-0.7,0.1c-5.4,1-10.6,2-15.7,3.2l0.5,2.3&#10;&#9;&#9;&#9;l-0.6-2.3c-1.1,0.3-2.3,0.5-3.4,0.8l-0.8,0.2c-1,0.2-2.1,0.5-3.2,0.8l-0.1,0c-0.3,0.1-0.6,0.1-0.9,0.2c-1,0.2-2,0.5-3,0.8l-1,0.3&#10;&#9;&#9;&#9;c-1,0.3-2,0.5-3.1,0.8l-0.9,0.2c-1,0.3-1.9,0.5-2.9,0.8l-0.9,0.3c-5.8,1.7-11.2,3.5-16.2,5.3l-1.8,0.7c-0.9,0.4-1.8,0.7-2.8,1.1&#10;&#9;&#9;&#9;l-0.8,0.3c-0.8,0.3-1.7,0.7-2.6,1.1l-0.8,0.4c0,0-0.1,0-0.1,0c-0.8,0.4-1.6,0.7-2.4,1.1l-0.8,0.4c-0.8,0.4-1.7,0.8-2.5,1.2&#10;&#9;&#9;&#9;l-0.6,0.3c-0.9,0.4-1.7,0.9-2.6,1.3l-0.2,0.1c-2.7,1.4-5.2,2.9-7.5,4.5c-1,0.6-1.9,1.3-2.8,1.9c0,0-0.1,0.1-0.1,0.1l-0.2,0.1&#10;&#9;&#9;&#9;c-0.7,0.5-1.3,1-1.9,1.5c-0.1,0.1-0.2,0.2-0.4,0.3l-0.2,0.2c-0.5,0.4-1.1,0.9-1.6,1.4l-0.6,0.5c-0.6,0.5-1,1-1.5,1.4&#10;&#9;&#9;&#9;c-0.2,0.2-0.4,0.4-0.6,0.6c-0.5,0.5-0.9,0.9-1.4,1.4c-0.5,0.5-0.7,1.3-0.6,2c0.1,0.7,0.6,1.4,1.3,1.7c12,5.5,41.5,16.3,75.6,21.9&#10;&#9;&#9;&#9;c34.5,5.7,74,8.7,117.3,8.7c44,0,83.5-2.9,117.5-8.5c43.3-7.2,66.6-17,76.6-22.2c0.6-0.3,1.1-1,1.2-1.7&#10;&#9;&#9;&#9;C743.1,588.3,742.9,587.6,742.4,587z" style="fill: rgb(239, 146, 166); clip-path: url('#SVGID_2_');" transform="matrix(1, 0, 0, 1, -304.90142822265625, -259.859148979187)"/><path class="st12" d="M750.3,559c-0.4-0.3-0.7-0.8-0.7-1.3c0-0.5,0.1-1,0.5-1.4c11.8-13.1,19.9-26.5,24.2-40&#10;&#9;&#9;&#9;c5.7-17.9,4.6-36.4-3.1-53.6c-0.1-0.2-0.1-0.4-0.2-0.7c-0.4-8-1.9-20.4-7.1-34.2c-6.6-17.5-21.1-41.9-52.3-58.7&#10;&#9;&#9;&#9;c-0.4-0.2-0.7-0.6-0.9-1c-3.1-9.2-7.6-18-13.5-26.1c-11.8-16.5-34.9-37.9-77.5-45.8c-0.3-0.1-0.6-0.2-0.9-0.4&#10;&#9;&#9;&#9;c-11.1-9.6-35.2-25.8-70.9-25.8c-35.7,0-59.8,16.1-70.9,25.8c-0.2,0.2-0.6,0.4-0.9,0.4c-42.6,7.9-65.7,29.2-77.5,45.8&#10;&#9;&#9;&#9;c-5.8,8.1-10.3,16.9-13.5,26.1c-0.2,0.5-0.5,0.8-0.9,1c-31.3,16.7-45.7,41.1-52.3,58.7c-5.2,13.8-6.7,26.2-7.1,34.2&#10;&#9;&#9;&#9;c0,0.2-0.1,0.5-0.2,0.7c-7.7,17.1-8.7,35.7-3.1,53.6c4.3,13.7,12.5,27.2,24.4,40.2c0.4,0.4,0.5,0.9,0.5,1.4c0,0.5-0.3,1-0.7,1.3&#10;&#9;&#9;&#9;c-22.5,16.9-27.2,36.1-27.2,49.3c0,0.4,0,1.3,0.1,2.6c0.2,4.9,1.1,9.8,2.6,14.4c6.4,21.6,20.5,37.7,42.1,47.7&#10;&#9;&#9;&#9;c17.2,8,35,10.3,47,10.8c0.3,0,0.6,0.1,0.9,0.3c9,5.4,27.8,14.3,52.3,14.3c7.6,0,15.2-0.9,22.7-2.6c0.4-0.1,0.8,0,1.1,0.1&#10;&#9;&#9;&#9;c9.9,4.2,21.5,7.1,34.6,8.9c0.1,0,0.1,0,0.2,0l25.5,1.7c0.1,0,0.1,0,0.2,0l0.3,0c0,0,0,0,0,0c0,0,0.1,0,0.1,0l0.3,0c0,0,0,0,0,0&#10;&#9;&#9;&#9;c0.1,0,0.1,0,0.2,0l25.5-1.7c0.1,0,0.1,0,0.2,0c13-1.7,24.7-4.7,34.6-8.9c0.4-0.2,0.7-0.2,1.1-0.1c7.5,1.7,15.2,2.6,22.7,2.6&#10;&#9;&#9;&#9;c24.4,0,43.2-9,52.3-14.3c0.3-0.2,0.6-0.2,0.9-0.3c21.9-1,74.4-8.6,89.1-58.6c1.5-4.6,2.4-9.4,2.6-14.3c0.1-1,0.1-1.9,0.1-2.7&#10;&#9;&#9;&#9;C777.9,595.4,773.1,576,750.3,559z M676.4,662.5c-1.8,1.6-3.7,3.2-5.6,4.5c-0.1,0.1-0.1,0.1-0.2,0.1c-8.1,4.3-21.3,9.4-37.6,9.4&#10;&#9;&#9;&#9;c-2.4,0-5-0.1-7.6-0.4c-5.6-0.5-11.2-1.7-16.7-3.4c-0.7-0.2-1.5-0.1-2.2,0.2c-6.1,3.4-23.8,11.4-57.1,11.6c-0.1,0-0.2,0-0.3,0&#10;&#9;&#9;&#9;c-0.2,0-0.3,0-0.5,0l-0.1,0c0,0,0,0-0.1,0c0,0,0,0-0.1,0l-0.4,0c-0.1,0-0.2,0-0.3,0c-0.1,0-0.2,0-0.3,0&#10;&#9;&#9;&#9;c-33.4-0.2-51.1-8.2-57.1-11.6c-0.7-0.4-1.5-0.5-2.2-0.2c-5.5,1.7-11.1,2.9-16.7,3.4c-2.6,0.3-5.2,0.4-7.7,0.4&#10;&#9;&#9;&#9;c-23.5,0-40.4-10.6-45-13.8c-0.3-0.2-0.7-0.4-1-0.4l-0.4-0.1c-0.2,0-0.4-0.1-0.6-0.1c-7.3-0.1-14.3-0.7-20.8-1.8&#10;&#9;&#9;&#9;c-37.9-6.4-49.6-28.6-53.3-41.3c0,0,0-0.1,0-0.1c-0.2-0.6-0.4-1.3-0.6-2.1c0-0.2-0.1-0.4-0.1-0.6c-0.2-0.7-0.3-1.5-0.5-2.4&#10;&#9;&#9;&#9;c0-0.1,0-0.2,0-0.3c0-0.6,0.3-1.3,0.9-1.6c0.5-0.3,1.3-0.4,1.8-0.1c7.4,3.8,20.5,9.6,40.9,15.2c5.3,1.5,10.9,2.9,16.8,4.2&#10;&#9;&#9;&#9;c15.8,3.6,33.4,6.5,52.3,8.8c5.5,0.6,11.2,1.2,16.7,1.7c23.9,2.2,49.9,3.3,77.1,3.3c27.6,0,54-1.1,78.3-3.4&#10;&#9;&#9;&#9;c5.8-0.5,11.4-1.1,16.7-1.8c17.7-2.1,34.3-4.9,49.5-8.2c5.8-1.3,11.5-2.7,16.9-4.1c21.9-5.9,35.8-11.9,43.6-15.9&#10;&#9;&#9;&#9;c0.6-0.3,1.4-0.3,1.9,0.1c0.6,0.4,0.9,1.1,0.8,1.8c-0.1,0.9-0.3,1.7-0.5,2.6c0,0,0,0.1,0,0.1l0,0.1c-0.2,1-0.5,1.7-0.7,2.5&#10;&#9;&#9;&#9;c0,0,0,0.1,0,0.1c-8.8,30.7-39,39.3-56.3,41.8c0,0-0.1,0-0.1,0c-1.1,0.1-10.8,0.8-19.5,1C677.5,661.8,676.9,662.1,676.4,662.5z&#10;&#9;&#9;&#9; M347,461.6c0.9-15,7.6-52.4,49.5-73.8c2.1-1.1,4.1-2,5.9-2.8c0.8-0.4,1.4-1.1,1.6-2c0.3-1.7,1-4.5,2.1-7.8&#10;&#9;&#9;&#9;c5.9-17.4,23.5-48,74.8-57.2c1.7-0.3,3.4-0.6,5-0.8c0.6-0.1,1.2-0.4,1.6-0.8c1.5-1.5,4.1-3.9,7.7-6.7&#10;&#9;&#9;&#9;c10.5-7.9,28.1-17.3,52.6-17.3c24.8,0,42.5,9.6,53.1,17.7c3.4,2.6,5.8,4.9,7.3,6.4c0.4,0.4,1,0.7,1.6,0.8c1.8,0.3,3.7,0.6,5.5,0.9&#10;&#9;&#9;&#9;c50.9,9.3,68.4,39.8,74.3,57.2c1.1,3.3,1.8,6.1,2.1,7.8c0.2,0.9,0.8,1.6,1.6,2c1.8,0.8,3.8,1.8,5.9,2.8&#10;&#9;&#9;&#9;c41.9,21.4,48.5,58.7,49.5,73.8c0.1,2.4,0.2,4.2,0.1,5.4c0,0.5,0.1,0.9,0.3,1.4c1.6,3,2.9,6.1,3.9,9.2c7.2,22.1-0.7,45-23.4,68.1&#10;&#9;&#9;&#9;c-0.5,0.5-1.4,0.7-2.1,0.4c-13.4-6.1-30-11.5-49.1-15.9c-5.3-1.2-11-2.4-17-3.6c-1.8-0.3-3.7-0.7-5.5-1&#10;&#9;&#9;&#9;c-9.3-1.7-19.4-3.2-29.9-4.5c-0.8-0.1-1.6,0.1-2.2,0.7c-0.6,0.5-0.9,1.3-0.9,2.1c0,0.1,0,0.2,0,0.3l0,0.1c0,5.2-0.5,10.3-1.6,15.4&#10;&#9;&#9;&#9;c-0.2,0.8,0,1.6,0.5,2.2c0.5,0.6,1.2,1.1,1.9,1.2c3.3,0.4,6.3,0.8,9.2,1.2l0.3,0c0.8,0.1,1.5,0.2,2.3,0.3l2.1,0.3&#10;&#9;&#9;&#9;c1.1,0.2,2.2,0.3,3.3,0.5l4,0.6c0,0,0.2,0,0.2,0s0,0,0,0l1.9,0.3c0.8,0.1,1.6,0.3,2.5,0.4c0.2,0,0.4,0.1,0.7,0.1l0.2,0&#10;&#9;&#9;&#9;c1.1,0.2,2.3,0.4,3.5,0.6l0.3,0.1c6.9,1.3,13.6,2.6,19.8,4.1l0.2,0c0.2,0,0.3,0.1,0.5,0.1c1.1,0.2,2.2,0.5,3.2,0.8&#10;&#9;&#9;&#9;c0.3,0.1,0.6,0.2,0.9,0.2c1.1,0.3,2.2,0.5,3.2,0.8l1,0.3c1,0.3,2.1,0.6,3.2,0.8c0.2,0.1,0.4,0.1,0.7,0.2l0.2,0&#10;&#9;&#9;&#9;c1.1,0.3,2.1,0.6,3.2,0.9l0.5,0.2c5.8,1.7,11.2,3.5,16.2,5.3l1.5,0.6c0.2,0.1,0.3,0.1,0.5,0.2l0.1,0c1,0.4,1.9,0.8,2.8,1.1&#10;&#9;&#9;&#9;l0.9,0.4c0.9,0.4,1.7,0.7,2.6,1.1l0.9,0.4c0.9,0.4,1.7,0.8,2.5,1.1l0.9,0.4c0.8,0.4,1.6,0.8,2.5,1.2c0.2,0.1,0.4,0.2,0.7,0.4&#10;&#9;&#9;&#9;c0.8,0.4,1.7,0.8,2.5,1.3l0.2,0.1c0,0,0.1,0,0.1,0c2.7,1.4,5.2,3,7.6,4.5c1.1,0.7,2.1,1.4,2.9,2l0.6,0.4c0.7,0.5,1.3,1,1.9,1.4&#10;&#9;&#9;&#9;l0.2,0.1c0.2,0.1,0.4,0.3,0.6,0.4c0.6,0.4,1.1,0.9,1.6,1.4l0.8,0.7c0.6,0.5,1.1,1,1.5,1.4l0.7,0.7c0.5,0.5,1,1,1.4,1.5&#10;&#9;&#9;&#9;c0.2,0.2,0.3,0.3,0.4,0.5l0.2,0.3c0.5,0.5,0.9,1,1.3,1.5c0.1,0.2,0.2,0.3,0.3,0.4l0.2,0.2c0.5,0.6,0.9,1.1,1.3,1.7&#10;&#9;&#9;&#9;c0.2,0.3,0.3,0.7,0.3,1.1c0,0.6-0.3,1.2-0.9,1.6c0,0-0.1,0-0.1,0.1c-7.6,5.3-34.8,17.5-82.9,25.5c-34.2,5.7-74,8.6-118.2,8.6&#10;&#9;&#9;&#9;c-43.6,0-83.3-2.9-118-8.7c-23.7-3.9-44.2-10.1-57.1-14.6c-6.6-2.3-13-4.7-17.8-6.8c-7.2-3.2-7.6-4-7.8-4.6&#10;&#9;&#9;&#9;c-0.3-0.6-0.2-1.3,0.2-1.9c0.4-0.6,0.9-1.2,1.4-1.9c0,0,0-0.1,0.1-0.1l0.1-0.1c0.1-0.1,0.2-0.2,0.3-0.3c0.4-0.6,0.9-1.1,1.4-1.6&#10;&#9;&#9;&#9;l0.5-0.6c0.5-0.5,1-1.1,1.5-1.6c0.2-0.2,0.4-0.4,0.6-0.6c0.5-0.5,1.1-1,1.6-1.5l0.6-0.5c0.6-0.5,1.2-1,1.8-1.5l0.6-0.5&#10;&#9;&#9;&#9;c0.7-0.5,1.3-1,2.1-1.6c0.1,0,0.2-0.1,0.3-0.2c0.9-0.7,1.9-1.3,2.9-2c2.4-1.6,5-3.2,7.8-4.7l0.1-0.1c0,0,0,0,0.1,0&#10;&#9;&#9;&#9;c0.9-0.5,1.8-0.9,2.7-1.4c0.2-0.1,0.4-0.2,0.6-0.3c0.8-0.4,1.7-0.8,2.6-1.2l0.1-0.1c0.2-0.1,0.4-0.2,0.7-0.3&#10;&#9;&#9;&#9;c0.8-0.4,1.7-0.8,2.5-1.1l0.9-0.4c0.9-0.4,1.8-0.8,2.7-1.1l0.8-0.3c1-0.4,1.9-0.8,2.8-1.1l0.9-0.4c0.3-0.1,0.6-0.2,0.9-0.3&#10;&#9;&#9;&#9;c5.1-1.9,10.6-3.7,16.5-5.4l1-0.3c0.9-0.3,1.9-0.5,2.8-0.8l0.9-0.2c1.1-0.3,2.1-0.6,3.1-0.8l1.1-0.3c1-0.3,2-0.5,3.1-0.8l1-0.2&#10;&#9;&#9;&#9;c1.1-0.3,2.2-0.5,3.2-0.8l0.8-0.2c1.1-0.3,2.3-0.5,3.4-0.8c0,0,0.1,0,0.1,0c5.1-1.1,10.5-2.2,15.9-3.2l0.7-0.1&#10;&#9;&#9;&#9;c0.7-0.1,1.4-0.2,2.1-0.4l1.2-0.2l-0.5-2.8l0.6,2.7c0.3-0.1,0.6-0.1,0.9-0.2c1-0.2,2-0.3,2.9-0.5l0.3,0c0.3,0,0.6-0.1,0.8-0.1&#10;&#9;&#9;&#9;l0.2,0c0,0,0.1,0,0.1,0l9.7-1.5c0.7-0.1,1.4-0.2,2.1-0.3c0.2,0,0.5-0.1,0.8-0.1c2.8-0.4,5.7-0.8,8.8-1.2c0.8-0.1,1.5-0.5,1.9-1.2&#10;&#9;&#9;&#9;c0.5-0.6,0.6-1.4,0.5-2.2c-1.1-5.1-1.6-10.3-1.6-15.4l0-0.4c0-0.8-0.3-1.6-0.9-2.1c-0.6-0.5-1.4-0.8-2.2-0.7&#10;&#9;&#9;&#9;c-10.7,1.3-20.9,2.9-30.3,4.6c-1.7,0.3-3.4,0.6-5.1,0.9c-5.9,1.1-11.7,2.3-17.4,3.7c-19.2,4.5-35.7,9.8-49.1,16&#10;&#9;&#9;&#9;c-0.7,0.3-1.6,0.2-2.1-0.4c-22.8-23.1-30.8-46.1-23.5-68.3c1-3.1,2.3-6.2,3.9-9.2c0.2-0.4,0.3-0.9,0.3-1.3&#10;&#9;&#9;&#9;C346.9,465.8,346.9,464,347,461.6z" style="fill: rgb(152, 211, 205); clip-path: url('#SVGID_2_');" transform="matrix(1, 0, 0, 1, -304.90142822265625, -259.859148979187)"/><path class="st15" d="M758.2,556.9c10.7-12.6,18.2-25.6,22.3-38.6c6.1-19.2,5-39-3-57.4c-0.5-8.5-2.1-21.2-7.5-35.3&#10;&#9;&#9;&#9;&#9;c-6.9-18.3-21.8-43.6-53.8-61.2c-3.3-9.2-7.9-17.9-13.7-26c-12.4-17.3-36.4-39.7-80.4-48.1c-12.2-10.3-37.4-26.5-74.2-26.5&#10;&#9;&#9;&#9;&#9;c-36.8,0-62,16.2-74.2,26.5c-44,8.5-68,30.8-80.4,48.1c-5.8,8.1-10.4,16.9-13.7,26c-32,17.6-46.9,43-53.8,61.2&#10;&#9;&#9;&#9;&#9;c-5.3,14.1-7,26.9-7.4,35.3c-8,18.4-9,38.2-3,57.4c4.2,13.3,11.7,26.3,22.5,38.9C316.6,575,312,594.8,312,608.6&#10;&#9;&#9;&#9;&#9;c0,0.6,0,1.6,0.1,3c0.3,5.4,1.2,10.8,2.9,15.9c5.3,17.9,25,59.6,93.9,63.1c11.8,6.8,30.6,14.6,54.6,14.6c7.6,0,15.2-0.8,22.7-2.4&#10;&#9;&#9;&#9;&#9;c10.2,4.1,21.9,7.1,35,8.8c0.1,0,0.2,0,0.3,0l25.8,1.7c0.3,0,0.6,0,0.8,0c0.2,0,0.3,0,0.5,0c0.1,0,0.2,0,0.3,0l25.8-1.7&#10;&#9;&#9;&#9;&#9;c0.1,0,0.2,0,0.3,0c13.1-1.7,24.9-4.7,35-8.8c7.5,1.6,15.1,2.4,22.7,2.4c24,0,42.8-7.8,54.6-14.6c68.9-3.5,88.6-45.2,93.9-63.1&#10;&#9;&#9;&#9;&#9;c1.7-5.1,2.7-10.5,2.9-15.9c0.1-1.4,0.1-2.4,0.1-3C784.5,594.7,779.8,574.8,758.2,556.9z M324.3,515.5&#10;&#9;&#9;&#9;&#9;c-5.4-17.3-4.4-35.1,2.9-51.6c0.2-0.5,0.4-1.1,0.4-1.7c0.3-7.8,1.8-19.9,6.9-33.3c6.4-17.1,20.5-40.9,51-57.2&#10;&#9;&#9;&#9;&#9;c1-0.6,1.8-1.5,2.2-2.6c3-8.9,7.4-17.4,13.1-25.3c11.5-16.1,34.1-36.9,75.7-44.6c0.8-0.2,1.6-0.5,2.2-1.1&#10;&#9;&#9;&#9;&#9;c10.9-9.4,34.3-25.1,69.1-25.1c34.8,0,58.2,15.7,69.1,25.1c0.6,0.5,1.4,0.9,2.2,1.1c41.7,7.7,64.2,28.5,75.7,44.6&#10;&#9;&#9;&#9;&#9;c5.7,7.9,10.1,16.4,13.1,25.3c0.4,1.1,1.2,2.1,2.2,2.6c30.5,16.3,44.6,40.1,51,57.2c5.1,13.5,6.6,25.5,6.9,33.3&#10;&#9;&#9;&#9;&#9;c0,0.6,0.2,1.2,0.4,1.7c7.4,16.5,8.4,34.3,2.9,51.6c-3.8,12-10.8,24.1-20.9,35.9c-3.1-2.1-7.9-5-14.5-8.5&#10;&#9;&#9;&#9;&#9;c20.1-22.3,26.8-44.6,19.7-66.3c-1.1-3.3-2.4-6.5-4-9.6c0-1.2,0-3.1-0.1-5.6c-1-15.5-7.9-54-51-76.1c-2.2-1.1-4.1-2.1-6.1-2.9&#10;&#9;&#9;&#9;&#9;c-0.4-1.9-1.1-4.7-2.2-8.1c-6.1-17.9-24.1-49.4-76.5-59c-1.9-0.3-3.7-0.6-5.6-0.9c-1.4-1.4-3.9-3.8-7.6-6.6&#10;&#9;&#9;&#9;&#9;c-10.9-8.3-29.2-18.3-54.8-18.3h0l0,0c-25.3,0-43.5,9.7-54.3,17.9c-3.9,2.9-6.6,5.5-8,7c-1.7,0.2-3.4,0.5-5.1,0.8&#10;&#9;&#9;&#9;&#9;c-52.7,9.5-70.8,41.1-76.9,59.1c-1.2,3.4-1.8,6.2-2.2,8.1c-1.9,0.9-3.9,1.8-6.1,2.9c-43.1,22.1-50,60.6-51,76.1&#10;&#9;&#9;&#9;&#9;c-0.2,2.5-0.2,4.4-0.1,5.6c-1.6,3.1-3,6.3-4,9.6c-7.1,21.8-0.4,44.1,19.9,66.5c-6.6,3.5-11.5,6.5-14.5,8.5&#10;&#9;&#9;&#9;&#9;C335.3,539.8,328.2,527.7,324.3,515.5z M680.8,523.8c28.5-17.6,51-34,65.8-45.6c0.1,0.4,0.3,0.8,0.4,1.2&#10;&#9;&#9;&#9;&#9;c6.2,18.9-0.4,38.8-19.6,59.2C714.3,533,698.6,528,680.8,523.8z M368.7,538.8c-19.3-20.5-25.9-40.4-19.7-59.4&#10;&#9;&#9;&#9;&#9;c0.1-0.4,0.3-0.8,0.4-1.2c14.9,11.6,37.5,28.1,65.9,45.7C397.4,528.1,381.7,533.1,368.7,538.8z M347.5,561.6&#10;&#9;&#9;&#9;&#9;c0.1,0,0.1-0.1,0.2-0.1c2-1.4,9.2-6.5,22-12.8c13.2-6.1,29.5-11.4,48.5-15.8c5.6-1.3,11.5-2.5,17.3-3.6c1.7-0.3,3.4-0.6,5.1-0.9&#10;&#9;&#9;&#9;&#9;c9.5-1.7,19.6-3.2,30.2-4.6c0-3.2,0.2-6.4,0.6-9.5c-11.4,1.4-22.3,3-32.5,4.9c-1.7,0.3-3.5,0.6-5.2,0.9c-1.4,0.3-2.9,0.6-4.3,0.8&#10;&#9;&#9;&#9;&#9;c-34.7-20.7-61.6-40.8-75.9-52c0.1-0.4,0.1-0.7,0.1-1.1c0,0-0.1-2.2,0.1-5.8c0.9-13.9,7.1-48.5,45.9-68.4&#10;&#9;&#9;&#9;&#9;c0.8-0.4,1.7-0.8,2.4-1.2c10.5,21.1,34.5,65.7,70.8,113.7c0.9-4,2.2-7.8,3.7-11.5c-35-47.2-57.6-90.2-66.5-108.1&#10;&#9;&#9;&#9;&#9;c0-0.1,0-0.2,0-0.3c0,0,0.4-3.6,2.3-9c5.5-16.1,21.8-44.3,69.7-52.9c0.8-0.1,1.5-0.3,2.2-0.4c1.5,25.5,6,76.8,19.7,136.5&#10;&#9;&#9;&#9;&#9;c2.8-2,5.8-3.8,8.9-5.4c-13.9-61.8-17.9-114.1-19-135.9c1.3-1.2,3-2.7,5.3-4.4c9.7-7.3,26-16,48.7-16v-4.7l0,4.7&#10;&#9;&#9;&#9;&#9;c23,0,39.4,8.9,49.1,16.3c2.3,1.7,4,3.3,5.3,4.5c-1.1,21.8-5.1,73.9-18.9,135.5c3.1,1.6,6.1,3.4,8.9,5.3&#10;&#9;&#9;&#9;&#9;c13.7-59.7,18.2-110.9,19.7-136.4c0.7,0.1,1.5,0.2,2.2,0.4c47.7,8.7,63.9,36.8,69.3,52.8c1.8,5.3,2.3,8.9,2.3,8.9&#10;&#9;&#9;&#9;&#9;c0,0.1,0,0.2,0,0.3c-8.8,17.9-31.3,60.6-66.1,107.6c1.6,3.7,2.8,7.5,3.8,11.5c36.1-47.9,59.9-92.2,70.4-113.2&#10;&#9;&#9;&#9;&#9;c0.8,0.4,1.6,0.8,2.4,1.2c38.9,19.9,45.1,54.4,45.9,68.4c0.2,3.6,0.1,5.8,0.1,5.8c0,0.4,0,0.7,0.1,1.1&#10;&#9;&#9;&#9;&#9;c-14.3,11.2-41.2,31.3-75.8,51.9c-1.3-0.3-2.6-0.5-3.9-0.8c-1.9-0.4-3.7-0.7-5.6-1c-10.1-1.8-20.8-3.4-32.1-4.8&#10;&#9;&#9;&#9;&#9;c0.4,3.1,0.6,6.3,0.6,9.5c10.4,1.3,20.4,2.8,29.8,4.5c1.8,0.3,3.7,0.7,5.5,1c5.9,1.1,11.6,2.3,16.9,3.5&#10;&#9;&#9;&#9;&#9;c18.8,4.3,35,9.6,48.2,15.6c15.5,7.6,23.1,13.5,23.2,13.5c0,0,0,0,0,0c14.8,11.3,21.5,23.5,24.2,34.1c-0.2,0.1-0.4,0.2-0.5,0.4&#10;&#9;&#9;&#9;&#9;c-0.1,0.1-7.1,5.5-21.4,12.8c-0.1,0-0.2,0.1-0.3,0.1c-7.7,4-21.4,9.9-43.1,15.7c-5.3,1.4-11,2.8-16.7,4.1&#10;&#9;&#9;&#9;&#9;c-15.1,3.3-31.6,6.1-49.2,8.1c-5.3,0.6-10.9,1.2-16.6,1.8c-24.2,2.3-50.5,3.4-78,3.4c-27.1,0-53-1.1-76.8-3.3&#10;&#9;&#9;&#9;&#9;c-5.6-0.5-11.2-1.1-16.7-1.7c-18.8-2.2-36.3-5.1-52-8.7c-5.9-1.3-11.5-2.7-16.7-4.2c-18.4-5.1-30.8-10.3-38.3-14&#10;&#9;&#9;&#9;&#9;c-0.1,0-0.1-0.1-0.2-0.1c-15.8-7.8-23.5-13.9-23.6-14c-0.1-0.1-0.3-0.2-0.4-0.3C325.6,585.3,332.3,572.9,347.5,561.6z M746.1,622&#10;&#9;&#9;&#9;&#9;c-4.9,11.8-17.3,27.8-49.1,32.3c-0.8,0.1-5.2,0.4-10.5,0.6c3.3-5.2,5.8-10.9,7.7-17c5.7-1.3,11.2-2.6,16.5-4&#10;&#9;&#9;&#9;&#9;C726.1,629.9,737.7,625.6,746.1,622z M682.9,640.4c-2.5,6-5.8,11.5-10,16.5c-1.8,1.7-3.7,3.3-5.7,4.7c-7.5,3.9-19.5,8.5-34.3,8.5&#10;&#9;&#9;&#9;&#9;c-2.2,0-4.6-0.1-7-0.4c-3.3-0.3-6.6-0.9-9.9-1.6c4.6-6,8.3-12.6,10.9-19.8c5.7-0.5,11.2-1.1,16.5-1.7&#10;&#9;&#9;&#9;&#9;C657.3,644.8,670.5,642.8,682.9,640.4z M615.9,649.2c-2.9,6.6-6.9,12.5-11.8,17.6c-6.2,4-25,11.2-55.3,11.3c-0.1,0-0.2,0-0.3,0&#10;&#9;&#9;&#9;&#9;c-0.1,0-0.1,0-0.2,0c-0.1,0-0.1,0-0.2,0c-0.1,0-0.2,0-0.3,0c-35.3-0.2-52.2-9.4-55.2-11.3c-0.3-0.2-0.5-0.3-0.5-0.3&#10;&#9;&#9;&#9;&#9;c-0.1-0.1-0.2-0.2-0.4-0.2c-4.7-5-8.5-10.7-11.4-17.1c21.2,1.6,43.9,2.5,67.4,2.5C571.5,651.7,594.4,650.8,615.9,649.2z&#10;&#9;&#9;&#9;&#9; M480,668.1c-3.1,0.7-6.3,1.2-9.5,1.6c-2.4,0.2-4.8,0.4-7,0.4c-22.9,0-38.8-10.8-41.9-13.1c-4.3-5-7.7-10.7-10.2-16.9&#10;&#9;&#9;&#9;&#9;c13,2.6,26.9,4.7,41.6,6.5c5.3,0.6,10.7,1.2,16,1.7C471.7,655.5,475.4,662.2,480,668.1z M408.1,655.2c-3.9-0.3-7.7-0.7-11.3-1.3&#10;&#9;&#9;&#9;&#9;c-29.7-5-41.6-20.4-46.3-31.7c7.8,3.4,18.5,7.3,32.5,11.2c5.4,1.5,11.1,2.9,17.1,4.3C402,644,404.7,649.9,408.1,655.2z&#10;&#9;&#9;&#9;&#9; M775,611.1c-0.2,4.6-1.1,9.2-2.5,13.6c0,0,0,0.1,0,0.1c-14.2,48.2-65.2,55.6-86.5,56.5c-0.8,0-1.5,0.3-2.2,0.6&#10;&#9;&#9;&#9;&#9;c-8.8,5.2-27.1,13.9-50.8,13.9c-7.3,0-14.8-0.8-22.1-2.5c-1-0.2-1.9-0.1-2.8,0.2c-9.7,4.1-21.1,7-33.9,8.7l-25.5,1.7l-0.3,0&#10;&#9;&#9;&#9;&#9;c-0.1,0-0.1,0-0.2,0l-0.3,0l-25.5-1.7c-12.8-1.7-24.2-4.6-33.9-8.7c-0.9-0.4-1.9-0.5-2.8-0.2c-7.3,1.7-14.7,2.5-22.1,2.5&#10;&#9;&#9;&#9;&#9;c-23.8,0-42.1-8.7-50.8-13.9c-0.7-0.4-1.4-0.6-2.2-0.6c-21.3-0.9-72.4-8.3-86.6-56.5c0,0,0-0.1,0-0.1c-1.4-4.4-2.3-8.9-2.5-13.6&#10;&#9;&#9;&#9;&#9;c-0.1-1.2-0.1-2.1-0.1-2.5c0-0.7,0-1.4,0-2.2c3.4,2.3,9.2,6,17.4,10.2c0,0.1,0.1,0.2,0.1,0.4c0,0.1,0,0.1,0,0.2l0,0&#10;&#9;&#9;&#9;&#9;c0.2,1,0.5,1.8,0.8,2.6c3.8,13.4,16.1,36.7,55.5,43.3c6.6,1.1,13.8,1.7,21.3,1.8c0.1,0,0.3,0.1,0.4,0.1&#10;&#9;&#9;&#9;&#9;c4.9,3.4,22.4,14.3,46.6,14.3c2.5,0,5.2-0.1,7.9-0.4c5.8-0.6,11.6-1.8,17.3-3.5c6.1,3.4,24.3,11.7,58.5,12c0.3,0,0.6,0,0.9,0&#10;&#9;&#9;&#9;&#9;l0.1,0l0.1,0c0.1,0,0.3,0,0.4,0c0.2,0,0.3,0,0.5,0c34.3-0.2,52.6-8.7,58.5-12c5.7,1.8,11.5,3,17.3,3.5c2.7,0.3,5.4,0.4,7.9,0.4&#10;&#9;&#9;&#9;&#9;c16.9,0,30.5-5.3,38.9-9.7c0.2-0.1,0.4-0.2,0.5-0.3c2-1.4,3.9-3,5.8-4.7c9-0.2,19.2-0.9,19.6-1c0.1,0,0.2,0,0.3,0&#10;&#9;&#9;&#9;&#9;c41.7-5.9,54.6-29.9,58.6-43.8c0.3-0.8,0.5-1.6,0.8-2.7c0-0.1,0-0.1,0-0.2c0,0,0,0,0,0c0-0.1,0.1-0.3,0.1-0.4&#10;&#9;&#9;&#9;&#9;c8.2-4.3,14-7.9,17.4-10.2c0,0.8,0.1,1.5,0.1,2.3C775.1,609.1,775.1,609.9,775,611.1z" style="fill: rgb(86, 137, 137); clip-path: url('#SVGID_2_');" transform="matrix(1, 0, 0, 1, -304.90142822265625, -259.859148979187)"/><path class="st15" d="M337.9,590c0.2,0.1,3.8,2.4,10.8,5.7c1.2,0.6,2.8,1.4,4.9,2.3c4.9,2.1,11.3,4.6,18,6.9&#10;&#9;&#9;&#9;&#9;c13.1,4.5,33.7,10.7,57.6,14.7c34.9,5.8,74.8,8.7,118.5,8.7c44.4,0,84.3-2.9,118.6-8.6c30.4-5,52.5-11.8,66.8-17.5&#10;&#9;&#9;&#9;&#9;c17.5-6.6,26.1-12.2,26.5-12.4c2.2-1.4,2.8-4.3,1.4-6.4c-0.8-1.3-2.1-2-3.5-2.1c-1-0.1-2,0.1-2.9,0.7c0,0-1.6,1-4.8,2.7&#10;&#9;&#9;&#9;&#9;c0,0-0.1-0.1-0.1-0.1c-0.5-0.5-0.9-1.1-1.4-1.6l-0.2-0.3c-0.1-0.2-0.3-0.3-0.4-0.5c-0.5-0.5-1-1-1.5-1.6l-0.7-0.7&#10;&#9;&#9;&#9;&#9;c-0.5-0.5-1-1-1.6-1.5l-0.8-0.7c-0.6-0.5-1.1-1-1.7-1.4c-0.2-0.2-0.4-0.3-0.6-0.5l-0.2-0.1c-0.6-0.5-1.3-1-2-1.5l-0.6-0.4&#10;&#9;&#9;&#9;&#9;c-0.9-0.6-1.8-1.3-3-2.1c-2.4-1.6-5.1-3.2-7.8-4.6c0,0-0.1,0-0.1,0l-0.2-0.1c-0.8-0.4-1.7-0.9-2.5-1.3c-0.3-0.1-0.6-0.3-0.8-0.4&#10;&#9;&#9;&#9;&#9;c-0.8-0.4-1.7-0.8-2.5-1.2l-0.9-0.4c-0.8-0.4-1.7-0.8-2.6-1.2l-0.9-0.4c-0.9-0.4-1.8-0.8-2.6-1.1l-0.9-0.4&#10;&#9;&#9;&#9;&#9;c-0.9-0.4-1.9-0.7-2.9-1.1l-0.1,0c-0.1,0-0.3-0.1-0.5-0.2l-1.5-0.6c-5.1-1.9-10.6-3.7-16.5-5.4l-0.5-0.2&#10;&#9;&#9;&#9;&#9;c-1.1-0.3-2.2-0.6-3.3-0.9l-0.2,0c-0.2-0.1-0.5-0.1-0.7-0.2c-1.1-0.3-2.1-0.6-3.2-0.9l-1-0.3c-1.1-0.3-2.1-0.5-3.3-0.8&#10;&#9;&#9;&#9;&#9;c-0.3-0.1-0.6-0.1-0.9-0.2c-1.1-0.3-2.2-0.5-3.3-0.8c-0.2,0-0.4-0.1-0.6-0.1l-0.2,0c-6.3-1.5-13-2.8-19.9-4.1c0,0-0.1,0-0.2,0&#10;&#9;&#9;&#9;&#9;l-0.2,0c-1.2-0.2-2.4-0.4-3.5-0.6c-0.3-0.1-0.6-0.1-0.9-0.1c-0.8-0.1-1.6-0.3-2.5-0.4l-1.9-0.3c0,0-0.1,0-0.1,0l-4.1-0.7&#10;&#9;&#9;&#9;&#9;c-1.1-0.2-2.2-0.3-3.3-0.5l-1.7-0.3c-0.9-0.1-1.7-0.3-2.6-0.4l-0.3,0c-3-0.4-6-0.8-9.2-1.2c-0.4,1.8-0.8,3.5-1.3,5.3&#10;&#9;&#9;&#9;&#9;c-0.4,1.3-0.8,2.6-1.2,3.8c3.6,0.4,7,0.9,10.4,1.4l0.4,0.1c0.8,0.1,1.7,0.2,2.5,0.4l1.7,0.3c1.1,0.2,2.2,0.3,3.3,0.5l4,0.6&#10;&#9;&#9;&#9;&#9;c0,0,0.1,0,0.1,0l1.9,0.3c0.8,0.1,1.6,0.3,2.4,0.4c0.3,0,0.5,0.1,0.8,0.1c1.2,0.2,2.3,0.4,3.5,0.6c0,0,0.1,0,0.2,0l0.2,0&#10;&#9;&#9;&#9;&#9;c6.8,1.2,13.4,2.6,19.5,4l0.7,0.2c1.1,0.3,2.1,0.5,3.2,0.8c0.3,0.1,0.7,0.2,0.9,0.2c1.1,0.3,2.1,0.5,3.1,0.8l0.9,0.2&#10;&#9;&#9;&#9;&#9;c1,0.3,2.1,0.5,3.2,0.8c0.2,0.1,0.4,0.1,0.6,0.2l0.2,0.1c1.1,0.3,2.1,0.6,3.1,0.9l0.6,0.2c5.6,1.6,10.9,3.4,15.7,5.2l1.4,0.5&#10;&#9;&#9;&#9;&#9;c0.2,0.1,0.4,0.2,0.6,0.2l0,0c0.9,0.4,1.8,0.7,2.7,1.1l0.9,0.4c0.8,0.3,1.7,0.7,2.5,1l0.9,0.4c0.8,0.4,1.6,0.7,2.4,1.1l0.9,0.4&#10;&#9;&#9;&#9;&#9;c0.8,0.4,1.6,0.7,2.4,1.2c0.2,0.1,0.4,0.2,0.6,0.3c0.8,0.4,1.6,0.8,2.4,1.2c0,0,0.1,0,0.1,0l0.2,0.1c2.5,1.3,4.9,2.8,7.1,4.2&#10;&#9;&#9;&#9;&#9;c1,0.7,1.9,1.3,2.6,1.8c0.1,0.1,0.3,0.2,0.4,0.3l0.2,0.1c0.6,0.4,1.1,0.8,1.7,1.3l0.2,0.2c0.1,0.1,0.3,0.2,0.5,0.4&#10;&#9;&#9;&#9;&#9;c0.5,0.4,1,0.8,1.4,1.2l0.7,0.6c0.5,0.4,0.9,0.8,1.3,1.3l0.6,0.6c0.4,0.4,0.8,0.8,1.2,1.2c-8.9,4.6-32.1,14.7-75.9,22&#10;&#9;&#9;&#9;&#9;c-33.9,5.6-73.3,8.5-117.1,8.5c-43.2,0-82.6-2.9-117-8.6c-26.8-4.5-49.9-11.9-64.1-17.3c-4.2-1.6-7.8-3.1-10.9-4.5&#10;&#9;&#9;&#9;&#9;c0.4-0.4,0.8-0.9,1.2-1.3c0.2-0.2,0.4-0.4,0.6-0.5c0.5-0.4,0.9-0.9,1.5-1.4l0.5-0.5c0.5-0.5,1.1-0.9,1.5-1.3l0.2-0.1&#10;&#9;&#9;&#9;&#9;c0.1-0.1,0.3-0.2,0.4-0.3c0.6-0.5,1.2-0.9,1.8-1.4l0.1-0.1c0,0,0.1-0.1,0.1-0.1c0.8-0.6,1.7-1.2,2.7-1.8c2.2-1.5,4.7-2.9,7.3-4.4&#10;&#9;&#9;&#9;&#9;l0.2-0.1c0.8-0.4,1.6-0.9,2.5-1.3c0.2-0.1,0.4-0.2,0.6-0.3c0.8-0.4,1.6-0.8,2.4-1.2l0.1-0.1c0.2-0.1,0.4-0.2,0.6-0.3&#10;&#9;&#9;&#9;&#9;c0.8-0.4,1.6-0.7,2.4-1.1l0.8-0.4c0.8-0.4,1.7-0.7,2.5-1.1l0.8-0.3c0.9-0.4,1.8-0.7,2.7-1.1l0.9-0.3c0.3-0.1,0.5-0.2,0.8-0.3&#10;&#9;&#9;&#9;&#9;c4.9-1.8,10.3-3.6,16-5.3l0.9-0.3c0.9-0.3,1.9-0.5,2.9-0.8l0.9-0.2c1-0.3,2-0.5,3-0.8l1-0.3c1-0.3,2-0.5,3-0.8&#10;&#9;&#9;&#9;&#9;c0.3-0.1,0.6-0.1,0.9-0.2l0.1,0c1.1-0.3,2.1-0.5,3.2-0.8l0.8-0.2c1.1-0.3,2.3-0.5,3.4-0.8c0,0,0.1,0,0.1,0&#10;&#9;&#9;&#9;&#9;c5-1.1,10.3-2.2,15.6-3.1l0.7-0.1c0.8-0.1,1.5-0.3,2.3-0.4l1-0.2c0.4-0.1,0.7-0.1,1-0.2c0.9-0.2,1.9-0.3,2.8-0.5l0.3,0&#10;&#9;&#9;&#9;&#9;c0.3,0,0.5-0.1,0.8-0.1c0,0,0.1,0,0.1,0c0.1,0,0.2,0,0.3-0.1c0.7-0.1,1.4-0.2,2.1-0.3l7.4-1.1c0.7-0.1,1.3-0.2,2.1-0.3&#10;&#9;&#9;&#9;&#9;c0.3,0,0.5-0.1,0.8-0.1c3.3-0.5,6.7-0.9,10-1.3c-0.4-1.3-0.8-2.5-1.2-3.8c-0.5-1.7-0.9-3.5-1.3-5.3c-3,0.4-5.9,0.8-8.8,1.2&#10;&#9;&#9;&#9;&#9;c-0.3,0-0.6,0.1-0.9,0.1c-0.7,0.1-1.4,0.2-2.1,0.3l-7.5,1.1c-0.7,0.1-1.4,0.2-2.2,0.3c0,0-0.1,0-0.2,0l-0.2,0&#10;&#9;&#9;&#9;&#9;c-0.3,0-0.6,0.1-0.9,0.1l-0.3,0c-1,0.2-1.9,0.3-2.9,0.5c-0.3,0.1-0.6,0.1-1,0.2c0,0-0.1,0-0.1,0l-0.9,0.2&#10;&#9;&#9;&#9;&#9;c-0.8,0.1-1.6,0.3-2.4,0.4l-0.7,0.1c-5.5,1-10.8,2.1-16,3.2c0,0-0.1,0-0.1,0c-1.2,0.3-2.3,0.5-3.5,0.8l-0.8,0.2&#10;&#9;&#9;&#9;&#9;c-1.1,0.3-2.2,0.5-3.3,0.8l-1,0.2c-1.1,0.3-2.1,0.5-3.1,0.8l-1,0.3c-1,0.3-2.1,0.6-3.2,0.8l-0.9,0.2c-1,0.3-2,0.5-2.9,0.8&#10;&#9;&#9;&#9;&#9;l-0.3,0.1c0,0-0.1,0-0.1,0l-0.6,0.2c-5.9,1.7-11.5,3.6-16.6,5.5c-0.3,0.1-0.6,0.2-0.9,0.3l-0.9,0.3c-1,0.4-1.9,0.8-2.9,1.2&#10;&#9;&#9;&#9;&#9;l-0.8,0.3c-0.9,0.4-1.8,0.8-2.7,1.2l-0.9,0.4c-0.9,0.4-1.8,0.8-2.6,1.2c-0.2,0.1-0.5,0.2-0.7,0.3l-0.1,0.1&#10;&#9;&#9;&#9;&#9;c-0.9,0.4-1.8,0.8-2.6,1.3c-0.2,0.1-0.5,0.2-0.7,0.3c-0.9,0.4-1.8,0.9-2.7,1.4c0,0-0.1,0-0.1,0l-0.1,0.1c-2.9,1.5-5.6,3.1-8,4.8&#10;&#9;&#9;&#9;&#9;c-1.1,0.7-2,1.4-3,2.1c-0.1,0.1-0.3,0.2-0.4,0.3c-0.7,0.5-1.4,1.1-2.1,1.6l-0.6,0.5c-0.6,0.5-1.2,1-1.9,1.6l-0.2,0.2&#10;&#9;&#9;&#9;&#9;c-0.2,0.1-0.3,0.3-0.4,0.4c-0.6,0.5-1.2,1.1-1.7,1.6c-0.2,0.2-0.4,0.4-0.7,0.7c-0.5,0.5-1.1,1.1-1.6,1.7l-0.5,0.6&#10;&#9;&#9;&#9;&#9;c-0.4,0.5-0.8,0.9-1.2,1.4c-2.7-1.4-4-2.3-4.1-2.3c-0.9-0.6-1.9-0.8-2.9-0.7c-1.4,0.1-2.7,0.9-3.5,2.1&#10;&#9;&#9;&#9;&#9;C335.2,585.7,335.8,588.6,337.9,590z" style="fill: rgb(86, 137, 137); clip-path: url('#SVGID_2_');" transform="matrix(1, 0, 0, 1, -304.90142822265625, -259.859148979187)"/><path class="st13" d="M485.5,491.9c-5,9.7-7.9,20.7-7.9,32.3c0,6.5,0.9,13,2.7,19.3c3,10.5,8.4,20.2,15.8,28.3&#10;&#9;&#9;&#9;&#9;c13.3,14.6,32.3,23,52.1,23c13.2,0,26.1-3.8,37.1-10.6C497.7,576.5,486.9,508,485.5,491.9z" style="fill: rgb(237, 237, 237); clip-path: url('#SVGID_2_');" transform="matrix(1.2805944668508213, 0, 0, 1.2805944668508213, -454.5396670312999, -421.29196157308)"/><path class="st2" d="M548.2,453.6c-27.3,0-51,15.6-62.7,38.2c1.3,16.1,12.2,84.7,99.8,92.3c5.8-3.6,11.2-8,15.8-13.3&#10;&#9;&#9;&#9;&#9;c6.9-7.9,12.1-17.3,15-27.4c1.8-6.3,2.7-12.8,2.7-19.3C618.8,485.3,587.1,453.6,548.2,453.6z" style="fill: rgb(255, 255, 255); clip-path: url('#SVGID_2_');" transform="matrix(1.3717013219895562, 0, 0, 1.3717013219895562, -503.60185357557856, -470.04032534878564)"/><path class="st16" d="M645.7,599.3c-2.4,0-4.4-1.8-4.6-4.2c-0.2-2.6,1.7-4.8,4.2-5.1c0.3,0,25.9-2.4,45-8.4&#10;&#9;&#9;&#9;&#9;c2.5-0.8,5.1,0.6,5.8,3.1c0.8,2.5-0.6,5.1-3.1,5.8c-20.1,6.3-45.9,8.6-47,8.7C646,599.3,645.9,599.3,645.7,599.3z" style="fill: rgb(209, 82, 116); clip-path: url('#SVGID_2_');" transform="matrix(1, 0, 0, 1, -304.90142822265625, -259.859148979187)"/><path class="st14" d="M547.5,465.5c17.1,0,33.4,7.5,44.5,20.5c1.7,2,1.5,4.9-0.5,6.6c-0.9,0.8-2,1.1-3,1.1&#10;&#9;&#9;&#9;&#9;c-1.3,0-2.6-0.6-3.5-1.6c-9.4-10.9-23-17.2-37.5-17.2c-2.6,0-4.7-2.1-4.7-4.7C542.9,467.6,544.9,465.5,547.5,465.5z" style="fill: rgb(178, 178, 178); clip-path: url('#SVGID_2_');" transform="matrix(1.1228646039962769, 0, 0, 1.1228646039962769, -360.8262700147275, -350.5314793753212)"/><path class="st14" d="M625.8,523.7c0-3.2-0.2-6.4-0.6-9.5c-0.4-2.9-0.9-5.8-1.6-8.7c-1-3.9-2.2-7.8-3.8-11.5&#10;&#9;&#9;&#9;&#9;c-5.8-13.7-15.4-25.3-27.4-33.7c-2.8-2-5.8-3.8-8.9-5.3c-10.6-5.4-22.5-8.5-35.2-8.5c-12.7,0-24.7,3.1-35.3,8.5&#10;&#9;&#9;&#9;&#9;c-3.1,1.6-6.1,3.4-8.9,5.4c-12.1,8.5-21.8,20.3-27.5,34.1c-1.5,3.7-2.8,7.6-3.7,11.5c-0.6,2.7-1.1,5.4-1.5,8.1&#10;&#9;&#9;&#9;&#9;c-0.4,3.1-0.6,6.3-0.6,9.5c0,0.2,0,0.3,0,0.5c0,5.4,0.6,10.7,1.7,16c0.4,1.8,0.8,3.5,1.3,5.3c0.4,1.3,0.8,2.6,1.2,3.8&#10;&#9;&#9;&#9;&#9;c3.4,10.1,9,19.4,16.1,27.3c14.7,16,35.5,25.2,57.3,25.2c22.2,0,43.4-9.6,58.1-26.2c6.7-7.6,12-16.6,15.3-26.3&#10;&#9;&#9;&#9;&#9;c0.4-1.3,0.8-2.5,1.2-3.8c0.5-1.7,0.9-3.5,1.3-5.3c1.1-5.3,1.7-10.6,1.7-16C625.8,524,625.8,523.9,625.8,523.7z M613.9,542.9&#10;&#9;&#9;&#9;&#9;c-2.8,9.7-7.8,18.9-14.5,26.5c-13,14.7-31.6,23.1-51.2,23.1c-19.1,0-37.5-8.1-50.4-22.2c-7.1-7.8-12.4-17.2-15.3-27.3&#10;&#9;&#9;&#9;&#9;c-1.7-6.1-2.6-12.4-2.6-18.7c0-37.6,30.6-68.2,68.2-68.2c37.6,0,68.2,30.6,68.2,68.2C616.5,530.5,615.6,536.8,613.9,542.9z" style="fill: rgb(178, 178, 178); clip-path: url('#SVGID_2_');" transform="matrix(1.3125454305061917, 0, 0, 1.3125454305061917, -470.97741707769677, -439.98811237517816)"/><path class="st16" d="M450.3,599.3c2.4,0,4.4-1.8,4.6-4.2c0.2-2.6-1.7-4.8-4.2-5.1c-0.3,0-25.9-2.4-45-8.4&#10;&#9;&#9;&#9;&#9;c-2.5-0.8-5.1,0.6-5.8,3.1c-0.8,2.5,0.6,5.1,3.1,5.8c20.1,6.3,45.9,8.6,47,8.7C450,599.3,450.1,599.3,450.3,599.3z" style="fill: rgb(209, 82, 116); clip-path: url('#SVGID_2_');" transform="matrix(1, 0, 0, 1, -304.90142822265625, -259.859148979187)"/>
</svg>