<?xml version="1.0" encoding="utf-8"?>
<svg id="master-artboard" viewBox="0 0 515.5218505859375 465.4159851074219" version="1.1" xmlns="http://www.w3.org/2000/svg" x="0px" y="0px" style="enable-background:new 0 0 1400 1400;" width="515.5218505859375px" height="465.4159851074219px" xmlns:xlink="http://www.w3.org/1999/xlink"><rect id="ee-background" x="0" y="0" width="515.5218505859375" height="465.4159851074219" style="fill: white; fill-opacity: 0; pointer-events: none;"/>



<g transform="matrix(1, 0, 0, 1, -960.7261962890625, -1291.8608093261719)">
	<g>
		<path class="st1" d="M1067.2,289.7c77.5-12.9,184.8,13.9,160.1,95.4c-24.7,81.5-35.1,156.4-112.6,169.3&#10;&#9;&#9;&#9;c-77.5,12.9-90.8-25.7-152.7-99.3C900.3,381.5,989.7,302.6,1067.2,289.7z" style="fill-rule: evenodd; clip-rule: evenodd; fill: rgb(226, 167, 93);"/>
		<path class="st2" d="M1233.2,378.2l-9.8,17.5c-1.7,3.1-2.4,5.5-4.3,9c-4.4,8-8.1,10.9-15.9,27.4l-30.5,54.5&#10;&#9;&#9;&#9;c-4.2,7.7-19.1,31.9-20.6,37.8c14.3-14.3,22.7-32.2,36.5-42.5c0-3.2,2.9-5.2,5.9-7.8c2.9-2.6,5.1-4.7,8.3-7.5&#10;&#9;&#9;&#9;c34-30.1,35.4-15.3,40.9-47.7l-3.9-50.3C1237.4,371.5,1236.7,373.5,1233.2,378.2z" style="fill-rule: evenodd; clip-rule: evenodd; fill: rgb(236, 193, 145);"/>
		<path class="st2" d="M1129.2,396.6c-3.4,49.1-6.1,104.8-7.8,156.7c5.2-4.2,45.3-154.8,51.3-161.7c-0.5-8.8,18.3-65.9,22.4-78.9&#10;&#9;&#9;&#9;c6.5-20.9-10.8-19.3-22.2-25.8c-7.2-4.1-6.3-9.7-18.1-8.7c-5.2,0.4-6.5,1.4-11.8-0.1c-3.9-1.1-3.9-2.1-8-3.4L1129.2,396.6z" style="fill-rule: evenodd; clip-rule: evenodd; fill: rgb(236, 193, 145);"/>
		<path class="st2" d="M1091.1,413.8l23.7,140.6c3.9-32.5,4.2-82.7,6.9-119.2l2-37.5c0.1-0.4,0.2-0.9,0.3-1.2l0.8-2.3&#10;&#9;&#9;&#9;c-4-13.4,7-106.2,3.9-123.8c-14.6-9.9-12.7-4.2-30.1-2.1c-12.1,1.5-16.1-3.3-30.2,0.4C1066.4,282,1087.8,390.2,1091.1,413.8z" style="fill-rule: evenodd; clip-rule: evenodd; fill: rgb(236, 193, 145);"/>
		<path class="st2" d="M1055.3,422.9l52.6,131.2l-23.2-145.4l-23.1-137.2c-7.6,2.8-8.7,4.9-17.7,5.2c-14.5,0.4-14.8,2.2-25.6,11.3&#10;&#9;&#9;&#9;c-4.9,4.1-7.7,4.2-12.5,7.6L1055.3,422.9z" style="fill-rule: evenodd; clip-rule: evenodd; fill: rgb(236, 193, 145);"/>
		<path class="st2" d="M1008.2,419.4c4,2.7,19,26.5,23.4,33.3c10.8,16.8,65.6,100.5,71.1,104.6c-6.7-20.7-17.3-44.3-25.7-65.4&#10;&#9;&#9;&#9;c-4.9-12.3-24.4-58.1-25.3-67.4c-4.1-3.8-45.7-111.7-51.8-128c-13.2,3.3-8.1,3-14.1,12.3c-10.6,16.3-21.5,4.6-25.9,27.1&#10;&#9;&#9;&#9;c-1.9,9.8,0,9.2,5.1,17.1C972.8,364.8,1004.8,410.8,1008.2,419.4z" style="fill-rule: evenodd; clip-rule: evenodd; fill: rgb(236, 193, 145);"/>
		<path class="st2" d="M940.5,414.6c0.3,0.1,0.6,0.1,0.7,0.5l151.5,141.2l-67.5-102.4c-4.9-6.5-6.9-11-11.3-17.7l-8.3-12.7&#10;&#9;&#9;&#9;c-2.7-3.4-0.7-2.1-3.1-2.8l-47-71.2c-23.4,12.8-13.3,26.9-19.2,40.4C926.4,412.7,929.6,397,940.5,414.6z" style="fill-rule: evenodd; clip-rule: evenodd; fill: rgb(236, 193, 145);"/>
		<path class="st2" d="M1176.7,394.9c-1,0.7-0.6-0.2-1.6,2.5c-0.5,1.4-0.7,2.5-1.2,4.2c-7.3,29.2-22.7,75.8-31.8,107.2&#10;&#9;&#9;&#9;c-3.3,11.5-9.3,27.4-11,38.3c9.1-13.7,16.1-27.9,24.3-42.3l48.2-85.9c4.1-7.4,20.9-38.6,26.3-42.9c0.8-9.2,8.1-10.7,6-18.3&#10;&#9;&#9;&#9;c-1.5-5.5-6.3-12.2-8.5-19.8c-3.7-13.2-9.3-14.8-26.2-26.4c-3.2,13.6-8.2,27.9-12,40.9C1185.5,364.4,1178.5,383.4,1176.7,394.9z" style="fill-rule: evenodd; clip-rule: evenodd; fill: rgb(236, 193, 145);"/>
		<path class="st2" d="M929.4,431.9c1.3,13.8,3.9,27.6,8.5,40.8c6.4,6.3,5.7,9.1,15.5,14.3c6.8,3.7,11.8,6.4,19.5,10.2&#10;&#9;&#9;&#9;c11.4,5.5,28.3,15.2,40.3,18.6l56.6,28.2l-67.1-64.3c-10.8-10.1-22.5-22.9-33.6-31.5c-4.6-3.5-4.1-3.7-7.9-7.8&#10;&#9;&#9;&#9;c-3.9-4.2-17.1-14.3-24.9-23.8l-5.2-4.1L929.4,431.9z" style="fill-rule: evenodd; clip-rule: evenodd; fill: rgb(236, 193, 145);"/>
		<path class="st2" d="M1191.9,485.3l-38.7,47.6c-2,2.8-11,13.4-13.6,15.5c10-0.2,50.1-6.4,56.7-11.3c10.9-8,2.9-38.3-1.2-53.8&#10;&#9;&#9;&#9;C1193.6,483.8,1194.6,482.7,1191.9,485.3z" style="fill-rule: evenodd; clip-rule: evenodd; fill: rgb(236, 193, 145);"/>
		<path class="st2" d="M1079.4,558.8c-5.9-7.3-57.4-32.4-68.5-36.3c1.6,16.6,2.9,39.9,16.1,43.2&#10;&#9;&#9;&#9;C1035.6,567.8,1068.3,560.7,1079.4,558.8z" style="fill-rule: evenodd; clip-rule: evenodd; fill: rgb(236, 193, 145);"/>
	</g>
	<g transform="matrix(1, 0, 0, 1, 540.2723271465985, 431.3464547380099)">
		<path class="st3" d="M812.7,920.7c95.9,47.6,118,145.3,95,248.3c-81.5,39-151.7,160.2-246.3,155.1c-38-2.1-84.5-65.3-110.8-87.2&#10;&#9;&#9;&#9;c-24.7-20.5-85.7-54.3-99.5-80.5c-37.5-71.4,7.8-147.5,58.4-208.5C578.7,864.4,716.9,873.1,812.7,920.7z" style="fill-rule: evenodd; clip-rule: evenodd; fill: rgb(204, 174, 161);"/>
		<path class="st4" d="M657.5,880.3c1.1,5.6,3,197.7,3.1,219.1c0.1,18.5-0.2,36.6,0.3,54.7l2.9,81.5c0.8,14.4,5.1,63,7.2,75.4&#10;&#9;&#9;&#9;c0.7,4.2,0.4,3.5,4.4,3.1l2.7-53.9c0.6-18.4,1.6-36.2,2.7-54.4c0.5-8.8,0.7-17.9,1.3-26.6c0.6-9.2,1.3-18.2,1.5-27.2&#10;&#9;&#9;&#9;c0.7-26.1,4.7-81.6,7.2-108.4c1.7-18.4,2.8-36.5,4.9-54.6c1-9,1.7-18.1,2.5-27.3l8.5-82.1c-8-4-20.8-16.5-37-6.7&#10;&#9;&#9;&#9;C666.9,874.6,658.9,879,657.5,880.3z" style="fill-rule: evenodd; clip-rule: evenodd; fill: rgb(217, 200, 185);"/>
		<path class="st4" d="M711.4,880.5l-3.2,26.7c-9.4,78.7-16.2,165.6-20.3,244.4c-1,18.5-2.6,36.3-2.9,54.4l-4.8,101.8&#10;&#9;&#9;&#9;c-0.5,5.7-1,4.6,0.9,7.2c2.4-3.5,7.2-47.4,8-52.9c10.3-70.3,18.5-141.5,30.3-212.5c6-35.9,15.4-71,23.5-107l14.1-53.8&#10;&#9;&#9;&#9;c-9.1-5.7-16.4-21.4-34.4-12C716.8,879.7,717.7,879.2,711.4,880.5z" style="fill-rule: evenodd; clip-rule: evenodd; fill: rgb(217, 200, 185);"/>
		<path class="st4" d="M760.7,890.8c-10,38.7-25.1,93.8-31.9,132.5c-1.6,8.9-3.9,17.1-5.3,26.4l-8.3,53.2&#10;&#9;&#9;&#9;c-4.7,32.2-11,74.1-14.7,105.6c-2.1,17.6-5.1,34.9-7.1,52.5c-0.9,7.9-7.1,49.7-6.7,53.1l4.7-0.1c1.9-4.5,3.9-19,5.5-25&#10;&#9;&#9;&#9;c1.2-4.5,1.4-7.9,2.4-12.3l35.2-164c15.1-67,32.4-142.4,67.4-203.9c-4.3-6-4.2-4.9-6.8-11.5c-3.5-8.7-13.5-10.8-22.6-8.3l-8.5,1.3&#10;&#9;&#9;&#9;C762,890.5,762.1,890.4,760.7,890.8z" style="fill-rule: evenodd; clip-rule: evenodd; fill: rgb(217, 200, 185);"/>
		<path class="st4" d="M805.6,911.2c-14.5,24.2-33.8,75-41.8,101.9c-18.6,63.3-32.1,135.1-46.8,200.2c-1.8,8-3.7,16.7-5.1,24.6&#10;&#9;&#9;&#9;c-1.4,8-3.2,17.1-5.3,25.3l-10.2,50l4.6-0.8c2.8-6.3,4.6-16.3,6.8-23.3l20.4-70.4c15.4-52,41-139.6,61.4-187.7&#10;&#9;&#9;&#9;c12.2-28.6,32.8-69,53.5-96.1c-9.1-7.7-3.6-15.8-13.5-20.7c-9.2-4.6-6.9,1.1-20.4-2.3L805.6,911.2z" style="fill-rule: evenodd; clip-rule: evenodd; fill: rgb(217, 200, 185);"/>
		<path class="st4" d="M523.5,929.1c30.8,36.9,43.1,96.3,55.8,141.7c4.6,16.3,8.6,32,13.1,48.3l26.1,96c2.1,8.1,19.7,92.8,30.9,94.3&#10;&#9;&#9;&#9;c-2.1-8.1-4.3-11.7-7.2-24.5L623.4,1184c-2.6-18-2.8-31.1-6.1-51.2l-23.1-126.3c-3.5-16.6-6.6-33.2-12.4-50.1&#10;&#9;&#9;&#9;c-4-11.6-14.3-40.3-20.5-50.1c-9.2,6.3-15.4,0.8-22.4,2.7C526.3,912.4,530.5,920.5,523.5,929.1z" style="fill-rule: evenodd; clip-rule: evenodd; fill: rgb(217, 200, 185);"/>
		<path class="st4" d="M608.8,887.1c5.1,12,17.3,82.2,19.7,99c2.3,16.1,4.7,57.8,5.8,73.7l7.8,94.3c3.2,37.5,8.5,111.5,19.3,146.8&#10;&#9;&#9;&#9;c0.8,2.5,1.3,4.1,2.1,6.7c0.9,3.2,0.2,4.2,3.2,6.3l-9.7-148l-2.5-231.3c-0.2-9.2-0.3-17.4-0.5-27l0-27.7&#10;&#9;&#9;&#9;c-9.7-3.5-16.2-8.4-23.4-7.3C619.8,874.3,618.1,881.6,608.8,887.1z" style="fill-rule: evenodd; clip-rule: evenodd; fill: rgb(217, 200, 185);"/>
		<path class="st4" d="M873.4,947.3l-6.8-5.6c-10.4-2.5-2.2-0.9-10.3-0.9c-4.2,0-7.5-2.5-10.4-2.6c-4.4,7.5-10.8,15.9-15.6,23.8&#10;&#9;&#9;&#9;c-4.8,7.8-9.6,16-13.9,23.8c-25.3,45.8-40.5,90.9-55.5,140c-3,10-53,172.7-54.4,184.9c1.8-0.1,2.9,0.1,4.5-1.8l27.7-79.1&#10;&#9;&#9;&#9;c9.9-28.5,20.5-56.1,31.6-84.7c19-49.2,43.3-86,74.7-129.6c10.6-14.7,22.8-29.6,33-44.3c-1.5-6-2.1-6.1-2.1-11.7&#10;&#9;&#9;&#9;C875.8,952.7,875.7,953.8,873.4,947.3z" style="fill-rule: evenodd; clip-rule: evenodd; fill: rgb(217, 200, 185);" transform="matrix(1, 0, 0, 1, 0, -1.1368683772161603e-13)"/>
		<path class="st4" d="M564.8,904.4c5.5,7.4,17.7,40.9,20.9,50.6c13.2,40.4,34.6,162.3,39.6,206.5l3,25.7&#10;&#9;&#9;&#9;c2.6,23.4,9.6,54.3,13.9,77.6c1.7,9.5,6,29.6,9.7,38.8c1.8,4.6,2.7,8.9,8.6,8.9c-8.6-29.6-9.4-36.2-13.5-65.5&#10;&#9;&#9;&#9;c-0.6-4.5-1.2-8.7-1.7-13.1c-0.3-2.3-0.1-4-0.4-6.3c-4.7-39.6-8.6-87.6-11.5-127.4l-5.2-66.3c-0.7-12.8-1.5-28-3.1-40&#10;&#9;&#9;&#9;c-2.6-18.6-13.3-87.2-20.3-105.7c-8.3,1.3-15-4.5-23.1-2.2C570.4,889,571.6,895.4,564.8,904.4z" style="fill-rule: evenodd; clip-rule: evenodd; fill: rgb(217, 200, 185);"/>
		<path class="st4" d="M493.1,940.4l-3.8,4.6c-0.3,2.5-1,3.8-1.1,6.4c-0.8,14-2,9.2,4.2,16.9c47.1,58.1,55.5,89.3,79.4,156.7&#10;&#9;&#9;&#9;c9.1,25.5,55.6,171.1,68.9,181.5c-0.2-1.1,0.1-0.1-0.6-1.9c-0.3-0.8-0.3-0.9-0.7-1.7l-4-8.3c-1.7-4-3-7.7-4.4-11.7&#10;&#9;&#9;&#9;c-2.6-7.7-4.5-16-6.4-23.6c-9.3-39.1-19.4-79.5-30.8-118.1c-2.2-7.4-4.3-15.1-6.2-23c-3.8-15.6-8.7-31.6-12.8-47.2&#10;&#9;&#9;&#9;c-9.3-35.4-21.6-84.9-39.5-116.7c-4.3-7.7-9.4-14.3-14.7-22.1c-5,0.9-6.9,4.2-13.8,3.9c-3.1-0.2-4-1.4-7.5,0&#10;&#9;&#9;&#9;C496.9,937.3,495.3,939.4,493.1,940.4z" style="fill-rule: evenodd; clip-rule: evenodd; fill: rgb(217, 200, 185);"/>
		<path class="st4" d="M881,974.4c-16.7,19.6-45.4,62.2-60.9,84.7c-18.8,27.4-33.6,55.7-44.2,83.6c-10.7,28-21.3,54.5-30.9,82.3&#10;&#9;&#9;&#9;c-2,6-27.8,77.6-28.2,82c5.7-2.1,6.1-6.3,8.5-12.1c2-4.9,3.9-9.4,6-14.4c26.1-61.4,67.8-156.5,107.9-204.7&#10;&#9;&#9;&#9;c20.3-24.5,36.9-44.4,62.4-65.2c-0.1-3.3-0.9-3.3-0.7-10.8C901.2,973.7,888.9,980.8,881,974.4z" style="fill-rule: evenodd; clip-rule: evenodd; fill: rgb(217, 200, 185);"/>
		<path class="st4" d="M461.3,1002.9c32.5,24.8,43.7,33.3,63.3,70.6c6.5,12.4,23,44,28.3,56.7c2.5,6.1,6.1,13.5,9,19.3&#10;&#9;&#9;&#9;c9.9,20.1,25,55.3,32.5,75.9c4.5,12.5,10.3,25.2,16.2,38.2c4.5,9.9,11.9,31.2,20.6,37.9l-17.2-41.7c-8.1-19.4-21.6-62.1-29.1-84.2&#10;&#9;&#9;&#9;c-12.7-37.2-30.9-91.3-46-126.5c-10.2-23.8-33.6-60.5-53.7-82.9c-8.8,11.2-12.9,0.5-20.6,13.8&#10;&#9;&#9;&#9;C460.1,987.6,463.9,995.4,461.3,1002.9z" style="fill-rule: evenodd; clip-rule: evenodd; fill: rgb(217, 200, 185);"/>
		<path class="st4" d="M904.1,1013.8c-50.8,47.9-77.8,78.5-110.1,141.6c-18.9,36.8-35.4,72.7-51.7,110.2c-2.8,6.3-5.1,11.9-7.7,18&#10;&#9;&#9;&#9;c-2,4.6-6.4,13.9-7.4,18.1c7.5-4.1,7-6.7,10.1-14.3c15.5-37.7,42.1-88.9,63.4-122.8c27.2-43.3,60.5-76.5,101.2-106.2&#10;&#9;&#9;&#9;c4.8-3.5,11.4-7.6,15.7-11.3c-0.1-3.8-1.2-4.9-1-9.2C917.5,1015.8,915.4,1023.6,904.1,1013.8z" style="fill-rule: evenodd; clip-rule: evenodd; fill: rgb(217, 200, 185);"/>
		<path class="st4" d="M459.8,1006.9c-8.3,8-15.8,3.9-14.5,21.7c0.2,3.1-0.4,5.6,0,9c25.8,13.6,48.4,33.9,64.2,57&#10;&#9;&#9;&#9;c14.4,21.1,28,44.1,39.7,65.4c11.8,21.6,24.7,44.2,34.4,65.9c6.8,15.1,22.2,55.8,34.5,66.5l-1.5-5.1c-0.7-1.5-1.3-2.7-2.1-4.4&#10;&#9;&#9;&#9;c-7-14.7-21.8-48.7-26.9-63.1c-13.4-38.1-32.2-72.5-48.5-108.3c-5.4-11.8-12.2-24.3-18.2-35.7&#10;&#9;&#9;&#9;C501.7,1038.8,491.1,1031.5,459.8,1006.9z" style="fill-rule: evenodd; clip-rule: evenodd; fill: rgb(217, 200, 185);"/>
		<path class="st4" d="M739.2,1292.7c4.5-1.6,5.6-6.3,9.1-13.2c35.6-69.8,83.9-140.9,151.5-182.5c5.1-3.1,9-5.4,14.2-8l14.3-6.6&#10;&#9;&#9;&#9;c0.3-5.8,3.5-10.5,2.5-16.3c-1.7-9.8-5.8-7.5-11.2-15c-9.1,7.3-19.7,13.9-29.1,21.5c-69.4,55.8-98.9,108.3-136,186.8&#10;&#9;&#9;&#9;c-2.5,5.2-5,10.9-7.4,16.2C745,1280.4,742,1288.6,739.2,1292.7z" style="fill-rule: evenodd; clip-rule: evenodd; fill: rgb(217, 200, 185);"/>
		<path class="st4" d="M526,1304l2.9,2.4c15.2,0,25-1.5,39.9-4.4l39.5-6.4c-6.3-6.5-12.3-11.6-18.4-18.5&#10;&#9;&#9;&#9;c-5.5-6.3-9.8-12.2-14.2-18.8c-7.4-11.1-25.7-28.5-37.5-36.6c-9.7,17.8-12.9,24.4-14.7,42c-0.6,5.9-1.3,15.3-0.7,20.2&#10;&#9;&#9;&#9;C524.4,1299.4,523.5,1290.8,526,1304z" style="fill-rule: evenodd; clip-rule: evenodd; fill: rgb(217, 200, 185);"/>
		<path class="st4" d="M444.2,1041.8c-2.8,2.6-2.3,4.5-6.2,7.3c-4,2.9-5.1,2.4-7,7.8c-1.8,5.1-0.2,13.2,2,17.3&#10;&#9;&#9;&#9;c6.9,0.2,22.6,7,30.3,11.5c11.5,6.7,21.1,14.3,30.3,24.1c22,23.5,60.1,83.1,75.2,111.6c7.3,13.7,22.3,48.9,33.4,55.8&#10;&#9;&#9;&#9;c-5-10.5-9.2-19.3-14-30c-4.6-10.3-8.8-20.8-13.8-30.9c-10.4-20.9-21-40.6-32.7-60.9c-11.9-20.6-23-40.1-37.2-60.5&#10;&#9;&#9;&#9;C488.5,1071.9,469.3,1056,444.2,1041.8z" style="fill-rule: evenodd; clip-rule: evenodd; fill: rgb(217, 200, 185);"/>
		<path class="st4" d="M432.4,1077.8c-2.2,6.2-7.4,13.7-5.6,18.7c1,2.8,2.6,6,3.7,8.8c1.5,3.5,1.5,6.1,2.5,9.2&#10;&#9;&#9;&#9;c2.9,1.4,7.1,2.3,10.3,3.5c3.6,1.3,6.9,2.5,10.2,3.9c25.8,11.1,42.2,26,62.2,46.4c11.5,11.7,23,24.7,31.9,37.3&#10;&#9;&#9;&#9;c8.1,11.6,16.1,27.8,27.3,37.4l-11.6-22.8c-16.3-29.7-56.2-92-79.2-114.1c-11-10.6-24.4-18.4-38.3-23.8&#10;&#9;&#9;&#9;C441.2,1080.5,436.4,1079.5,432.4,1077.8z" style="fill-rule: evenodd; clip-rule: evenodd; fill: rgb(217, 200, 185);"/>
		<path class="st4" d="M823.4,1170.3c-15.1,18.2-28.5,37.4-40.6,57c-6.1,9.9-28.9,47-30.6,54.6c14.9-15.2,28.7-46.5,52.2-74.7&#10;&#9;&#9;&#9;c35-42.2,67.6-60.3,115.2-83.5c11.2-5.4,4.9-2,12.2-16.9c3.4-7,2.3-11-3-20.1C891.1,1104.1,855.3,1131.7,823.4,1170.3z" style="fill-rule: evenodd; clip-rule: evenodd; fill: rgb(217, 200, 185);"/>
		<path class="st4" d="M814.8,1309.6l2.5-3c1.2-7.1,2.6-12.3,3.2-19.5c0.7-10-0.4-27.5-2.9-37.2c-1.3-5.3-4.1-12.9-7-17.8l-4.5,2.6&#10;&#9;&#9;&#9;c-1.5,1.2-2.7,2.3-4.2,3.7c-23.4,20.1-21,24.1-39.1,44.9c-4.7,5.4-12.3,11-16,15.8c5.2,1.3,11.5,2,17.3,3.4&#10;&#9;&#9;&#9;c5.6,1.3,11.2,2.9,17.1,3.9C792.2,1308.3,805,1311.2,814.8,1309.6z" style="fill-rule: evenodd; clip-rule: evenodd; fill: rgb(217, 200, 185);"/>
		<path class="st4" d="M809.8,1207.5c-8.6,10.3-20,24.4-26,35.9c30.1-27.4,37.4-44.2,81.4-66.2c13.6-6.8,30.1-11.7,42.6-12.5&#10;&#9;&#9;&#9;c5.6-0.3,5.4,0.4,10.5-5.2c4.8-5.2,14.1-15.9,12.4-23.2l-4.3-11.5c-4.6,2.9-9.8,5-14.7,7.7&#10;&#9;&#9;&#9;C867.7,1156.9,846.9,1162.7,809.8,1207.5z" style="fill-rule: evenodd; clip-rule: evenodd; fill: rgb(217, 200, 185);"/>
		<path class="st4" d="M432.5,1119.2c-1.3,8.5-6.6,9.3-3.1,17.9c1.7,4.1,7.7,14.7,12.5,17l18.4,4.5c23,7.1,60.5,27.8,75.7,46.8&#10;&#9;&#9;&#9;c5.6,7,9,11.2,17.1,16.7c-4.1-12.3-39.6-50.8-51.1-61.3c-11.7-10.6-21.1-19.5-34.8-27.4C457.8,1128.1,441.6,1120.9,432.5,1119.2z" style="fill-rule: evenodd; clip-rule: evenodd; fill: rgb(217, 200, 185);"/>
		<path class="st4" d="M826.3,1208c0.2-0.1,0.7-0.4,0.7-0.3c0,0.1,0.5-0.2,0.6-0.3c15.2-8.3,7.4-9.9,39.8-19.5&#10;&#9;&#9;&#9;c9.4-2.8,33.1-8.6,40.4-18.9C882.9,1170.7,842.7,1190.9,826.3,1208z" style="fill-rule: evenodd; clip-rule: evenodd; fill: rgb(217, 200, 185);"/>
		<path class="st4" d="M446.4,1159.7c21.4,23.2,46.9,18.4,75.3,37.7c-0.2-0.1-15.5-11.5-18-13.1&#10;&#9;&#9;&#9;C491.2,1176.1,457.3,1158.8,446.4,1159.7z" style="fill-rule: evenodd; clip-rule: evenodd; fill: rgb(217, 200, 185);"/>
	</g>
	<g>
		<path class="st5" d="M1098.9,673c-3.9-0.7-31.3-19.7-33-26.4c-2.3-48.6,176.6-74.9,215.7-45.1c27.2,11.1-17.6,46.4-17.6,46.4&#10;&#9;&#9;&#9;c-4.8,0.8-0.5,0.6-4.4-2.3c-8.9-6.6-26.5-7.6-35.6-8.1c-4.1-0.2-8.2-0.1-12.2-0.6c-26-3.4-55.2,4.7-78.8,14&#10;&#9;&#9;&#9;c-7.7,3.1-12.8,5.7-20.1,9.1C1102.3,665,1104.9,667.4,1098.9,673z" style="fill-rule: evenodd; clip-rule: evenodd; fill: rgb(162, 165, 153);"/>
		<path class="st6" d="M1124.6,694.6c-6-4.5-20.5-13.6-25.6-21.6c6-5.6,3.4-8,14-13c7.3-3.4,12.4-6,20.1-9.1&#10;&#9;&#9;&#9;c23.6-9.3,52.8-17.4,78.8-14c4,0.5,8.2,0.4,12.2,0.6c9.1,0.5,26.8,1.5,35.6,8.1c3.9,2.9-0.4,3.1,4.4,2.3&#10;&#9;&#9;&#9;c-1.8,6.9-20.7,30.3-26.5,35c0.1-7.7-1.7-7.7-10-9.2c-27.5-5-51.1-3-76.6,6.9C1136,686.4,1129.4,694.4,1124.6,694.6z" style="fill-rule: evenodd; clip-rule: evenodd; fill: rgb(194, 185, 168);"/>
		<path class="st7" d="M1124.6,694.6c4.8-0.3,11.5-8.2,26.4-14c25.5-9.8,49.2-11.9,76.6-6.9c8.3,1.5,10.1,1.5,10,9.2&#10;&#9;&#9;&#9;c-3.3,4.9-7.8,9.3-11.8,14.3c-8.5,10.8-29.2,40.4-38.8,41C1180.4,738.8,1131.2,701,1124.6,694.6z" style="fill-rule: evenodd; clip-rule: evenodd; fill: rgb(221, 209, 180);"/>
		<path class="st5" d="M1098.9,673c-3.9-0.7-31.3-19.7-33-26.4c-2.3-48.6,176.6-74.9,215.7-45.1c27.2,11.1-17.6,46.4-17.6,46.4&#10;&#9;&#9;&#9;c-4.8,0.8-0.5,0.6-4.4-2.3c-8.9-6.6-26.5-7.6-35.6-8.1c-4.1-0.2-8.2-0.1-12.2-0.6c-26-3.4-55.2,4.7-78.8,14&#10;&#9;&#9;&#9;c-7.7,3.1-12.8,5.7-20.1,9.1C1102.3,665,1104.9,667.4,1098.9,673z" style="fill-rule: evenodd; clip-rule: evenodd; fill: rgb(162, 165, 153);"/>
		<path class="st6" d="M1124.6,694.6c-6-4.5-20.5-13.6-25.6-21.6c6-5.6,3.4-8,14-13c7.3-3.4,12.4-6,20.1-9.1&#10;&#9;&#9;&#9;c23.6-9.3,52.8-17.4,78.8-14c4,0.5,8.2,0.4,12.2,0.6c9.1,0.5,26.8,1.5,35.6,8.1c3.9,2.9-0.4,3.1,4.4,2.3&#10;&#9;&#9;&#9;c-1.8,6.9-20.7,30.3-26.5,35c0.1-7.7-1.7-7.7-10-9.2c-27.5-5-51.1-3-76.6,6.9C1136,686.4,1129.4,694.4,1124.6,694.6z" style="fill-rule: evenodd; clip-rule: evenodd; fill: rgb(194, 185, 168);"/>
		<path class="st7" d="M1124.6,694.6c4.8-0.3,11.5-8.2,26.4-14c25.5-9.8,49.2-11.9,76.6-6.9c8.3,1.5,10.1,1.5,10,9.2&#10;&#9;&#9;&#9;c-3.3,4.9-7.8,9.3-11.8,14.3c-8.5,10.8-29.2,40.4-38.8,41C1180.4,738.8,1131.2,701,1124.6,694.6z" style="fill-rule: evenodd; clip-rule: evenodd; fill: rgb(221, 209, 180);"/>
		<path class="st8" d="M1209.1,714.8c9.7-10.7,14.5-22.1,10.8-25.5c-3.7-3.3-14.5,2.7-24.2,13.4c-9.7,10.7-14.5,22.1-10.8,25.5&#10;&#9;&#9;&#9;C1188.6,731.5,1199.5,725.5,1209.1,714.8z" style="fill-rule: evenodd; clip-rule: evenodd; fill: rgb(239, 225, 214);"/>
		<path class="st4" d="M1243.8,662.9c4.8-5.4,7.3-11.1,5.4-12.7c-1.9-1.7-7.3,1.3-12.1,6.7c-4.8,5.4-7.3,11.1-5.4,12.7&#10;&#9;&#9;&#9;C1233.5,671.2,1238.9,668.2,1243.8,662.9z" style="fill-rule: evenodd; clip-rule: evenodd; fill: rgb(217, 200, 185);"/>
	</g>
	<g>
		<path class="st5" d="M844.6,163.1c-3.4-3-19.1-37.7-16.8-45.3c26.4-49,217.1,30.7,238,82.9c20.1,26.9-44.6,35.1-44.6,35.1&#10;&#9;&#9;&#9;c-5.2-2-0.9,0.3-3-4.8c-4.8-11.7-21.5-23.1-30.1-29c-3.8-2.6-8-4.9-11.6-7.8c-23.5-18.6-56.8-27.9-85.4-32.7&#10;&#9;&#9;&#9;c-9.4-1.6-15.9-2-25.1-2.9C852.7,157.3,853.7,161.2,844.6,163.1z" style="fill-rule: evenodd; clip-rule: evenodd; fill: rgb(162, 165, 153);"/>
		<path class="st6" d="M856.9,199.4c-3.2-7.9-12.1-25.4-12.4-36.3c9.2-2,8.1-5.9,21.3-4.5c9.1,0.9,15.7,1.4,25.1,2.9&#10;&#9;&#9;&#9;c28.6,4.7,62,14,85.4,32.7c3.7,2.9,7.8,5.2,11.6,7.8c8.6,5.9,25.3,17.3,30.1,29c2.1,5.2-2.2,2.8,3,4.8&#10;&#9;&#9;&#9;c-5.8,5.7-38.2,17.5-46.6,18.7c4.7-7.5,2.9-8.6-4.4-14.9c-23.9-21.1-48.3-33.1-79.1-38.4C873,198.1,861.8,202,856.9,199.4z" style="fill-rule: evenodd; clip-rule: evenodd; fill: rgb(194, 185, 168);"/>
		<path class="st7" d="M856.9,199.4c4.9,2.6,16.1-1.3,34.1,1.8c30.8,5.4,55.2,17.3,79.1,38.4c7.2,6.4,9,7.5,4.4,14.9&#10;&#9;&#9;&#9;c-6.1,2.8-13.2,4.5-20,7.1c-14.7,5.6-52.4,22.4-62.1,17.3C885.7,275.6,859.7,209.6,856.9,199.4z" style="fill-rule: evenodd; clip-rule: evenodd; fill: rgb(221, 209, 180);"/>
		<path class="st5" d="M844.6,163.1c-3.4-3-19.1-37.7-16.8-45.3c26.4-49,217.1,30.7,238,82.9c20.1,26.9-44.6,35.1-44.6,35.1&#10;&#9;&#9;&#9;c-5.2-2-0.9,0.3-3-4.8c-4.8-11.7-21.5-23.1-30.1-29c-3.8-2.6-8-4.9-11.6-7.8c-23.5-18.6-56.8-27.9-85.4-32.7&#10;&#9;&#9;&#9;c-9.4-1.6-15.9-2-25.1-2.9C852.7,157.3,853.7,161.2,844.6,163.1z" style="fill-rule: evenodd; clip-rule: evenodd; fill: rgb(162, 165, 153);"/>
		<path class="st6" d="M856.9,199.4c-3.2-7.9-12.1-25.4-12.4-36.3c9.2-2,8.1-5.9,21.3-4.5c9.1,0.9,15.7,1.4,25.1,2.9&#10;&#9;&#9;&#9;c28.6,4.7,62,14,85.4,32.7c3.7,2.9,7.8,5.2,11.6,7.8c8.6,5.9,25.3,17.3,30.1,29c2.1,5.2-2.2,2.8,3,4.8&#10;&#9;&#9;&#9;c-5.8,5.7-38.2,17.5-46.6,18.7c4.7-7.5,2.9-8.6-4.4-14.9c-23.9-21.1-48.3-33.1-79.1-38.4C873,198.1,861.8,202,856.9,199.4z" style="fill-rule: evenodd; clip-rule: evenodd; fill: rgb(194, 185, 168);"/>
		<path class="st7" d="M856.9,199.4c4.9,2.6,16.1-1.3,34.1,1.8c30.8,5.4,55.2,17.3,79.1,38.4c7.2,6.4,9,7.5,4.4,14.9&#10;&#9;&#9;&#9;c-6.1,2.8-13.2,4.5-20,7.1c-14.7,5.6-52.4,22.4-62.1,17.3C885.7,275.6,859.7,209.6,856.9,199.4z" style="fill-rule: evenodd; clip-rule: evenodd; fill: rgb(221, 209, 180);"/>
		<path class="st8" d="M928,269c15.8-4.8,27.3-13.2,25.6-18.6c-1.7-5.5-15.8-6-31.6-1.1c-15.8,4.8-27.3,13.2-25.6,18.6&#10;&#9;&#9;&#9;C898,273.3,912.2,273.8,928,269z" style="fill-rule: evenodd; clip-rule: evenodd; fill: rgb(239, 225, 214);"/>
		<path class="st4" d="M992.5,238.5c7.9-2.4,13.6-6.6,12.8-9.3c-0.8-2.7-7.9-3-15.8-0.6c-7.9,2.4-13.6,6.6-12.8,9.3&#10;&#9;&#9;&#9;C977.5,240.7,984.6,240.9,992.5,238.5z" style="fill-rule: evenodd; clip-rule: evenodd; fill: rgb(217, 200, 185);"/>
	</g>
	<g>
		<path class="st9" d="M884.3,912c-4.1,40,85.6,90.3,115.5,121.1c16.7,17.2-22.1,50.5,17.4,60.5c9.7,2.5,19.5,4.7,29.2,7.1&#10;&#9;&#9;&#9;c17,4.1,39.2,13.4,50.1,4.1c13.4-11.4,4.4-36.6,22.4-42.6c36.3-12.1,119.8-15.7,149.5-42.2c1.8,0.4,1.6,0.6,1.5-1.4&#10;&#9;&#9;&#9;c3.3-3.2,5.8-6.8,7.4-10.7C1250.6,706.7,896.5,793.2,884.3,912z" style="fill-rule: evenodd; clip-rule: evenodd; fill: rgb(251, 217, 155); stroke: rgb(243, 208, 128); stroke-width: 0.216; stroke-miterlimit: 22.9256;"/>
		<path class="st10" d="M1003.9,949.2c-0.1,4.3,1.3,5.5,5.3,13.6l7.1,14.3c4,7.4,15.5,24.9,8.6,28.3c-6.4,3.2-13.1-16.1-16.7-23.4&#10;&#9;&#9;&#9;c-2.8-5.6-11-24.2-14.9-26.5c0.1-9.9-5.1-8.8-11.4-27l-13.2-23.6c-0.1-0.1-0.3-0.5-0.5-0.7c-1.1-6.3-0.1-2.1-2.6-6.9l-22.6-46.8&#10;&#9;&#9;&#9;c-20.5,1.5-55.4,29.7-58.6,61.6c-4.1,40,85.6,90.3,115.5,121.1c16.7,17.2-22.1,50.5,17.4,60.5c9.7,2.5,19.5,4.7,29.2,7.1&#10;&#9;&#9;&#9;c17,4.1,39.2,13.4,50.1,4.1c13.4-11.4,4.4-36.6,22.4-42.6c36.3-12.1,119.8-15.7,149.5-42.2l1.5,0.4c0-0.6,0-1.2,0-1.8&#10;&#9;&#9;&#9;c3.3-3.2,5.8-6.8,7.4-10.7c12-30.3-6.1-70.3-23.7-81.7c-11,10.5-25.6,18.8-38.2,28.9c-6.2,5-12.3,8.6-19.1,13.6&#10;&#9;&#9;&#9;c-1.7,1.2-3.3,2.3-4.9,3.4l-0.1,0l-0.1,0.2c-1.5,1-3,2-4.5,3.2c-4.7,3.7-4.5,4-10.6,7.6l-23.8,17.7c-3.4,2.7-5.2,3.4-8.7,6.1&#10;&#9;&#9;&#9;c-9,6.9-29.6,25.6-34.2,19.3c-4.5-6.1,11.6-15.1,17.1-18.9c5.4-3.7,6.9-5.2,11.2-8.1c5.9-4.1,7.3-3.7,10.4-9.1&#10;&#9;&#9;&#9;c9.6-1.2,11.2-7.9,23.3-15.2c9.3-5.6,5-4.9,11.1-8.1c7.1-3.8,6.2-2.5,12-10l8.9-4.7c3.6-2.5,5.1-4.5,8.4-6.8&#10;&#9;&#9;&#9;c1.9-1.3,2.2-1.3,4.5-2.8c2.1-1.5,2.3-1.9,4.2-3.3l26.1-18.4c6.6-4,6.1-8.4,3.8-21.1c-5.5-29.5-25-53.6-62.8-63.8l-59.5,104.8&#10;&#9;&#9;&#9;c-2.4,4-3.6,4.9-6,8.9c-2.2,3.7-3.7,6.9-5.6,10.9c-3.5,7.3-8,14.5-11.7,21.5c-11,13.1-8.9,26.2-20.3,22.2&#10;&#9;&#9;&#9;c-3-8.7,15.7-34.8,20.9-43.7l74.7-130.2c-18-34.4-56.1-54.9-97.1-45.6c-13.4,3.1-21.9,8.1-30.9,14.3c0.9,46.9,5.7,102.5,6,148.9&#10;&#9;&#9;&#9;c0,8.7,1.3,16.2,1.6,24.1c0.4,10.7,2.6,21.1-2.4,24c-9.7,5.4-7.6-20.8-7.6-28.1c-0.8-7.6-0.1-32.1-2.5-37.2&#10;&#9;&#9;&#9;c1.1-3.4,1.5-11.8-0.1-15.8l-1.2-5.2c3-11.3-4.1-87.8-3-109c-40.4-10.7-83.9,12.2-93,40.7c-1.3,4,6.5,16.9,9.1,21.6l31.5,62.9&#10;&#9;&#9;&#9;c1.8,3.6,0.3,2.9,3.2,4.2C996.5,937.6,996.5,944.5,1003.9,949.2z" style="fill-rule: evenodd; clip-rule: evenodd; fill: rgb(243, 208, 128); stroke: rgb(243, 208, 128); stroke-width: 0.216; stroke-miterlimit: 22.9256;"/>
		<path class="st11" d="M1073.4,990.2c6.8,1.7,22.4-38.2,34.7-88.6c12.3-50.5,16.8-93,10.1-94.7c-6.8-1.7-22.4,38.2-34.7,88.6&#10;&#9;&#9;&#9;C1071.1,946,1066.6,988.5,1073.4,990.2z" style="fill-rule: evenodd; clip-rule: evenodd; fill: rgb(251, 217, 155);"/>
		<path class="st11" d="M1173.5,929c6.8,1.7-3.1,21-22,43.2c-19,22.2-39.9,38.8-46.7,37.2c-6.8-1.7,3.1-21,22-43.2&#10;&#9;&#9;&#9;C1145.8,944,1166.7,927.4,1173.5,929z" style="fill-rule: evenodd; clip-rule: evenodd; fill: rgb(251, 217, 155);"/>
		<path class="st11" d="M1010.8,896.3c-6.8-1.7-7,20-0.3,48.5c6.6,28.4,17.5,52.8,24.3,54.5c6.8,1.7,7-20,0.3-48.5&#10;&#9;&#9;&#9;C1028.5,922.3,1017.6,897.9,1010.8,896.3z" style="fill-rule: evenodd; clip-rule: evenodd; fill: rgb(251, 217, 155);"/>
		<path class="st11" d="M1046.4,1092.6c27.6,6.7,51.8,5.2,53.9-3.5c2.1-8.6-18.7-21.2-46.3-27.9c-27.6-6.7-51.8-5.2-53.9,3.5&#10;&#9;&#9;&#9;S1018.8,1085.8,1046.4,1092.6z" style="fill-rule: evenodd; clip-rule: evenodd; fill: rgb(251, 217, 155);"/>
	</g>
	<g>
		<path class="st12" d="M85.3,626.2c79.6-20.2,48.9-73.4,200,23.5c44.1-33.9,17.7-51.8-19.7-77.3c-54.6-37.2-124.5-34.5-177.1,3.1&#10;&#9;&#9;&#9;C55.5,591.2,80.3,608.5,85.3,626.2z" style="fill-rule: evenodd; clip-rule: evenodd; fill: rgb(129, 118, 78);"/>
		<path class="st13" d="M92.5,631.5c5.5,15.8,62.3,77.3,83.7,80.5c21.5,3.1,41.5-13.7,55.4-22.7c28.3-18.4,22.9-17.2,47.5-34.9&#10;&#9;&#9;&#9;C248.7,606.2,140.7,593,92.5,631.5z" style="fill-rule: evenodd; clip-rule: evenodd; fill: rgb(227, 203, 145);"/>
		<path class="st14" d="M82,617.5c2.7,9.6,3.3,8.2,9.1,15.9c45.6-18.3,85.3-37.4,147.6-6.1c17.3,8.7,25.9,18.5,39,27.6&#10;&#9;&#9;&#9;c13.3-8,10.8-9.6,12.3-13.2C260.9,591,151,560.4,82,617.5z" style="fill-rule: evenodd; clip-rule: evenodd; fill: rgb(164, 149, 113);"/>
		<path class="st15" d="M141.1,632.7c12,1.4,27.1,15.1,33.6,30.6c6.6,15.5,2.2,27-9.8,25.6c-12-1.4-27.1-15.1-33.6-30.6&#10;&#9;&#9;&#9;C124.7,642.8,129.1,631.3,141.1,632.7z" style="fill-rule: evenodd; clip-rule: evenodd; fill: rgb(252, 229, 193);"/>
		<path class="st16" d="M158.7,661.5c6,0.7,13.5,7.5,16.8,15.3c3.3,7.8,1.1,13.5-4.9,12.8c-6-0.7-13.5-7.5-16.8-15.3&#10;&#9;&#9;&#9;C150.5,666.5,152.7,660.8,158.7,661.5z" style="fill-rule: evenodd; clip-rule: evenodd; fill: rgb(253, 237, 210);"/>
	</g>
	<g>
		<path class="st2" d="M445,219.1c59.1-52.3,9.4-84.3,181.2-68.2c22.7-48.4-7.7-52-50.9-57.3c-63.1-7.7-121.5,25.4-149.9,80.7&#10;&#9;&#9;&#9;C404.1,202.4,432.8,206.3,445,219.1z" style="fill-rule: evenodd; clip-rule: evenodd; fill: rgb(236, 193, 145);"/>
		<path class="st2" d="M453.4,220.5c11.7,11,87.3,38.6,106.9,31.8c19.7-6.8,29.4-30,37.3-43.9c16-28.1,12-24.7,25.2-50.8&#10;&#9;&#9;&#9;C575.6,130,477.6,166.4,453.4,220.5z" style="fill-rule: evenodd; clip-rule: evenodd; fill: rgb(236, 193, 145);"/>
		<path class="st11" d="M438.3,213.2c6.5,7,6.4,5.6,14.8,9.6c30.8-35.7,56.3-69.6,123.3-70.3c18.7-0.2,30.3,4.4,45.4,6.4&#10;&#9;&#9;&#9;c7.8-12.7,5-12.9,4.7-16.7C579.3,111.6,472,133.9,438.3,213.2z" style="fill-rule: evenodd; clip-rule: evenodd; fill: rgb(251, 217, 155);"/>
		<path class="st15" d="M495.5,200.1c10.9-4.1,29.8,0.9,42.2,11.3c12.5,10.4,13.8,22.1,2.9,26.2c-10.9,4.1-29.8-0.9-42.2-11.3&#10;&#9;&#9;&#9;C485.9,216,484.6,204.2,495.5,200.1z" style="fill-rule: evenodd; clip-rule: evenodd; fill: rgb(252, 229, 193);"/>
		<path class="st16" d="M523.2,216.9c5.4-2.1,14.9,0.5,21.1,5.6c6.2,5.2,6.9,11,1.4,13.1c-5.4,2.1-14.9-0.5-21.1-5.6&#10;&#9;&#9;&#9;C518.4,224.8,517.8,218.9,523.2,216.9z" style="fill-rule: evenodd; clip-rule: evenodd; fill: rgb(253, 237, 210);"/>
	</g>
	<g>
		<path class="st17" d="M359.4,250.2C417,263.4,529,343.4,474.9,414.1C420.8,484.7,363.2,534.8,307,535.8&#10;&#9;&#9;&#9;c-56.2,1-106.2-119.3-118.2-188C176.7,279.2,301.8,236.9,359.4,250.2z" style="fill-rule: evenodd; clip-rule: evenodd; fill: rgb(199, 169, 155);"/>
		<path class="st18" d="M270.1,248.9c-3.9,9.8-3,8.1-0.7,16c-4.2-23.9-34.3,0.2-35.9,4.8c-0.9,11.3,4.3,15.3,8.4,23.7&#10;&#9;&#9;&#9;c-1.2-1.6-11.3-36.2-34.9-4.6c-3,4.1-3.6,5.9-2.1,11.3l2.2,5.4c-12.6-4-14.5-2-19.8,10.1c-5.2,11.9-1.2,15.4,6.1,22.4&#10;&#9;&#9;&#9;c11.7,11.2,22.3,22.9,32.2,33.8c10.2,11.2,20.5,24.8,28.4,36.2c8.6,12.4,15.6,31,21.7,41.6c-1.4-26-25.5-78.4-40.4-102.9&#10;&#9;&#9;&#9;c-5.7-9.3-19-26.1-20.7-31.8l51.1,78.3c5.6,12.1,17.7,42.1,18.9,52.5c-0.4-32.7-11.6-76.1-23.4-106.5c-4.6-12-10.8-23.5-13.8-34.7&#10;&#9;&#9;&#9;c3.8,3.8,6.2,9.8,8.6,14.7l20,47.2c3.7,10,6.9,22,9.6,33.4c2.6,11,4.7,25.7,7.5,34.6c3.4-32.6-3.2-78.3-9.3-110.7&#10;&#9;&#9;&#9;c-2-10.6-6.9-26.4-7.4-35.7l10.4,32.3c2.8,10.7,5.6,22.6,7.4,33.3c3.8,23.3,6.6,46.4,8.3,70c9-40.9,5.4-118.6,2.2-162.4&#10;&#9;&#9;&#9;C303.2,238.1,295.4,238,270.1,248.9z" style="fill-rule: evenodd; clip-rule: evenodd; fill: rgb(206, 187, 167);"/>
		<path class="st18" d="M339.8,430.6c18.7-24.8,26.5-48.6,62.2-89l25.1-25.8c-3.4,5.4-31.9,39.6-45.1,59.1&#10;&#9;&#9;&#9;c-11.2,16.6-32.7,51.9-38.6,70.6c16.2-18.2,18.1-25.8,44.1-52.6c6.6-6.8,41.3-39.5,51.8-42.6c-12.6,14.3-32.4,27.5-50.6,49.2&#10;&#9;&#9;&#9;c-11,13.1-36.7,44.2-42.5,60.1c6.4-11,47.7-46.4,55.6-51c12.5-7.3,20.8-11.6,31.5-19.4l27.1-12.4c-3.3,1.6-4.3,1.8-7.6,4.1&#10;&#9;&#9;&#9;L422.6,400c-13.4,7.3-58,46.2-68.4,64.7c11-4.5,23.1-23.2,73.9-44.2c13.8-5.7,27-10.5,41.2-15.8c6.9-2.6,16-3.4,19-9.2&#10;&#9;&#9;&#9;c1.6-3.2,9.5-37.3-18.9-24.4c6.3-5.3,18.7-6.2,14.4-20.7c-2.6-8.6-5.8-19.9-19.3-18.6c7.7-10.7,2.5-14.5-2.2-22&#10;&#9;&#9;&#9;c-5.2-8.3-5.7-13-18.9-10.7c3.4-12.9-1.2-14.7-10.1-22.1c-10-8.2-16.2-6.4-21.9,2.8C389.5,315,348.4,394.4,339.8,430.6z" style="fill-rule: evenodd; clip-rule: evenodd; fill: rgb(206, 187, 167);"/>
		<path class="st18" d="M458.9,441c-24.3,3.5-75.1,24.6-93.2,42.1c14.4-5.4,29.3-13.7,47.9-15.7c-3.6,3.6-21.1,14.7-26.6,17.9&#10;&#9;&#9;&#9;l-20.4,14c-3.2,2.2-3.9,3.4-6.8,5.6L333,522.4c-43.1,22.4-54.3,4.1-78.3-39c-13.1-23.5-9.6-21-24.5-43c-4.7-6.9-7-9.6-8.4-16.3&#10;&#9;&#9;&#9;c10.7,6.5,33.2,29.8,36.4,36.8c-7.5-16.8-14.7-26.8-27.3-42.7c-7.9-9.9-28.2-30.5-39.7-38.7c1.3,6-0.3-0.1,1.8,5.4&#10;&#9;&#9;&#9;c0.3,0.7,2.1,4.8,2.6,5.8l18.9,28.9c25,31.8-6.4,51.2,23,68.7c8.2,4.9,14.1,8.3,21.2,14.4c11.7,10.1,17.3,27,37.1,32&#10;&#9;&#9;&#9;c18.4,4.7,34.4-7.8,47.7-12c19.5-6.1,34.7,0.7,46.1-15c15.9-22.1,5.3-27.9,29.8-40.7c4.3-2.2,6.6-2.3,10.4-4.4&#10;&#9;&#9;&#9;c4.6-2.6,6.2-4.3,10.5-6.6C445.1,453.6,456,445.3,458.9,441z" style="fill-rule: evenodd; clip-rule: evenodd; fill: rgb(206, 187, 167);"/>
		<path class="st18" d="M323.2,418.7c18.7-48.6,31-89.6,52.3-140.3c10.2-24.3,15.5-29.4-14.4-35.9c-31.5-6.8-21.4,7-27.4,76.2&#10;&#9;&#9;&#9;C330.9,351.6,327.3,386.7,323.2,418.7z" style="fill-rule: evenodd; clip-rule: evenodd; fill: rgb(206, 187, 167);"/>
		<path class="st18" d="M313.8,408.1c7.2-23.7,25.5-148.8,21.3-165.7c-6.3-3.2-18.3-5.4-24.6-2.5c-8.8,4.1-5.7,15.2-4.4,23.1&#10;&#9;&#9;&#9;c2.6,16,3.7,30.5,5.3,46.4c1.5,15.6,2.2,32.1,2.5,48.1C314.2,371.4,312.2,395.9,313.8,408.1z" style="fill-rule: evenodd; clip-rule: evenodd; fill: rgb(206, 187, 167);"/>
		<path class="st18" d="M336.8,410.3c3.8-4.1,32.5-63.9,39.1-75.6c6.8-12.1,14.1-23.9,21.6-35.4c6.4-9.8,23.2-27.3,14.2-36.7&#10;&#9;&#9;&#9;c-2.9-3-14.2-8.2-18.6-7.8c-8.1,0.6-9.6,10-11.9,16.3C368.2,307.3,342.5,377.4,336.8,410.3z" style="fill-rule: evenodd; clip-rule: evenodd; fill: rgb(206, 187, 167);"/>
		<path class="st18" d="M265.5,451.4c-3.7-22.7-61.2-115-76.7-103.6c-3.8,2.8-5.9,12.1-4.1,17.6c2.3,6.7,39.6,33.8,60.2,58.5&#10;&#9;&#9;&#9;C250.5,430.5,260.2,446.9,265.5,451.4z" style="fill-rule: evenodd; clip-rule: evenodd; fill: rgb(206, 187, 167);"/>
		<path class="st18" d="M359.4,474.5l29.6-16.2c42.1-20.6,98.5-19,85.9-44.2c-3.4-6.8-10-5-15.9-2.5c-5.3,2.3-10.4,4.5-16,7.1&#10;&#9;&#9;&#9;C418.7,429.7,375.4,452.8,359.4,474.5z" style="fill-rule: evenodd; clip-rule: evenodd; fill: rgb(206, 187, 167);"/>
		<path class="st18" d="M299.3,527.8c16.6,3.8,33.8-8.6,38.1-27.6c4.4-19-5.6-37.7-22.3-41.5c-16.6-3.8-33.8,8.6-38.1,27.6&#10;&#9;&#9;&#9;C272.7,505.3,282.7,524,299.3,527.8z" style="fill-rule: evenodd; clip-rule: evenodd; fill: rgb(206, 187, 167);"/>
		<path class="st4" d="M302.2,515.3c13.6,3.1,27.7-7,31.3-22.6c3.6-15.6-4.6-30.9-18.2-34c-13.6-3.1-27.7,7-31.3,22.6&#10;&#9;&#9;&#9;C280.4,496.9,288.6,512.2,302.2,515.3z" style="fill-rule: evenodd; clip-rule: evenodd; fill: rgb(217, 200, 185);"/>
		<path class="st19" d="M308.7,487c6.8,1.6,13.8-3.5,15.6-11.3c1.8-7.8-2.3-15.4-9.1-17c-6.8-1.6-13.8,3.5-15.6,11.3&#10;&#9;&#9;&#9;C297.8,477.8,301.9,485.5,308.7,487z" style="fill-rule: evenodd; clip-rule: evenodd; fill: rgb(234, 220, 207);"/>
	</g>
	<g>
		<path class="st14" d="M703.1,587c30.5-19,63.7-280.8,61-312.3c-6.5-77.9-129.1-75.1-132.7,2c-1.2,26.3,9.8,84.8,14.6,112.8&#10;&#9;&#9;&#9;C653,430.4,673.1,573.2,703.1,587z" style="fill-rule: evenodd; clip-rule: evenodd; fill: rgb(164, 149, 113);"/>
		<path class="st12" d="M760.7,264.3c-7.7,97.9-8.7,138.8-29.8,239.8c-5.5,26.1-14.7,52.5-19.3,75.2c3.2-2.5,2.3-1.3,5.1-4.4&#10;&#9;&#9;&#9;c18.4-20,83.5-145.5,94.6-167.4c11.9-23.5,40.1-72.3,35-101.6C840.8,274.4,799.1,243.1,760.7,264.3z" style="fill-rule: evenodd; clip-rule: evenodd; fill: rgb(129, 118, 78);"/>
		<path class="st12" d="M691.6,577.5c-0.9-11.8-15.4-51.7-19.6-69.8C658.6,450,629.9,310.5,635.4,262c-21.3-3.6-35.7-6.7-55.6,3.6&#10;&#9;&#9;&#9;c-59.5,31-14.5,102.2,7.2,141.8C617.4,463,656,535.7,691.6,577.5z" style="fill-rule: evenodd; clip-rule: evenodd; fill: rgb(129, 118, 78);"/>
		<path class="st14" d="M837.1,505.8c-47.1,12.7-73.8,29.6-130.1,30c-52.4,0.3-82.4-14.3-126.3-26.3c-1.6,73.8,61.8,77.6,127.1,77&#10;&#9;&#9;&#9;c30.3-0.3,62.1-2.6,90-12.1C827.1,564.3,834.8,541.7,837.1,505.8z" style="fill-rule: evenodd; clip-rule: evenodd; fill: rgb(164, 149, 113);"/>
		<path class="st14" d="M739.8,540.3l92.6-81.2c5.6-5.2,7.1-8.4,12.5-14.2c12.3-13.1,39.2-31.1,42.9-56.8&#10;&#9;&#9;&#9;c4.7-32.3-18.6-52.5-41.6-59.6c-1.7,2-20.7,47.7-24,54.7C796.7,437,760.8,496.6,739.8,540.3z" style="fill-rule: evenodd; clip-rule: evenodd; fill: rgb(164, 149, 113);"/>
		<path class="st20" d="M707.5,566.8c21.6-2.6,100.2-38.4,123.8-49.1c22.8-10.3,40.9-16.4,51.2-35c15-27-3-48.2-17.2-61.2&#10;&#9;&#9;&#9;c-15.5,12-23.9,21.8-37.2,37.5l-99.9,90.5C722.1,554.3,713.1,563.4,707.5,566.8z" style="fill-rule: evenodd; clip-rule: evenodd; fill: rgb(129, 118, 78); stroke: rgb(129, 118, 78); stroke-width: 0.216; stroke-miterlimit: 22.9256;"/>
		<path class="st14" d="M663.2,539.7l-94.9-78.4c-5.8-5-7.4-8.2-12.9-13.8c-12.7-12.8-40.1-29.9-44.6-55.5&#10;&#9;&#9;&#9;c-5.6-32.1,17-53,39.8-60.8c1.7,1.9,22.1,47,25.6,54C603.3,438.1,640.9,496.7,663.2,539.7z" style="fill-rule: evenodd; clip-rule: evenodd; fill: rgb(164, 149, 113);"/>
		<path class="st20" d="M696.3,565.2c-21.7-2-101.3-35.5-125.2-45.4c-23.1-9.6-41.4-15.1-52.2-33.4c-15.7-26.5,1.5-48.3,15.4-61.7&#10;&#9;&#9;&#9;c15.9,11.6,24.6,21.1,38.3,36.4l102.6,87.6C681.3,553.1,690.5,562,696.3,565.2z" style="fill-rule: evenodd; clip-rule: evenodd; fill: rgb(129, 118, 78); stroke: rgb(129, 118, 78); stroke-width: 0.216; stroke-miterlimit: 22.9256;"/>
		<path class="st21" d="M701.6,535.3c23.8-0.4,42.2-62.2,41.1-137.8c-1.1-75.5-21.4-136.8-45.2-136.5&#10;&#9;&#9;&#9;c-23.8,0.4-42.2,62.2-41.1,137.8C657.5,474.3,677.8,535.7,701.6,535.3z" style="fill-rule: evenodd; clip-rule: evenodd; fill: rgb(179, 164, 132);"/>
		<path class="st22" d="M700.9,490c15.9-0.2,28.3-41.7,27.5-92.2c-0.7-50.5-14.3-91.6-30.2-91.4c-15.9,0.2-28.3,41.7-27.5,92.2&#10;&#9;&#9;&#9;C671.4,449.2,685,490.2,700.9,490z" style="fill-rule: evenodd; clip-rule: evenodd; fill: rgb(190, 177, 151);"/>
	</g>
	<g>
		<path class="st23" d="M171.5,758.4l-12.2,13.1c-2.5,8.7-12,25.2-15.8,37c-5.9,18.1-19.2,73.1-19.3,91.7c0,7.6,0.9,10.7,0.8,17.5&#10;&#9;&#9;&#9;c-0.4,24.3,5.8,49.2,31,72c24.4,22.1,38.6,11.2,49.8,60.2l19,17.6c15.5,2.6,15.7,5.1,32.1,4.2c34.2-1.8,67.1-21.5,91.8-47.8&#10;&#9;&#9;&#9;c19.9-21.1,32-38.3,38.4-63.7c8.3-33-6.2-48-11.4-63L351.8,875c-15.7-3.6-35.6-18.3-50.8-25.7c-16-7.8-33.7-15.6-48.3-25.9&#10;&#9;&#9;&#9;C215.2,796.8,222.1,748.9,171.5,758.4z" style="fill-rule: evenodd; clip-rule: evenodd; fill: rgb(169, 175, 111);"/>
		<path class="st24" d="M187.8,769.5c-25.8-1.2-37.1,109.8-38.2,121c-1.8,18.1-0.6,42.2,4.4,61.1c6.7,25.3,27.2,42.9,51,45.9&#10;&#9;&#9;&#9;c26.6,3.3,29.5-28.3,31.2-47.3l4.8-61.4c4.7-27.4,13.2-3.3-21.3-60.4C208.8,810.2,193.4,769.7,187.8,769.5z" style="fill-rule: evenodd; clip-rule: evenodd; fill: rgb(197, 98, 51);"/>
		<g>
			<defs>
				<path id="SVGID_1_" d="M187.8,769.5c-25.8-1.2-37.1,109.8-38.2,121c-1.8,18.1-0.6,42.2,4.4,61.1c6.7,25.3,27.2,42.9,51,45.9&#10;&#9;&#9;&#9;&#9;&#9;c26.6,3.3,29.5-28.3,31.2-47.3l4.8-61.4c4.7-27.4,13.2-3.3-21.3-60.4C208.8,810.2,193.4,769.7,187.8,769.5z"/>
			</defs>
			<clipPath id="SVGID_2_">
				<use style="overflow:visible;" xlink:href="#SVGID_1_"/>
			</clipPath>
			<g class="st25" style="clip-path: url('#SVGID_2_');">
				<path class="st26" d="M187.5,769.1c-22.5-1.1-32.3,95.7-33.3,105.5c-1.6,15.8-0.5,36.8,3.8,53.3c5.9,22.1,23.7,37.4,44.5,40&#10;&#9;&#9;&#9;&#9;&#9;c23.2,2.9,25.8-24.6,27.2-41.2l4.2-53.6c4.1-23.9,11.5-2.9-18.5-52.7C205.8,804.6,192.3,769.3,187.5,769.1z" style="fill-rule: evenodd; clip-rule: evenodd; fill: rgb(238, 131, 78);"/>
			</g>
		</g>
		<path class="st27" d="M241.4,1069.2c5.4,24.1,47.6,44.5,89.8,20.7c36.9-20.9,54.2-64.5,36.1-93.5&#10;&#9;&#9;&#9;C333.4,1046.2,283,1069.7,241.4,1069.2z" style="fill-rule: evenodd; clip-rule: evenodd; fill: rgb(155, 162, 86);"/>
		<path class="st28" d="M171.5,758.4c50.5-9.5,43.7,38.3,81.2,64.9c14.6,10.3,32.3,18.1,48.3,25.9c15.2,7.4,35.1,22.1,50.8,25.7&#10;&#9;&#9;&#9;L196.7,731.2L171.5,758.4z" style="fill-rule: evenodd; clip-rule: evenodd; fill: rgb(255, 255, 255);"/>
		<path class="st23" d="M274.2,1101.3c10.2,33.1,49.7,36.4,71.1,22.4c29.9-19.6,37.2-53.2,21.5-76c-13.3,19.7-22.4,31.1-43.7,41.6&#10;&#9;&#9;&#9;c-8.3,4.1-14.7,5.9-24.2,8.1L274.2,1101.3z" style="fill-rule: evenodd; clip-rule: evenodd; fill: rgb(169, 175, 111);"/>
		<path class="st27" d="M307.9,1140.1l9.7,9c17.2,3,32.6,9.5,49-5.9c17-15.9,16.2-31.1,3.5-47.6c-17.3,22-37.8,36.9-59.4,37.5&#10;&#9;&#9;&#9;C307.1,1138.3,307.9,1134.3,307.9,1140.1z" style="fill-rule: evenodd; clip-rule: evenodd; fill: rgb(155, 162, 86);"/>
		<path class="st23" d="M340.5,1170.3l24.8,22.9l3.1-3.3c-0.2-21.2,6.3-9.3,1.9-48.9c-6.3,0.3,0.8-1.2-5.5,1.5&#10;&#9;&#9;&#9;c-13.9,6,1.3,4.5-31.7,14.6L340.5,1170.3z" style="fill-rule: evenodd; clip-rule: evenodd; fill: rgb(169, 175, 111);"/>
		<path class="st29" d="M334.6,926.5c10.3,9.6,9.3,27.5-2.3,40c-11.6,12.5-29.4,14.9-39.7,5.3c-10.3-9.6-9.3-27.5,2.3-40&#10;&#9;&#9;&#9;C306.5,919.4,324.3,917,334.6,926.5z" style="fill-rule: evenodd; clip-rule: evenodd; fill: rgb(182, 187, 131);"/>
	</g>
	<text transform="matrix(1 0 0 1 347.1206 783.0713)" class="st30 st31 st32" style="white-space: pre;  fill: rgb(236, 193, 145);  font-family: 'LobsterTwo';  font-size: 226.383px; ;  font-weight: LobsterTwo">Scallops</text>
	<path class="st33" d="M715.7,96.1l10-18.3l10,18.3c7.7,14.1,19.4,25.8,33.5,33.5l18.3,10l-18.3,10c-14.1,7.7-25.8,19.4-33.5,33.5&#10;&#9;&#9;l-10,18.3l-10-18.3c-7.7-14.1-19.4-25.8-33.5-33.5l-18.3-10l18.3-10C696.3,121.9,707.9,110.3,715.7,96.1z" style="fill-rule: evenodd; clip-rule: evenodd; fill: rgb(244, 176, 121);"/>
	<path class="st33" d="M1278.7,774.4l11.9-11.6l3.3,16.3c2.6,12.6,8.7,24.2,17.6,33.4l11.6,11.9l-16.3,3.3&#10;&#9;&#9;c-12.6,2.6-24.2,8.7-33.4,17.6l-11.9,11.6l-3.3-16.3c-2.6-12.6-8.7-24.2-17.6-33.4l-11.6-11.9l16.3-3.3&#10;&#9;&#9;C1257.9,789.5,1269.4,783.4,1278.7,774.4z" style="fill-rule: evenodd; clip-rule: evenodd; fill: rgb(244, 176, 121);"/>
	<path class="st33" d="M1261.3,495.1l9.3-9l2.6,12.7c2,9.8,6.7,18.8,13.7,25.9l9,9.3l-12.7,2.6c-9.8,2-18.8,6.7-25.9,13.7l-9.3,9&#10;&#9;&#9;l-2.6-12.7c-2-9.8-6.7-18.8-13.7-25.9l-9-9.3l12.7-2.6C1245.1,506.8,1254.1,502,1261.3,495.1z" style="fill-rule: evenodd; clip-rule: evenodd; fill: rgb(244, 176, 121);"/>
	<path class="st33" d="M909.9,553.9l0.3-18.1l15.1,10c11.7,7.7,25.3,11.9,39.3,12.1l18.1,0.3l-10,15.1&#10;&#9;&#9;c-7.7,11.7-11.9,25.3-12.1,39.3l-0.3,18.1l-15.1-10c-11.7-7.7-25.3-11.9-39.3-12.1l-18.1-0.3l10-15.1&#10;&#9;&#9;C905.4,581.5,909.7,567.9,909.9,553.9z" style="fill-rule: evenodd; clip-rule: evenodd; fill: rgb(244, 176, 121);"/>
	<path class="st33" d="M526.4,541.3l-0.3-18.1l-15.1,10c-11.7,7.7-25.3,11.9-39.3,12.1l-18.1,0.3l10,15.1&#10;&#9;&#9;c7.7,11.7,11.9,25.3,12.1,39.3l0.3,18.1l15.1-10c11.7-7.7,25.3-11.9,39.3-12.1l18.1-0.3l-10-15.1&#10;&#9;&#9;C530.8,568.9,526.6,555.3,526.4,541.3z" style="fill-rule: evenodd; clip-rule: evenodd; fill: rgb(244, 176, 121);"/>
	<path class="st33" d="M378.2,184.7l-0.1-6.6l-5.5,3.6c-4.2,2.8-9.2,4.3-14.2,4.4l-6.6,0.1l3.6,5.5c2.8,4.2,4.3,9.2,4.4,14.2&#10;&#9;&#9;l0.1,6.6l5.5-3.6c4.2-2.8,9.2-4.3,14.2-4.4l6.6-0.1l-3.6-5.5C379.8,194.7,378.2,189.8,378.2,184.7z" style="fill-rule: evenodd; clip-rule: evenodd; fill: rgb(244, 176, 121);"/>
	<path class="st33" d="M706.1,817.9l-0.1-6.6l-5.5,3.6c-4.2,2.8-9.2,4.3-14.2,4.4l-6.6,0.1l3.6,5.5c2.8,4.2,4.3,9.2,4.4,14.2&#10;&#9;&#9;l0.1,6.6l5.5-3.6c4.2-2.8,9.2-4.3,14.2-4.4l6.6-0.1l-3.6-5.5C707.7,827.9,706.2,823,706.1,817.9z" style="fill-rule: evenodd; clip-rule: evenodd; fill: rgb(244, 176, 121);"/>
	<path class="st33" d="M467.3,836.1l-10.9-10.6l-3,14.8c-2.3,11.5-7.9,22-16.1,30.4l-10.6,10.9l14.8,3c11.5,2.3,22,7.9,30.4,16.1&#10;&#9;&#9;l10.9,10.6l3-14.8c2.3-11.5,7.9-22,16.1-30.4l10.6-10.9l-14.8-3C486.2,849.8,475.7,844.2,467.3,836.1z" style="fill-rule: evenodd; clip-rule: evenodd; fill: rgb(244, 176, 121);"/>
	<path class="st33" d="M989.4,1175.8l-10.9-10.6l-3,14.8c-2.3,11.5-7.9,22-16.1,30.4l-10.6,10.9l14.8,3c11.5,2.3,22,7.9,30.4,16.1&#10;&#9;&#9;l10.9,10.6l3-14.8c2.3-11.5,7.9-22,16.1-30.4l10.6-10.9l-14.8-3C1008.3,1189.5,997.8,1183.9,989.4,1175.8z" style="fill-rule: evenodd; clip-rule: evenodd; fill: rgb(244, 176, 121);"/>
	<path class="st33" d="M1151.1,1082.4l-9.8-9.6l-2.7,13.4c-2.1,10.4-7.2,19.9-14.5,27.6l-9.6,9.8l13.4,2.7&#10;&#9;&#9;c10.4,2.1,19.9,7.2,27.6,14.5l9.8,9.6l2.7-13.4c2.1-10.4,7.2-19.9,14.5-27.6l9.6-9.8l-13.4-2.7&#10;&#9;&#9;C1168.2,1094.8,1158.7,1089.8,1151.1,1082.4z" style="fill-rule: evenodd; clip-rule: evenodd; fill: rgb(244, 176, 121);"/>
	<path class="st33" d="M436,1193.5l-9.8-9.6l-2.7,13.4c-2.1,10.4-7.2,19.9-14.5,27.6l-9.6,9.8l13.4,2.7c10.4,2.1,19.9,7.2,27.6,14.5&#10;&#9;&#9;l9.8,9.6l2.7-13.4c2.1-10.4,7.2-19.9,14.5-27.6l9.6-9.8l-13.4-2.7C453.2,1205.9,443.6,1200.9,436,1193.5z" style="fill-rule: evenodd; clip-rule: evenodd; fill: rgb(244, 176, 121);"/>
	<path class="st33" d="M104.5,725l-10.8-10.5l-3,14.8c-2.3,11.4-7.9,22-16,30.4l-10.5,10.8l14.8,3c11.4,2.3,22,7.9,30.4,16&#10;&#9;&#9;l10.8,10.5l3-14.8c2.3-11.4,7.9-22,16-30.4l10.5-10.8l-14.8-3C123.4,738.7,112.9,733.2,104.5,725z" style="fill-rule: evenodd; clip-rule: evenodd; fill: rgb(244, 176, 121);"/>
	<path class="st33" d="M152.9,452.9l-6.4-6.2l-1.8,8.7c-1.4,6.7-4.6,12.9-9.4,17.9l-6.2,6.4l8.7,1.8c6.7,1.4,12.9,4.6,17.9,9.4&#10;&#9;&#9;l6.4,6.2l1.8-8.7c1.4-6.7,4.6-12.9,9.4-17.9l6.2-6.4l-8.7-1.8C164.1,461,157.9,457.7,152.9,452.9z" style="fill-rule: evenodd; clip-rule: evenodd; fill: rgb(244, 176, 121);"/>
	<path d="M 300.800006 753.799988 A 14.7 14.7 0 0 1 286.100006 768.499988 A 14.7 14.7 0 0 1 271.400006 753.799988 A 14.7 14.7 0 0 1 286.100006 739.099988 A 14.7 14.7 0 0 1 300.800006 753.799988 Z" class="st2" style="fill-rule: evenodd; clip-rule: evenodd; fill: rgb(236, 193, 145);"/>
	<path d="M 520.999988 293.5 A 15.7 15.7 0 0 1 505.299988 309.2 A 15.7 15.7 0 0 1 489.599988 293.5 A 15.7 15.7 0 0 1 505.299988 277.8 A 15.7 15.7 0 0 1 520.999988 293.5 Z" class="st2" style="fill-rule: evenodd; clip-rule: evenodd; fill: rgb(236, 193, 145);"/>
	<path d="M 911.000025 323.899994 A 12.6 12.6 0 0 1 898.400024 336.499994 A 12.6 12.6 0 0 1 885.800024 323.899994 A 12.6 12.6 0 0 1 898.400024 311.299994 A 12.6 12.6 0 0 1 911.000025 323.899994 Z" class="st2" style="fill-rule: evenodd; clip-rule: evenodd; fill: rgb(236, 193, 145);"/>
	<path d="M 822.899988 209.699997 A 13.6 13.6 0 0 1 809.299988 223.299997 A 13.6 13.6 0 0 1 795.699987 209.699997 A 13.6 13.6 0 0 1 809.299988 196.099997 A 13.6 13.6 0 0 1 822.899988 209.699997 Z" class="st2" style="fill-rule: evenodd; clip-rule: evenodd; fill: rgb(236, 193, 145);"/>
	<path d="M 1327.200048 699.799988 A 19.4 19.4 0 0 1 1307.800049 719.199987 A 19.4 19.4 0 0 1 1288.400049 699.799988 A 19.4 19.4 0 0 1 1307.800049 680.399988 A 19.4 19.4 0 0 1 1327.200048 699.799988 Z" class="st2" style="fill-rule: evenodd; clip-rule: evenodd; fill: rgb(236, 193, 145);"/>
	<path d="M 1091.300049 729.700012 A 11.5 11.5 0 0 1 1079.800049 741.200012 A 11.5 11.5 0 0 1 1068.300049 729.700012 A 11.5 11.5 0 0 1 1079.800049 718.200012 A 11.5 11.5 0 0 1 1091.300049 729.700012 Z" class="st2" style="fill-rule: evenodd; clip-rule: evenodd; fill: rgb(236, 193, 145);"/>
	<path d="M 1087.199975 1188.699951 A 7.1 7.1 0 0 1 1080.099976 1195.799951 A 7.1 7.1 0 0 1 1072.999976 1188.699951 A 7.1 7.1 0 0 1 1080.099976 1181.599951 A 7.1 7.1 0 0 1 1087.199975 1188.699951 Z" class="st2" style="fill-rule: evenodd; clip-rule: evenodd; fill: rgb(236, 193, 145);"/>
	<path d="M 925.299976 1261.800049 A 25.200001 25.200001 0 0 1 900.099976 1287.00005 A 25.200001 25.200001 0 0 1 874.899975 1261.800049 A 25.200001 25.200001 0 0 1 900.099976 1236.600048 A 25.200001 25.200001 0 0 1 925.299976 1261.800049 Z" class="st2" style="fill-rule: evenodd; clip-rule: evenodd; fill: rgb(236, 193, 145);"/>
	<path d="M 451.799994 941 A 20.4 20.4 0 0 1 431.399994 961.4 A 20.4 20.4 0 0 1 410.999994 941 A 20.4 20.4 0 0 1 431.399994 920.6 A 20.4 20.4 0 0 1 451.799994 941 Z" class="st2" style="fill-rule: evenodd; clip-rule: evenodd; fill: rgb(236, 193, 145);"/>
	<path d="M 829.299999 849.799988 A 17.299999 17.299999 0 0 1 812 867.099987 A 17.299999 17.299999 0 0 1 794.700001 849.799988 A 17.299999 17.299999 0 0 1 812 832.499989 A 17.299999 17.299999 0 0 1 829.299999 849.799988 Z" class="st2" style="fill-rule: evenodd; clip-rule: evenodd; fill: rgb(236, 193, 145);"/>
	<path d="M 602.799988 834.099976 A 11 11 0 0 1 591.799988 845.099976 A 11 11 0 0 1 580.799988 834.099976 A 11 11 0 0 1 591.799988 823.099976 A 11 11 0 0 1 602.799988 834.099976 Z" class="st2" style="fill-rule: evenodd; clip-rule: evenodd; fill: rgb(236, 193, 145);"/>
	<path d="M 841.899976 623.400024 A 6.3 6.3 0 0 1 835.599976 629.700025 A 6.3 6.3 0 0 1 829.299975 623.400024 A 6.3 6.3 0 0 1 835.599976 617.100024 A 6.3 6.3 0 0 1 841.899976 623.400024 Z" class="st2" style="fill-rule: evenodd; clip-rule: evenodd; fill: rgb(236, 193, 145);"/>
	<path d="M 407.700006 559.799988 A 13.6 13.6 0 0 1 394.100006 573.399988 A 13.6 13.6 0 0 1 380.500006 559.799988 A 13.6 13.6 0 0 1 394.100006 546.199987 A 13.6 13.6 0 0 1 407.700006 559.799988 Z" class="st2" style="fill-rule: evenodd; clip-rule: evenodd; fill: rgb(236, 193, 145);"/>
	<path d="M 236.399997 1106.199951 A 15.7 15.7 0 0 1 220.699997 1121.899951 A 15.7 15.7 0 0 1 204.999997 1106.199951 A 15.7 15.7 0 0 1 220.699997 1090.499951 A 15.7 15.7 0 0 1 236.399997 1106.199951 Z" class="st2" style="fill-rule: evenodd; clip-rule: evenodd; fill: rgb(236, 193, 145);"/>
	<path d="M 1315.2 893.900024 A 15.7 15.7 0 0 1 1299.5 909.600024 A 15.7 15.7 0 0 1 1283.8 893.900024 A 15.7 15.7 0 0 1 1299.5 878.200025 A 15.7 15.7 0 0 1 1315.2 893.900024 Z" class="st2" style="fill-rule: evenodd; clip-rule: evenodd; fill: rgb(236, 193, 145);"/>
	<path d="M 1288.500025 442.5 A 12.6 12.6 0 0 1 1275.900024 455.1 A 12.6 12.6 0 0 1 1263.300024 442.5 A 12.6 12.6 0 0 1 1275.900024 429.9 A 12.6 12.6 0 0 1 1288.500025 442.5 Z" class="st2" style="fill-rule: evenodd; clip-rule: evenodd; fill: rgb(236, 193, 145);"/>
	<path d="M 676.799975 76.099998 A 14.2 14.2 0 0 1 662.599976 90.299998 A 14.2 14.2 0 0 1 648.399976 76.099998 A 14.2 14.2 0 0 1 662.599976 61.899999 A 14.2 14.2 0 0 1 676.799975 76.099998 Z" class="st2" style="fill-rule: evenodd; clip-rule: evenodd; fill: rgb(236, 193, 145);"/>
	<path d="M 810.499988 79.300003 A 14.2 14.2 0 0 1 796.299988 93.500003 A 14.2 14.2 0 0 1 782.099988 79.300003 A 14.2 14.2 0 0 1 796.299988 65.100003 A 14.2 14.2 0 0 1 810.499988 79.300003 Z" class="st2" style="fill-rule: evenodd; clip-rule: evenodd; fill: rgb(236, 193, 145);"/>
	<path d="M 667.300024 194.100006 A 9.4 9.4 0 0 1 657.900024 203.500006 A 9.4 9.4 0 0 1 648.500025 194.100006 A 9.4 9.4 0 0 1 657.900024 184.700006 A 9.4 9.4 0 0 1 667.300024 194.100006 Z" class="st2" style="fill-rule: evenodd; clip-rule: evenodd; fill: rgb(236, 193, 145);"/>
	<path d="M 1120.299952 230.199997 A 12.6 12.6 0 0 1 1107.699951 242.799997 A 12.6 12.6 0 0 1 1095.099951 230.199997 A 12.6 12.6 0 0 1 1107.699951 217.599997 A 12.6 12.6 0 0 1 1120.299952 230.199997 Z" class="st2" style="fill-rule: evenodd; clip-rule: evenodd; fill: rgb(236, 193, 145);"/>
	<path d="M 234.9 531.400024 A 13.4 13.4 0 0 1 221.5 544.800024 A 13.4 13.4 0 0 1 208.1 531.400024 A 13.4 13.4 0 0 1 221.5 518.000025 A 13.4 13.4 0 0 1 234.9 531.400024 Z" class="st2" style="fill-rule: evenodd; clip-rule: evenodd; fill: rgb(236, 193, 145);"/>
	<path d="M 108.999998 845.900024 A 14.9 14.9 0 0 1 94.099998 860.800024 A 14.9 14.9 0 0 1 79.199999 845.900024 A 14.9 14.9 0 0 1 94.099998 831.000025 A 14.9 14.9 0 0 1 108.999998 845.900024 Z" class="st2" style="fill-rule: evenodd; clip-rule: evenodd; fill: rgb(236, 193, 145);"/>
	<path d="M 87.1 664.299988 A 12.6 12.6 0 0 1 74.5 676.899988 A 12.6 12.6 0 0 1 61.9 664.299988 A 12.6 12.6 0 0 1 74.5 651.699987 A 12.6 12.6 0 0 1 87.1 664.299988 Z" class="st2" style="fill-rule: evenodd; clip-rule: evenodd; fill: rgb(236, 193, 145);"/>
</g></svg>