<?xml version="1.0" encoding="utf-8"?>
<svg id="master-artboard" viewBox="0 0 483.2279968261719 356.25469970703125" version="1.1" xmlns="http://www.w3.org/2000/svg" x="0px" y="0px" width="483.2279968261719px" height="356.25469970703125px" enable-background="new 0 0 595.3 841.9" xmlns:xlink="http://www.w3.org/1999/xlink"><rect id="ee-background" x="0" y="0" width="483.2279968261719" height="356.25469970703125" style="fill: white; fill-opacity: 0; pointer-events: none;"/>
<defs>
		<path d="M 0 0 H 595.299988 V 841.900024 H 0 V 0 Z" id="XMLID_272_"/>
	</defs><clipPath id="XMLID_275_">
		<use overflow="visible" xlink:href="#XMLID_272_"/>
	</clipPath><linearGradient id="XMLID_276_" gradientUnits="userSpaceOnUse" x1="297.64" y1="5.6112" x2="297.64" y2="844.2625">
			<stop offset="0" style="stop-color:#61D8F0"/>
			<stop offset="1" style="stop-color:#008EF7"/>
		</linearGradient><path id="XMLID_121_" opacity="0.1" fill="#FFFFFF" d="M689.9,410.6c-122.3,30.1-250.9,8.8-374.4-16S66.1,341.4-58.8,357.7v101.5&#10;&#9;&#9;&#9;&#9;c108.2,0,218.7,33.7,326.2,45.7c132,14.8,264.9-10.4,395.3-35.4L689.9,410.6z" transform="matrix(-0.9902641773223877, 0.1392010897397995, 0.1392010897397995, 0.9902641773223877, 518.1296997070312, -294.7081527709961)"/><path d="M 165.6 298.399994 A 14.6 14.6 0 0 1 151 312.999994 A 14.6 14.6 0 0 1 136.4 298.399994 A 14.6 14.6 0 0 1 151 283.799994 A 14.6 14.6 0 0 1 165.6 298.399994 Z" id="XMLID_257_" opacity="0.3" fill="#FFFFFF" transform="matrix(-0.9902641773223877, 0.1392010897397995, 0.1392010897397995, 0.9902641773223877, 518.1296997070312, -294.7081527709961)"/><path id="XMLID_256_" opacity="0.3" fill="#FFFFFF" d="M165.5,296.3c-1,7.1-7.1,12.5-14.5,12.5c-7.4,0-13.5-5.4-14.5-12.5&#10;&#9;&#9;&#9;&#9;&#9;&#9;&#9;c-0.1,0.7-0.2,1.4-0.2,2.1c0,8.1,6.6,14.6,14.6,14.6c8.1,0,14.6-6.6,14.6-14.6C165.7,297.7,165.6,297,165.5,296.3z" transform="matrix(-0.9902641773223877, 0.1392010897397995, 0.1392010897397995, 0.9902641773223877, 518.1296997070312, -294.7081527709961)"/><path id="XMLID_252_" fill="#FFFFFF" d="M151,313.6c-8.4,0-15.2-6.8-15.2-15.2s6.8-15.2,15.2-15.2c8.4,0,15.2,6.8,15.2,15.2&#10;&#9;&#9;&#9;&#9;&#9;&#9;&#9;S159.4,313.6,151,313.6z M151,284.3c-7.7,0-14,6.3-14,14c0,7.7,6.3,14,14,14c7.7,0,14-6.3,14-14&#10;&#9;&#9;&#9;&#9;&#9;&#9;&#9;C165.1,290.6,158.8,284.3,151,284.3z" transform="matrix(-0.9902641773223877, 0.1392010897397995, 0.1392010897397995, 0.9902641773223877, 518.1296997070312, -294.7081527709961)"/><path d="M 154.099997 289 A 2.4 2.4 0 0 1 151.699997 291.4 A 2.4 2.4 0 0 1 149.299997 289 A 2.4 2.4 0 0 1 151.699997 286.6 A 2.4 2.4 0 0 1 154.099997 289 Z" id="XMLID_250_" fill="#FFFFFF" transform="matrix(-0.9902641773223877, 0.1392010897397995, 0.1392010897397995, 0.9902641773223877, 518.1296997070312, -294.7081527709961)"/><path d="M 105.099998 361.100006 A 6 6 0 0 1 99.099998 367.100006 A 6 6 0 0 1 93.099998 361.100006 A 6 6 0 0 1 99.099998 355.100006 A 6 6 0 0 1 105.099998 361.100006 Z" id="XMLID_227_" opacity="0.3" fill="#FFFFFF" transform="matrix(-0.9902641773223877, 0.1392010897397995, 0.1392010897397995, 0.9902641773223877, 518.1296997070312, -294.7081527709961)"/><path id="XMLID_226_" opacity="0.3" fill="#FFFFFF" d="M105,360.2c-0.4,2.9-2.9,5.2-6,5.2c-3,0-5.6-2.3-6-5.2&#10;&#9;&#9;&#9;&#9;&#9;&#9;&#9;c0,0.3-0.1,0.6-0.1,0.9c0,3.3,2.7,6,6,6c3.3,0,6-2.7,6-6C105.1,360.8,105.1,360.5,105,360.2z" transform="matrix(-0.9902641773223877, 0.1392010897397995, 0.1392010897397995, 0.9902641773223877, 518.1296997070312, -294.7081527709961)"/><path id="XMLID_222_" fill="#FFFFFF" d="M99.1,367.4c-3.5,0-6.3-2.8-6.3-6.3c0-3.5,2.8-6.3,6.3-6.3s6.3,2.8,6.3,6.3&#10;&#9;&#9;&#9;&#9;&#9;&#9;&#9;C105.4,364.5,102.5,367.4,99.1,367.4z M99.1,355.3c-3.2,0-5.8,2.6-5.8,5.8c0,3.2,2.6,5.8,5.8,5.8c3.2,0,5.8-2.6,5.8-5.8&#10;&#9;&#9;&#9;&#9;&#9;&#9;&#9;C104.9,357.9,102.3,355.3,99.1,355.3z" transform="matrix(-0.9902641773223877, 0.1392010897397995, 0.1392010897397995, 0.9902641773223877, 518.1296997070312, -294.7081527709961)"/><path d="M 100.300003 357.200012 A 1 1 0 0 1 99.300003 358.200012 A 1 1 0 0 1 98.300003 357.200012 A 1 1 0 0 1 99.300003 356.200012 A 1 1 0 0 1 100.300003 357.200012 Z" id="XMLID_220_" fill="#FFFFFF" transform="matrix(-0.9902641773223877, 0.1392010897397995, 0.1392010897397995, 0.9902641773223877, 518.1296997070312, -294.7081527709961)"/><path d="M 98.1 359.200012 A 1.6 1.6 0 0 1 96.5 360.800012 A 1.6 1.6 0 0 1 94.9 359.200012 A 1.6 1.6 0 0 1 96.5 357.600012 A 1.6 1.6 0 0 1 98.1 359.200012 Z" id="XMLID_219_" fill="#FFFFFF" transform="matrix(-0.9902641773223877, 0.1392010897397995, 0.1392010897397995, 0.9902641773223877, 518.1296997070312, -294.7081527709961)"/><g id="XMLID_96_" transform="matrix(-0.9902641773223877, 0.1392010897397995, 0.1392010897397995, 0.9902641773223877, 518.1296997070312, -294.7081527709961)">
					<path id="XMLID_4_" fill="#6E77E5" d="M215.3,390.8c-10.3,0-18.8,9.9-18.8,22.1c0,12.2,8.4,22.1,18.8,22.1s18.8-9.9,18.8-22.1&#10;&#9;&#9;&#9;&#9;&#9;&#9;C234,400.7,225.6,390.8,215.3,390.8z"/>
					<g id="XMLID_106_">
						<path id="XMLID_120_" fill="#61D8F0" d="M215.3,431.5c-9.8,0-17.9-9-18.7-20.3c0,0.6-0.1,1.2-0.1,1.7&#10;&#9;&#9;&#9;&#9;&#9;&#9;&#9;c0,12.2,8.4,22.1,18.8,22.1s18.8-9.9,18.8-22.1c0-0.6,0-1.2-0.1-1.7C233.2,422.5,225.1,431.5,215.3,431.5z"/>
					</g>
					<path id="XMLID_6_" fill="#6E77E5" d="M216.3,558.4c-1.5,2.3-2.6,4.7-3.5,7.3c-0.3,0.8-1.5,0.5-1.3-0.4&#10;&#9;&#9;&#9;&#9;&#9;&#9;c0.7-2.9,1.8-5.7,3.4-8.2c0.7-1.1,1.5-2.4,2.5-3.5c-1.1-0.3-2.2-0.7-3.3-1c-2.6-0.4-5.2-1.1-7.8-1.8&#10;&#9;&#9;&#9;&#9;&#9;&#9;c-3.9,4.8-7.9,9.6-10.5,15.3c-0.2,0.3-0.7,0.1-0.6-0.3c2.2-5.6,4.7-11.2,8.8-15.8c-1.7-0.6-3.4-1.2-5.1-1.9&#10;&#9;&#9;&#9;&#9;&#9;&#9;c-8,6.7-13.8,14.4-17.7,24.3c-0.3,0.7-1.5,0.5-1.2-0.3c2.9-9.4,8.4-18.6,15.8-25.4c-2-1-4-2.1-5.9-3.3&#10;&#9;&#9;&#9;&#9;&#9;&#9;c-0.7-0.5-1.4-0.9-2.1-1.4c-7.9,6-16.7,12-16.7,23c0,12.1,10.1,20.9,19.9,26.3c5,2.7,10.5,5.6,16.1,6.7&#10;&#9;&#9;&#9;&#9;&#9;&#9;c7.5,1.5,11.7-3,15.2-8.9c5.8-9.8,9.8-20.4,12.4-31.4c-5-1-10-2.1-14.9-3.5C218.7,555.7,217.2,557,216.3,558.4z"/>
					<path id="XMLID_28_" fill="#D630C6" d="M186.1,476.7c0.8-4.5,1.1-9,1.7-13.4c0.4-3.5,1-2.3-1.1-5.1c-1.7-2.3-1.4-2.3-3.8-1.8&#10;&#9;&#9;&#9;&#9;&#9;&#9;c-1.6,0.3-3.2,0.9-4.8,1.4c-7.2,2-14.6,1.3-21.5-1.5c-7.3-3-13.8-7.5-20.7-11.2c-7.5-4.1-18.2-6.5-22.6,3&#10;&#9;&#9;&#9;&#9;&#9;&#9;c-7.2,15.4,10.8,25.5,23.6,27.5c0.2-0.1,0.4-0.2,0.6-0.3c1.3-0.7,2.5,1.2,1.2,2c-7.8,4.8-11.1,15.4-7,23.8&#10;&#9;&#9;&#9;&#9;&#9;&#9;c4.4,9,13.7,11,22.8,9.7C172.4,508,182.8,494.1,186.1,476.7z M154.6,504c-8.4,1.5-17.4-2.9-17.9-12.2c-0.4-8,4.1-17,10.6-22.1&#10;&#9;&#9;&#9;&#9;&#9;&#9;c-2.3-0.7-4.5-1.5-6.6-2.3c-4.3-1.8-12.3-6.8-16.4-2.1c-0.3,0.4-0.9,0-0.8-0.5c1.9-8.1,16.8-2.5,21.4-1.1&#10;&#9;&#9;&#9;&#9;&#9;&#9;c6.7,2,13.5,3.2,20.5,2c6.3-1.1,12.3-3.4,18.3-5.3c1-0.3,2,0.5,2,1.5C185.3,479.9,173.7,500.7,154.6,504z"/>
					<path id="XMLID_29_" fill="#F980F3" d="M154.1,485.6c-0.2,0.5-0.9,0.3-0.8-0.2c0.8-5,3.1-9.8,6.4-13.8c-1.3,0-2.6-0.1-4-0.2&#10;&#9;&#9;&#9;&#9;&#9;&#9;c-1.1-0.1-2.3-0.3-3.4-0.5c-0.1,0.1-0.1,0.2-0.2,0.2c-4.7,5.4-10,11.6-10.1,19.1c-0.2,11.7,13.4,9.1,20.1,5.4&#10;&#9;&#9;&#9;&#9;&#9;&#9;c11.4-6.2,19.3-17.9,20.2-30.8c-5.4,3.3-11.5,5.6-17.8,6.4C159.6,474.9,156.1,479.6,154.1,485.6z"/>
					<linearGradient id="XMLID_277_" gradientUnits="userSpaceOnUse" x1="337.6768" y1="273" x2="337.6768" y2="342.0072">
						<stop offset="0" style="stop-color:#C594F7"/>
						<stop offset="1" style="stop-color:#AE6DE8"/>
					</linearGradient>
					<path id="XMLID_30_" fill="url(#XMLID_277_)" d="M245.9,319.8c0.6-5.5,7.3-9.5,11.7-11.8c8.1-4.1,17-5.8,23.5-12.7&#10;&#9;&#9;&#9;&#9;&#9;&#9;c0.2-0.2,0.5,0.1,0.4,0.3c-3.1,5.4-9.2,7.9-14.7,10.2c-4.6,1.8-9.4,3.6-13.3,6.8c-2.3,2-3.7,4.5-5.5,6.8&#10;&#9;&#9;&#9;&#9;&#9;&#9;c10.9-2.1,22.3-3,33.8-2.6c18.1-19.7,51.8-10.4,73.1-25.3c0.4-0.3,0.9,0.4,0.5,0.7c-19.8,16.5-51.5,7.3-70.2,24.8&#10;&#9;&#9;&#9;&#9;&#9;&#9;c16.2,0.9,32.5,4.3,47.5,10.3c4.2-3.7,10.4-4.5,15.8-5c9.2-0.9,18.4-1.4,27.6-2.2c9.4-0.8,18.5-1.9,26.7-6.8&#10;&#9;&#9;&#9;&#9;&#9;&#9;c7.1-4.3,13.1-10.5,16.8-17.9c0.2-0.3,0.6,0,0.5,0.3c-6.6,14-18.6,22.8-33.9,25.4c-8.9,1.5-18,2-26.9,3c-8,0.9-15.9,1.1-23,4.7&#10;&#9;&#9;&#9;&#9;&#9;&#9;c1.4,0.6,2.8,1.3,4.2,1.9c17.6-6.1,37.4,3.1,54-7.6c0.2-0.1,0.4,0.2,0.3,0.3c-13.7,11.4-33.5,6.1-50.1,9.3&#10;&#9;&#9;&#9;&#9;&#9;&#9;c14.2,7.5,26.7,17.7,36.1,30.8c0.9,1.3,1.8,2.6,2.7,3.9c1.5-18.9,26.4-27.6,39.2-38.7c17-14.7,27-36.7,26.9-59.2&#10;&#9;&#9;&#9;&#9;&#9;&#9;c-11.2,3.6-23.1,4.9-34.8,3.6c-13-1.5-25-7.1-38.3-6.3c-14,0.9-26.1,6.5-37.8,13.9c-8.7,5.5-18.5,10.5-29,7.1&#10;&#9;&#9;&#9;&#9;&#9;&#9;c-1.4-0.5-1-2.3,0.3-2.4c6.8-0.7,12.9-5.7,14.7-12.2c-15.2,14-39.5,9-58,15.6c-18.4,6.5-32.3,19.9-41.2,36.8&#10;&#9;&#9;&#9;&#9;&#9;&#9;c5.2-1.9,10.5-3.5,15.8-4.8C242.9,320.4,244.4,320.1,245.9,319.8z"/>
					<linearGradient id="XMLID_278_" gradientUnits="userSpaceOnUse" x1="400.6778" y1="444.5029" x2="573.6508" y2="444.5029">
						<stop offset="0" style="stop-color:#C594F7"/>
						<stop offset="1" style="stop-color:#AE6DE8"/>
					</linearGradient>
					<path id="XMLID_31_" fill="url(#XMLID_278_)" d="M528.7,507.9c-0.5-1.7,1.4-2.9,2.8-2.1c9,4.6,19.9,4.7,29.1,0.8&#10;&#9;&#9;&#9;&#9;&#9;&#9;c-14-2.7-25.7-16.2-32.5-27.7c-4.7-7.9-8.6-16.5-14.9-23.3c-6.5-7-15.6-11.4-25-12.8c-1.6-0.2-1.2-2.9,0.4-2.8c0,0,0,0,0,0&#10;&#9;&#9;&#9;&#9;&#9;&#9;c21.6-12.4,49-16.2,64.7-37.3c7.4-10,11.5-22.2,12.4-34.5c0.5-6.8,0.3-13.6-0.7-20.3c-0.6-4.3-1.7-8.6-2.6-12.8&#10;&#9;&#9;&#9;&#9;&#9;&#9;c-2.2,6.6-6.8,12.3-12.4,16.3c-10,7.1-23,7.1-33.4,13.5c-1.7,1.1-3.5-1.4-2.1-2.8c10.4-10.3,16-24.3,15.7-38.7&#10;&#9;&#9;&#9;&#9;&#9;&#9;c-4.4,9-11.1,16.7-19.6,22.3c-11.6,7.5-25.3,10.1-38.9,11.3c-25.9,2.3-65.1,3.8-71,36.3c0.3,0.4,0.6,0.8,0.9,1.2&#10;&#9;&#9;&#9;&#9;&#9;&#9;c3.8,4.8,8.2,9.2,13.4,12.5c2,1.3,4.2,2.4,6.3,3.6c1.7-4.4,7.1-7.9,10.9-10.1c5.3-3.1,11.2-5.2,17.1-6.8&#10;&#9;&#9;&#9;&#9;&#9;&#9;c13.4-3.8,29.5-6.2,39-17.4c0.1-0.1,0.3,0,0.2,0.2c-7.8,10.1-19,13.8-30.9,17c-6.5,1.7-13.1,3.5-19.2,6.4&#10;&#9;&#9;&#9;&#9;&#9;&#9;c-3.3,1.6-6.5,3.5-9.3,5.9c-2.1,1.9-3.5,4.3-5.4,6.3c1.1,0.6,2.2,1.3,3.2,2c0-0.1,0-0.3,0.1-0.5c4.3-6.6,11.3-9.7,18.9-10.5&#10;&#9;&#9;&#9;&#9;&#9;&#9;c0,0,0,0,0,0c-7.2,1.1-13.1,5.7-17.2,11.4c-0.2,0.2-0.4,0.3-0.6,0.4c1,0.8,1.9,1.6,2.8,2.5c3.3,3.5,5.4,7.7,6.5,12.2&#10;&#9;&#9;&#9;&#9;&#9;&#9;c10.4-10.1,30.1-9.4,43.2-9.8c21.4-0.7,46.4-5.7,58.7-25.1c0.1-0.2,0.5,0,0.3,0.2c-10,16.1-27.1,23.2-45.2,25.9&#10;&#9;&#9;&#9;&#9;&#9;&#9;c-10.6,1.6-21.3,1.5-31.9,2.7c-9.7,1-17.8,4.1-24.3,10.6c0.2,1.8,0.3,3.7,0.3,5.6c6,0,12.8,2,18,3.8c6.4,2.2,12.9,5,17.6,10&#10;&#9;&#9;&#9;&#9;&#9;&#9;c4.7,5,7.3,11.4,11.2,17c4.6,6.6,11,12.5,18,16.3c0.3,0.1,0,0.5-0.2,0.4c-5.7-2.9-10.9-6.1-15.3-10.8&#10;&#9;&#9;&#9;&#9;&#9;&#9;c-4.3-4.6-7.2-10-10.5-15.2c-4.8-7.6-11.2-11.9-19.7-14.6c-4.1-1.3-8.4-2.2-12.7-2.8c-2.2-0.3-4.4-0.3-6.7-0.5&#10;&#9;&#9;&#9;&#9;&#9;&#9;c-0.3,3.1-0.9,6.1-1.8,9.2c8.5-0.1,15.2,6.7,19.9,13.5c7.6,11.1,15.6,21.2,25.8,30.2c0.3,0.3-0.1,0.8-0.5,0.6&#10;&#9;&#9;&#9;&#9;&#9;&#9;c-7.9-5.8-14.8-12.7-20.8-20.5c-6.4-8.4-13-22.4-25.4-20.7c-0.3,0.8-0.5,1.6-0.8,2.3c3.1,1.1,5.9,3,8.6,4.8&#10;&#9;&#9;&#9;&#9;&#9;&#9;c0.3,0.2,0,0.7-0.3,0.5c-2.9-1.5-6.2-2.1-9.3-2.8c-2.8,6.5-6.6,12.5-10.9,17.2c10.6-0.5,20.6,2.6,24.2,14.3&#10;&#9;&#9;&#9;&#9;&#9;&#9;c2.8,9.1,1,19.4-1.9,28.2c-1,2.9-2,6-3.2,9.2c2.2,3.2,2.9,7.8,4.7,11c2.3,4.2,5.4,7.9,8.9,11.2c5.6,5.3,12.2,8.7,18.8,12.2&#10;&#9;&#9;&#9;&#9;&#9;&#9;c-9.1-8.9-14.2-21.7-14.1-34.4c0-2.1,2.7-2.7,3.8-1c6.6,10.4,14.9,19.8,24.8,27.3c5,3.8,10.4,7.3,16.5,9&#10;&#9;&#9;&#9;&#9;&#9;&#9;c6.7,1.9,13.8,1.4,20.7,0.3c11.8-2,24.1-5.3,33.1-13.6c7-6.4,11.8-14.7,14.7-23.6C556.2,536.1,534.7,527.3,528.7,507.9z"/>
					<path id="XMLID_32_" fill="#6E77E5" d="M435.6,484.5c-7.6-4.2-18.8-1.8-26.7,0.4c-7.9,2.2-15.5,5.5-23.1,8.8&#10;&#9;&#9;&#9;&#9;&#9;&#9;c-10.5,4.5-22.3,10.1-34,10.8c1.2,0.4,2.4,0.8,3.6,1c5.5,1.1,11,1.3,16.7,0.8c12.1-1,22.1-5.8,33-10.6c0.5-0.2,1.1,0.4,0.6,0.8&#10;&#9;&#9;&#9;&#9;&#9;&#9;c-8.6,7.4-21,11-32,12.4c-6.2,0.8-12.6,0.8-18.8,0c-0.3,0-0.5-0.1-0.8-0.1c3,1.2,6,2.2,9.2,2.8c8.5,1.7,16.9,1.1,25.5-0.2&#10;&#9;&#9;&#9;&#9;&#9;&#9;c0.9-0.1,1.2,1.1,0.4,1.3c-14.7,4.6-33.6,2.6-47.4-4.8c5.8,7.8,15.2,11.8,24.8,12.6c0.7,0.1,0.7,1,0,1.1&#10;&#9;&#9;&#9;&#9;&#9;&#9;c-11.5,0.6-21.6-4.9-29.3-13.1c-2.6,1.8-5.4,3.5-8.5,5.1c18.3,10.1,34.8,23,53.7,32.1c16.4,7.9,38.7,10.8,48.9-7.9&#10;&#9;&#9;&#9;&#9;&#9;&#9;c4.6-8.5,8.6-17.8,10.6-27.3C443.7,502.2,444.3,489.3,435.6,484.5z"/>
					<linearGradient id="XMLID_279_" gradientUnits="userSpaceOnUse" x1="277.1622" y1="323" x2="277.1622" y2="518">
						<stop offset="0" style="stop-color:#C594F7"/>
						<stop offset="1" style="stop-color:#C04DE8"/>
					</linearGradient>
					<path id="XMLID_38_" fill="url(#XMLID_279_)" d="M325.6,515.1C325.6,515.1,325.6,515.1,325.6,515.1c-5.1,2.3-10.5,4.1-15.4,5.3&#10;&#9;&#9;&#9;&#9;&#9;&#9;c-0.5,0.1-0.9-0.7-0.4-0.9c8.5-4,18.4-7.2,25.2-13.8c2.8-2.8,5.6-5.5,8-8.7c2.2-2.9,3.6-6.5,6.3-9c0.4-0.4,1.2-0.1,1.1,0.5&#10;&#9;&#9;&#9;&#9;&#9;&#9;c-0.3,4.1-2.7,8.7-5.7,12.7c9.8-1.5,19.2-3.6,28.5-7.4c10-4,19.7-8.9,30-12.3c3.6-1.2,7.6-2.3,11.8-3.1&#10;&#9;&#9;&#9;&#9;&#9;&#9;c9.2-11.2,17-23.3,17.6-38.3c0-0.6,0-1.2,0-1.7c-0.3-0.3-0.5-0.7-0.3-1.2c0.1-0.2,0.2-0.4,0.3-0.6c-0.2-5.3-1.7-10.6-5.2-14.6&#10;&#9;&#9;&#9;&#9;&#9;&#9;c-4.7-5.2-12.1-7.3-17.7-11.4c-17.8-12.9-25.1-34.6-39.2-50.8c-16-18.3-40.7-29.3-64.1-34.4c-27-5.9-57.1-4-83.6,6&#10;&#9;&#9;&#9;&#9;&#9;&#9;c-0.3,0.4-0.8,0.6-1.2,0.5c-11.3,4.4-21.9,10.4-31.3,17.9c7.5-4.9,16-8.2,25.3-9.1c13.2-1.4,26.1,2.9,34.5,13.5&#10;&#9;&#9;&#9;&#9;&#9;&#9;c8.5,10.9,13,26.8,13.1,40.5c0,0.8-1.1,0.9-1.4,0.2c-4.9-12.4-6.1-25.6-14.9-36.3c-8.2-9.9-19.4-14-32.1-12.5&#10;&#9;&#9;&#9;&#9;&#9;&#9;c-22.2,2.5-42.5,19.2-49.5,40.3c-0.2,0.7-1.2,0.4-1.1-0.3c1.8-6.5,4.5-12.6,8.1-18.1c-0.1,0.1-0.1,0.2-0.2,0.3&#10;&#9;&#9;&#9;&#9;&#9;&#9;c-0.6,0.7-1.7,0.1-1.3-0.7c-0.3,0.1-0.7,0.2-1,0.3c-3.5,1.2-6.9,2.5-10.3,4c-5.7,2.5-11.4,5.4-16.1,9.5c-5.5,4.7-9,11-9.6,18.4&#10;&#9;&#9;&#9;&#9;&#9;&#9;c-0.3,3.5,0.1,6.9,0.5,10.3c2.4-4.7,3.9-9.7,6-14.6c1.6-3.8,3-8.4,6.9-10.3c0.5-0.2,1.1,0.3,0.8,0.8c-1.5,2.6-3.3,4.7-4.2,7.5&#10;&#9;&#9;&#9;&#9;&#9;&#9;c-0.9,2.5-1.1,5.2-1.6,7.8c-0.8,4.7-1.8,8.8-4.4,13c-2.6,4.2-5.8,7.9-8.9,11.7c-2.9,3.7-4.9,7.7-7.2,11.7&#10;&#9;&#9;&#9;&#9;&#9;&#9;c3.6-0.5,7.4,0.1,11,1.4c11.5,4.2,21,12.5,33.1,15.5c4,1,8.3,1.3,12.4,0.5c1.9-0.4,3.8-1.1,5.7-1.1c2.6,0,5.2,1.1,6.4,3.5&#10;&#9;&#9;&#9;&#9;&#9;&#9;c2.4,4.7,1.3,12.3,0.7,17.3c-0.6,5.2-1.8,10.4-3.8,15.3c-3.6,8.9-9.8,16.9-18.4,21.4c-2.4,1.2-5,2.3-7.8,3.2&#10;&#9;&#9;&#9;&#9;&#9;&#9;c10.5,3.5,18.3,14.2,26.9,21c22.5,17.7,54.3,16.2,76.8-0.5c11.8-8.7,20.5-20.8,25.8-34.4c5.4-14.1,5.4-28.8,4.9-43.7&#10;&#9;&#9;&#9;&#9;&#9;&#9;c0-1,1.4-1.1,1.6-0.2c4.9,16.3,2.2,35.1-4.2,50.7c-9.7,23.7-32,41.9-57.4,45.6c17.2,2.4,34.5,4,52,3.4&#10;&#9;&#9;&#9;&#9;&#9;&#9;c13.4-0.5,26.7-2.1,39.7-5.1c6.2-1.4,12.3-3.2,18.3-5.2c5-1.7,10.1-4.5,15.3-5.8c-2.9-1.7-5.7-3.4-8.5-5.2&#10;&#9;&#9;&#9;&#9;&#9;&#9;C342.7,529.2,333.4,523.2,325.6,515.1z M171.4,412.5c-3.9-9.9-2.8-22.7,3.8-31.3c0.2-0.2,0.5,0.1,0.4,0.3&#10;&#9;&#9;&#9;&#9;&#9;&#9;c-4.6,10.3-6.2,19.7-3.6,30.8C172.1,412.8,171.5,412.9,171.4,412.5z M246,418.1c-0.1,0.2-0.2,0.3-0.3,0.3&#10;&#9;&#9;&#9;&#9;&#9;&#9;c-1.8,12-9.7,22.4-21.9,26.2c-7.7,2.4-16.1,2-23.9,0.7c-3.6-0.6-7.1-1.4-10-3c-0.1,0-0.2,0-0.3-0.1c0,0,0,0,0,0&#10;&#9;&#9;&#9;&#9;&#9;&#9;c-0.2,0.2-0.6,0.3-0.9,0c-0.4-0.4-0.8-0.8-1.1-1.2c-7.5-4.8-12.9-14.1-14.4-22.6c0-0.1,0.1-0.2,0.2,0c1.5,4.6,3.6,9.1,6.4,13.1&#10;&#9;&#9;&#9;&#9;&#9;&#9;c1.3,1.8,2.8,3.4,4.4,4.8c-7.8-13.1-7.7-32.6-2.6-45.7c5.9-15,20.8-23.1,36.5-18.1c7,2.2,13.1,6.7,17.7,12.3&#10;&#9;&#9;&#9;&#9;&#9;&#9;c-2.1-4-4.6-7.8-7.6-11.4c-5.3-6.4-11.4-11-19.9-11.6c-7.4-0.5-16.4,2.1-21.9,7.3c-0.1,0.1-0.3-0.1-0.2-0.2&#10;&#9;&#9;&#9;&#9;&#9;&#9;c5.7-5.9,11.6-9.2,20-9.4c7.9-0.3,15.4,2.7,21.3,7.9c7.1,6.2,12.9,14.7,16,23.6c1.5,4.4,2.4,9,2.9,13.6&#10;&#9;&#9;&#9;&#9;&#9;&#9;C246.8,408.9,247.5,414,246,418.1z"/>
					<path id="XMLID_42_" fill="#FFFFFF" d="M205.3,375.8c-9.3,1-15.9,7.6-19.8,15.7c-3.8,7.7-5.1,16.5-4.3,25.1&#10;&#9;&#9;&#9;&#9;&#9;&#9;c0.7,7.2,3.3,13.3,6.1,19.7c6.3,3.7,15.3,4.7,22.2,5.1c9,0.6,18.1-1,24.3-8c12.4-13.9,7.6-35.5-4.4-48&#10;&#9;&#9;&#9;&#9;&#9;&#9;C223.2,378.9,214.5,374.8,205.3,375.8z M215.3,436c-10.9,0-19.8-10.4-19.8-23.1s8.9-23.1,19.8-23.1s19.8,10.4,19.8,23.1&#10;&#9;&#9;&#9;&#9;&#9;&#9;S226.1,436,215.3,436z"/>
					<path id="XMLID_2_" fill="#921BAF" d="M297,479.1c-6.8,16.7-15.2,34-30.6,43.4c-11.7,7.1-26.2,8.6-39.8,6.8&#10;&#9;&#9;&#9;&#9;&#9;&#9;c-13.6-1.8-30-9.8-40.9-18.3c12.9-15.6,22.4-29.2,4.1-54.4c2.1,11.8-0.6,24.2-6.3,34.7s-15,19-26,23.7&#10;&#9;&#9;&#9;&#9;&#9;&#9;c14.6,5.3,23.6,18.8,36.6,27.3c13.5,8.9,30.9,11.2,46.6,7.4c15.7-3.8,29.7-13.5,39.8-26.1C290.5,511,294,495,297,479.1z"/>
					<path id="XMLID_20_" fill="#D859D8" d="M183,463.4c-1.6,0.2-2.7,0.6-4.1,1.4c-0.2,0.7-0.4,1.5-0.6,2.2c-5.7,2-12,2.8-18.2,2.5&#10;&#9;&#9;&#9;&#9;&#9;&#9;c-0.7-0.2-1.3-0.4-2-0.5c-0.1,0.1-0.2,0.2-0.3,0.3c-1.7-0.1-3.5-0.4-5.2-0.6c-1,0.6-1.7,1.4-2.7,2c1.2,1.6,2.9,2.8,4.9,3.5&#10;&#9;&#9;&#9;&#9;&#9;&#9;c-1.5,3.5-2.1,7.3-1.6,11.1c1.6-3.9,3.5-7.1,5.8-10.3c1.6,0.1,3.3,0,4.9-0.2c3.4-0.4,6.7-1.1,9.8-2.5c1.3-0.6,2.5-1.3,3.7-2.2&#10;&#9;&#9;&#9;&#9;&#9;&#9;c-2.9,8-8,15.3-14.6,20.7c-3.1,2.6-6.6,4.8-10.5,5.8c-3.9,1-8.3,0.7-11.7-1.3c3,3.3,7.9,4.9,12.3,4.8s8.6-1.7,12.4-4&#10;&#9;&#9;&#9;&#9;&#9;&#9;C176.3,489.2,183.5,476.4,183,463.4z"/>
					<path id="XMLID_8_" fill="#FFFFFF" d="M159.7,479.4c0.3-0.3,0.7-0.5,1.1-0.7c0.4-0.1,0.9-0.1,1.2,0.2c0.5,0.4,0.5,1.1,0.4,1.8&#10;&#9;&#9;&#9;&#9;&#9;&#9;c-0.5,3.2-2.1,6.1-4.5,8.3c-2.8,2.4-2.1-2.3-1.8-3.6C156.6,483.1,157.9,481,159.7,479.4z"/>
					<path id="XMLID_9_" fill="#FFFFFF" d="M144.2,488.6c0,0.7,0.3,1.5,1,1.6c0.6,0,1-0.7,1.2-1.3c0.3-1,1.5-4.6-0.3-4.7&#10;&#9;&#9;&#9;&#9;&#9;&#9;C144.3,484.2,144.2,487.4,144.2,488.6z"/>
					<path id="XMLID_11_" fill="#E5D9F9" d="M358.4,367.2c-26.1-26.6-66.1-36.9-99.8-25.7c1.9,3.9,3.5,7.5,5.4,11.3&#10;&#9;&#9;&#9;&#9;&#9;&#9;C295.2,346.3,330.5,349.9,358.4,367.2z"/>
					<path id="XMLID_18_" fill="#8A53C4" d="M245,404.6c7.8,9.6,6.2,24.8-1.8,34.2c-8.1,9.4-21.3,13.3-33.6,12.4&#10;&#9;&#9;&#9;&#9;&#9;&#9;c-10.5-0.8-21.5-5.5-26.4-14.8c8.1,4.2,16.8,7.6,25.8,7.9c9.1,0.3,18.5-2.5,24.9-8.8C241.4,427.8,244.2,415.2,245,404.6z"/>
					<path id="XMLID_21_" fill="#E5D9F9" d="M220.4,375.6c-8.2-6.5-20.7-6.9-29.4-1.1c-1.7-1.6-1.7-4.5-0.6-6.6&#10;&#9;&#9;&#9;&#9;&#9;&#9;c1.1-2.1,3.1-3.5,5-4.9c-12.2,6-21.5,17.4-24.9,30.5c1.3-4.1,3.5-6.7,6.6-9.6c0.7,1.5,1.4,3.1,2.1,4.6&#10;&#9;&#9;&#9;&#9;&#9;&#9;c-5.7,13.7-4.1,30.7,4.3,43c-2.8-9.7-4.9-18.9-3.5-28.9s6.8-19.9,15.7-24.6C203.1,374.1,212.4,373.5,220.4,375.6z"/>
					<path id="XMLID_23_" fill="#8A53C4" d="M382.9,373.4c1.1-10.5,8.3-19.4,16.5-25.9c8.2-6.6,17.6-11.6,25.7-18.3&#10;&#9;&#9;&#9;&#9;&#9;&#9;c17.8-14.9,26.4-38.3,24.5-61.4c-6.6,27.7-25.8,47.2-50.2,60.4c-1.5,0.8-12,8.8-12.2,8.8c-26.8-9.9-53.8-20-82.2-23.8&#10;&#9;&#9;&#9;&#9;&#9;&#9;c-28.3-3.9-57.4-0.1-82.1,14.1c10.3-3.9,21.5-5.9,32.4-6.8c4.7-0.4,9.4-0.3,14.1-0.3c5.3,0.1,10.7,0.1,16,0.2&#10;&#9;&#9;&#9;&#9;&#9;&#9;c4.3,0,8.6,0.1,12.9,0.5c17,1.7,32.7,9.2,48.1,16.5c2.4,1.1,4.8,2.3,6.9,4c1.6,1.3,3,2.9,4.5,4.4c4.4,4.2,9.7,7.2,14.4,11&#10;&#9;&#9;&#9;&#9;&#9;&#9;C377.1,360.6,382.4,367.4,382.9,373.4z"/>
					<path id="XMLID_25_" fill="#8A53C4" d="M562.8,332.3c-0.8,13.1-1.7,26.3-5.1,39s-9.5,25-19.3,33.7&#10;&#9;&#9;&#9;&#9;&#9;&#9;c-21.1,18.7-55,17.6-75.1,37.4c7.9,1.8,16,3.7,22.8,8.1c5,3.3,9,7.8,12.8,12.3c8.6,10.4,16.3,21.7,26.6,30.5s24,14.8,37.2,12.1&#10;&#9;&#9;&#9;&#9;&#9;&#9;c-8.4-2.5-16.1-7.2-22.2-13.5c-8.5-8.9-13.5-20.6-20.4-30.9c-6.9-10.3-17.1-19.8-29.5-20.1c11.3-3.2,21.6-6.2,32.3-11.1&#10;&#9;&#9;&#9;&#9;&#9;&#9;c10.7-4.9,20.8-11.5,28.5-20.3c8.7-9.9,14-22.6,15.7-35.7C568.9,360.9,567.9,344.5,562.8,332.3z"/>
					<g id="XMLID_71_">
						<path id="XMLID_82_" fill="#8A53C4" d="M520,556.4c-23.2-1.2-45-16.5-54.1-37.8c5.9,7.4,14.2,12.7,23.4,14.9&#10;&#9;&#9;&#9;&#9;&#9;&#9;&#9;c-9.8-7.2-17.8-16.7-23.3-27.5c-4.4-8.6-7.2-18.1-12.4-26.3c-5-7.8-13.2-14.5-22.4-14.6c-2.4,4.6-5.3,8.8-8.5,12.2&#10;&#9;&#9;&#9;&#9;&#9;&#9;&#9;c10.6-0.5,20.6,2.6,24.2,14.3c2.8,9.1,1,19.4-1.9,28.2c-1,2.9-2,6-3.2,9.2c2.2,3.2,2.9,7.8,4.7,11c2.3,4.2,5.4,7.9,8.9,11.2&#10;&#9;&#9;&#9;&#9;&#9;&#9;&#9;c5.6,5.3,12.2,8.7,18.8,12.2c-9.1-8.9-14.2-21.7-14.1-34.4c0-2.1,2.7-2.7,3.8-1c6.6,10.4,14.9,19.8,24.8,27.3&#10;&#9;&#9;&#9;&#9;&#9;&#9;&#9;c5,3.8,10.4,7.3,16.5,9c6.7,1.9,13.8,1.4,20.7,0.3c11.8-2,24.1-5.3,33.1-13.6c5.3-4.9,9.3-10.8,12.2-17.3&#10;&#9;&#9;&#9;&#9;&#9;&#9;&#9;C558.8,548.5,539.3,557.4,520,556.4z"/>
					</g>
					<path id="XMLID_70_" fill="#ADB6F7" d="M435.6,484.5c-7.6-4.2-18.8-1.8-26.7,0.4c-7.9,2.2-15.5,5.5-23.1,8.8&#10;&#9;&#9;&#9;&#9;&#9;&#9;c-9.8,4.2-20.7,9.4-31.7,10.6c11.1,1,22.4-0.6,32.7-4.8c5.1-2,9.9-4.7,15-6.7c6.6-2.6,13.6-4.2,20.7-4.7&#10;&#9;&#9;&#9;&#9;&#9;&#9;c2.1-0.1,4.3-0.1,6.3,0.3c-6.7,6.1-14.4,11.1-22.7,14.7c10.2-1.3,20.1-4.1,29.5-8.3c0.9,2.7,0.9,5.9,0.7,8.7&#10;&#9;&#9;&#9;&#9;&#9;&#9;c-3.9,3-8.6,4.9-13.4,6.1c-5.4,1.3-11,1.8-16.6,2.2c9.5,1.5,19.3,1.2,28.8-0.8c0.1,0,0.2,0,0.3-0.1c-0.9,5-2.1,9.9-3.8,14.7&#10;&#9;&#9;&#9;&#9;&#9;&#9;c-4.3,2.6-9.6,3.5-14.6,3.5c-5.6,0.1-11.1-0.7-16.7-0.8c3.4,0.2,6.6,1.4,9.9,2.4c6,1.7,12.2,2.5,18.5,2.3&#10;&#9;&#9;&#9;&#9;&#9;&#9;c-2.6,5.8-5.8,11.3-9.6,16.4c5-2.1,9.3-5.9,12.4-11.7c4.6-8.5,8.6-17.8,10.6-27.3C443.7,502.2,444.3,489.3,435.6,484.5z"/>
					<path id="XMLID_12_" fill="#4C5AC1" d="M239.5,556c-3.2,14.6-10.3,28.4-20.4,39.4c-2.8,3.1-6.2,6.2-10.4,6.7&#10;&#9;&#9;&#9;&#9;&#9;&#9;c5.9-8.8,9.8-19,11.9-29.4c-7.2-3.7-14.3-7.9-20.3-13.3c-6-5.4-11-12.3-13.3-20.1c1.4,2.2,3.1,2.2,5.5,3.3&#10;&#9;&#9;&#9;&#9;&#9;&#9;C206.6,549.4,223.8,554.5,239.5,556z"/>
					<path id="XMLID_17_" fill="#921BAF" d="M364.1,538.9c-11.3-9.4-27.1-12.9-36.5-24.1c1-1.3,2.1-2.1,3.1-3.4&#10;&#9;&#9;&#9;&#9;&#9;&#9;c-9.6,5-19,8.4-29.5,10.7c1.6-4.7,1.8-9.7,1.7-14.7c-0.2-15.5-2-31-5.2-46.2c-0.1,4-0.5,7.4-0.5,11.4c-0.1,5.6-0.2,11.2-1,16.8&#10;&#9;&#9;&#9;&#9;&#9;&#9;c-2.5,17.7-12.3,34.4-26.8,44.9c-11.9,8.7-26.4,13.1-40.6,17.4c6.7,3.9,14.5,5.2,22.2,6c35.8,3.7,72.4-1.3,105.9-14.5&#10;&#9;&#9;&#9;&#9;&#9;&#9;C359.5,542.1,362.5,541.2,364.1,538.9z"/>
					<path id="XMLID_62_" fill="#61D8F0" d="M271.5,532.2c-10.4,6.6-22.2,11.1-34.4,13.1c-12.7,2.1-26.7,1.3-37.3-5.9&#10;&#9;&#9;&#9;&#9;&#9;&#9;c-3.8-2.6-7-5.9-10.3-9.1c-4.1-4-8.3-7.9-12.6-11.6c-4.3-3.7-9-7.5-14.6-8c-2.3,0.5-4.9,2.3-6.1,4.3&#10;&#9;&#9;&#9;&#9;&#9;&#9;c6.4,1.5,12.3,5.1,16.6,10.1c3.1,3.5,5.3,7.7,8.7,11c4.1,4.1,9.6,6.4,15,8.7c6,2.5,12.1,5.1,18.4,6.3c10,1.9,20.5,0.5,30.1-2.9&#10;&#9;&#9;&#9;&#9;&#9;&#9;C254.7,544.6,263.3,538.4,271.5,532.2z"/>
					<path id="XMLID_64_" fill="#61D8F0" d="M364.9,540.4c-1-1.5-2.4-2.6-3.9-3.6c-18.8,6.2-37.8,12.5-57.5,14.7&#10;&#9;&#9;&#9;&#9;&#9;&#9;c-18.7,2.1-37.8,0.5-55.9-4.7c-6.1,1.5-12.4,3.7-18.3,6c5.9,3.6,12,4.5,18.9,5.1C287.5,561.2,329.7,558,364.9,540.4z"/>
					<path id="XMLID_66_" fill="#E5D9F9" d="M266,511c10.8-12.9,15.9-30.3,13.7-47C287.4,480.6,281.1,500.8,266,511z"/>
					<path d="M 337.7 466.200012 A 9.7 5.8 0 0 1 328 472.000012 A 9.7 5.8 0 0 1 318.3 466.200012 A 9.7 5.8 0 0 1 328 460.400012 A 9.7 5.8 0 0 1 337.7 466.200012 Z" id="XMLID_61_" fill="#8A53C4"/>
					<path d="M 354.000012 474.899994 A 4.8 2.9 0 0 1 349.200012 477.799994 A 4.8 2.9 0 0 1 344.400012 474.899994 A 4.8 2.9 0 0 1 349.200012 471.999994 A 4.8 2.9 0 0 1 354.000012 474.899994 Z" id="XMLID_77_" fill="#8A53C4"/>
					<path d="M 318.999988 486.799988 A 5.2 3.2 0 0 1 313.799988 489.999988 A 5.2 3.2 0 0 1 308.599988 486.799988 A 5.2 3.2 0 0 1 313.799988 483.599988 A 5.2 3.2 0 0 1 318.999988 486.799988 Z" id="XMLID_86_" fill="#8A53C4"/>
					<path id="XMLID_69_" fill="#871087" d="M146.2,474c-7.2,0-14.4-1.9-20.7-5.5c-1-0.6-2-1.3-2.1-2.4c-0.1-1.1,0.6-2,1.4-2.8&#10;&#9;&#9;&#9;&#9;&#9;&#9;c0.8-0.8,1.6-1.7,2.7-1.9c8.1-1.4,16.2,4,23.6,7.6C149.4,470.7,147.9,472.3,146.2,474z"/>
					<path id="XMLID_93_" fill="#E5D9F9" d="M134.2,442.6c0.1-1.1,0.3-2.2,0.6-3.2c0.5-2.2,1-4.3,1.5-6.5c0.5-2.3,1-4.6,1.6-6.9&#10;&#9;&#9;&#9;&#9;&#9;&#9;c0.8-3,1.8-6,3-8.9c-6.1,6.3-11.4,13.3-15.6,20.9C128.3,439.1,131.2,441.3,134.2,442.6z"/>
					<g id="XMLID_7_">
						<path id="XMLID_1_" fill="#381B4F" d="M215.3,398.1c-6.9,0-12.6,6.7-12.6,14.8c0,8.2,5.6,14.8,12.6,14.8s12.6-6.7,12.6-14.8&#10;&#9;&#9;&#9;&#9;&#9;&#9;&#9;C227.8,404.7,222.2,398.1,215.3,398.1z"/>
						<path id="XMLID_45_" fill="#381B4F" d="M183.6,460.4c-6,1.9-12.1,4.2-18.3,5.3c-7,1.2-13.7,0-20.5-2c-4.6-1.4-19.5-7-21.4,1.1&#10;&#9;&#9;&#9;&#9;&#9;&#9;&#9;c-0.1,0.4,0.5,0.8,0.8,0.5c4.1-4.7,12.1,0.3,16.4,2.1c2.1,0.9,4.4,1.7,6.6,2.3c-6.4,5-11,14-10.6,22.1&#10;&#9;&#9;&#9;&#9;&#9;&#9;&#9;c0.5,9.3,9.5,13.7,17.9,12.2c19.1-3.3,30.7-24.1,31-42.1C185.6,460.9,184.6,460.1,183.6,460.4z M162.1,495.7&#10;&#9;&#9;&#9;&#9;&#9;&#9;&#9;c-6.7,3.6-20.2,6.2-20.1-5.4c0.1-7.5,5.4-13.7,10.1-19.1c0.1-0.1,0.1-0.1,0.2-0.2c1.1,0.2,2.3,0.4,3.4,0.5&#10;&#9;&#9;&#9;&#9;&#9;&#9;&#9;c1.3,0.1,2.6,0.2,4,0.2c-3.3,4-5.5,8.8-6.4,13.8c-0.1,0.5,0.6,0.7,0.8,0.2c2.1-6.1,5.5-10.7,10.5-14.4&#10;&#9;&#9;&#9;&#9;&#9;&#9;&#9;c6.3-0.8,12.4-3.1,17.8-6.4C181.4,477.7,173.5,489.4,162.1,495.7z"/>
						<path id="XMLID_48_" fill="#381B4F" d="M215.3,389.8c-10.9,0-19.8,10.4-19.8,23.1s8.9,23.1,19.8,23.1s19.8-10.4,19.8-23.1&#10;&#9;&#9;&#9;&#9;&#9;&#9;&#9;S226.1,389.8,215.3,389.8z M215.3,435c-10.3,0-18.8-9.9-18.8-22.1c0-12.2,8.4-22.1,18.8-22.1s18.8,9.9,18.8,22.1&#10;&#9;&#9;&#9;&#9;&#9;&#9;&#9;C234,425.1,225.6,435,215.3,435z"/>
						<path id="XMLID_49_" fill="#381B4F" d="M175.5,381.5c0.1-0.2-0.2-0.5-0.4-0.3c-6.6,8.6-7.7,21.4-3.8,31.3&#10;&#9;&#9;&#9;&#9;&#9;&#9;&#9;c0.1,0.4,0.7,0.2,0.6-0.2C169.4,401.2,171,391.8,175.5,381.5z"/>
						<path id="XMLID_52_" fill="#381B4F" d="M243.4,391c-3.1-8.9-8.9-17.4-16-23.6c-5.9-5.2-13.4-8.1-21.3-7.9&#10;&#9;&#9;&#9;&#9;&#9;&#9;&#9;c-8.4,0.3-14.3,3.5-20,9.4c-0.1,0.1,0.1,0.3,0.2,0.2c5.4-5.2,14.4-7.9,21.9-7.3c8.5,0.6,14.6,5.2,19.9,11.6&#10;&#9;&#9;&#9;&#9;&#9;&#9;&#9;c3,3.5,5.4,7.4,7.6,11.4c-4.7-5.7-10.7-10.1-17.7-12.3c-15.7-5-30.6,3.1-36.5,18.1c-5.2,13.2-5.3,32.7,2.6,45.7&#10;&#9;&#9;&#9;&#9;&#9;&#9;&#9;c-1.6-1.4-3.1-2.9-4.4-4.8c-2.8-4-4.9-8.5-6.4-13.1c0-0.1-0.2-0.1-0.2,0c1.5,8.5,6.9,17.7,14.4,22.6c0.4,0.4,0.7,0.8,1.1,1.2&#10;&#9;&#9;&#9;&#9;&#9;&#9;&#9;c0.3,0.3,0.7,0.2,0.9,0c0,0,0,0,0,0c0.1,0,0.2,0.1,0.3,0.1c2.9,1.6,6.4,2.4,10,3c7.9,1.3,16.2,1.8,23.9-0.7&#10;&#9;&#9;&#9;&#9;&#9;&#9;&#9;c12.2-3.9,20.1-14.3,21.9-26.2c0.1-0.1,0.3-0.2,0.3-0.3c1.5-4.1,0.8-9.3,0.3-13.6C245.8,400,245,395.4,243.4,391z&#10;&#9;&#9;&#9;&#9;&#9;&#9;&#9; M233.8,433.4c-6.3,7-15.3,8.6-24.3,8c-6.9-0.5-15.8-1.4-22.2-5.1c-2.8-6.3-5.4-12.5-6.1-19.7c-0.8-8.5,0.5-17.3,4.3-25.1&#10;&#9;&#9;&#9;&#9;&#9;&#9;&#9;c4-8.1,10.5-14.6,19.8-15.7c9.2-1,17.8,3.1,24.1,9.6C241.4,397.9,246.3,419.5,233.8,433.4z"/>
						<path id="XMLID_55_" fill="#381B4F" d="M576.1,521c-14.5,10.4-34.3,5.4-42.1-10c12.1,4.3,24.9,2.8,36-4.4&#10;&#9;&#9;&#9;&#9;&#9;&#9;&#9;c1.8-1.2,1.3-4.5-1.2-4.4c-21.2,1.1-33-20.7-42.3-36.2c-7.6-12.8-17.7-22.6-31.9-25.3c11.8-3.3,23.5-8.3,34.5-13.4&#10;&#9;&#9;&#9;&#9;&#9;&#9;&#9;c11.6-5.4,22.1-12.7,29.5-23.3c7.1-10.2,11-22.5,12.1-34.9c1.1-13.2-0.6-29.4-6.9-41.4c0,0,0-0.1,0-0.1c0-0.4-0.2-0.7-0.5-0.8&#10;&#9;&#9;&#9;&#9;&#9;&#9;&#9;c-0.8-1-2.4,0-2.2,1.3c0.1,0.6,0.2,1.1,0.3,1.7c-2.8,9.4-8.1,17.6-17.4,21.8c-6.9,3.1-14.5,4.2-21.6,6.7&#10;&#9;&#9;&#9;&#9;&#9;&#9;&#9;c8.5-11.7,12.2-26.3,10.1-40.9c-0.2-1.5-2.3-1.1-2.7,0c-5,14.7-16.5,25.7-31.4,30.3c-14.7,4.5-30.3,4.6-45.5,6.1&#10;&#9;&#9;&#9;&#9;&#9;&#9;&#9;c-22.1,2.2-50.9,11.5-54.5,36.6c-4.1-5.6-7.6-11.5-11.3-17.4c-1.1-12.9,11.1-21.8,21-27.9c9.5-5.8,18.6-11.6,26-20&#10;&#9;&#9;&#9;&#9;&#9;&#9;&#9;c13.9-15.9,21.1-37,19.6-58.1c-0.1-1.2-1.2-2.4-2.6-1.9c-12,4-24.6,5.5-37.2,4c-12.8-1.5-24.2-6.7-37.4-5.4&#10;&#9;&#9;&#9;&#9;&#9;&#9;&#9;c-10.9,1.1-21.5,4.3-31,9.7c-9.3,5.3-18.7,13.7-29.7,13.2c6.8-2.9,11.2-9.2,12.2-17c0.1-1.2-1.5-1.6-2.2-0.9&#10;&#9;&#9;&#9;&#9;&#9;&#9;&#9;c-9.5,9.2-23.2,10.2-35.7,11.3c-10.8,1-21,2.8-30.8,7.6c-16.6,8-31.1,22.4-37.7,39.8c-6.9,2.8-13.7,6.2-20,10.1&#10;&#9;&#9;&#9;&#9;&#9;&#9;&#9;c-10.3,6.3-20.2,13.9-27,23.8c-6-0.4-13.4,4.1-18.4,6.5c-6.4,3.1-12.8,6.7-17.7,11.8c-8.5,8.9-10.2,23.2-6.7,34.9&#10;&#9;&#9;&#9;&#9;&#9;&#9;&#9;c-2.3,3.6-5,7-7.3,10.7c-2.4,3.7-5.2,8.4-5.2,12.9c-3.4,1-6.4,3-8.5,6.5c-10,16.4,7.5,32.4,23.7,32.5&#10;&#9;&#9;&#9;&#9;&#9;&#9;&#9;c-6.1,4.2-10.4,11.2-9.9,18.8c0.6,8.2,6.1,15.6,13.6,18.9c4.6,2,9.9,2.3,15.2,1.6c13.5,2.9,21.7,15.2,32.1,23.7&#10;&#9;&#9;&#9;&#9;&#9;&#9;&#9;c-9,5.5-17.4,14.3-17.7,25.1c-0.4,13.4,9.4,24,20.3,30.3c10.3,6,25.3,13.8,35.1,3c9.4-10.3,14.6-26.1,17.6-39.6&#10;&#9;&#9;&#9;&#9;&#9;&#9;&#9;c16.1,2.6,32.6,3.4,48.8,2.9c13.2-0.5,26.5-2.2,39.4-5.2c6.7-1.6,13.4-3.5,19.9-5.8c5.5-1.9,12.3-3.9,16.7-7.8&#10;&#9;&#9;&#9;&#9;&#9;&#9;&#9;c5,2.9,10.1,5.6,15.2,8c15.7,7.4,37,11.3,50.4-2.8c3.2-3.4,5.8-7.6,8-12.2c2.7,7.2,8.1,14,13.2,18.7&#10;&#9;&#9;&#9;&#9;&#9;&#9;&#9;c8,7.4,19.2,13.8,30.1,15.6c0.7,0.1,1.2-0.4,1.2-0.9c0.6-0.5,0.7-1.5-0.1-2.1c-10.2-7.8-17-18.4-18.7-30.8&#10;&#9;&#9;&#9;&#9;&#9;&#9;&#9;c6.1,8.6,13.3,16.3,21.8,22.7c5.6,4.2,11.6,8.1,18.5,9.8c6.7,1.6,13.6,1.2,20.3,0.2c13-2.1,26.3-5.6,36.2-14.6&#10;&#9;&#9;&#9;&#9;&#9;&#9;&#9;c9.1-8.2,14.8-19.5,17.8-31.2C579.6,521.7,577.7,519.8,576.1,521z M266.9,288.9c18.5-6.6,42.8-1.6,58-15.6&#10;&#9;&#9;&#9;&#9;&#9;&#9;&#9;c-1.9,6.5-7.9,11.4-14.7,12.2c-1.4,0.1-1.7,2-0.3,2.4c10.5,3.4,20.2-1.6,29-7.1c11.7-7.4,23.8-13,37.8-13.9&#10;&#9;&#9;&#9;&#9;&#9;&#9;&#9;c13.3-0.8,25.3,4.8,38.3,6.3c11.7,1.3,23.6,0.1,34.8-3.6c0.1,22.4-9.8,44.5-26.9,59.2c-12.9,11.1-37.7,19.8-39.2,38.7&#10;&#9;&#9;&#9;&#9;&#9;&#9;&#9;c-0.9-1.3-1.8-2.6-2.7-3.9c-9.4-13.1-21.9-23.3-36.1-30.8c16.6-3.3,36.4,2.1,50.1-9.3c0.2-0.2-0.1-0.5-0.3-0.3&#10;&#9;&#9;&#9;&#9;&#9;&#9;&#9;c-16.6,10.7-36.4,1.5-54,7.6c-1.4-0.7-2.8-1.3-4.2-1.9c7.1-3.7,15-3.8,23-4.7c9-1,18-1.5,26.9-3c15.3-2.6,27.3-11.4,33.9-25.4&#10;&#9;&#9;&#9;&#9;&#9;&#9;&#9;c0.2-0.3-0.3-0.6-0.5-0.3c-3.7,7.4-9.7,13.6-16.8,17.9c-8.2,4.9-17.3,6-26.7,6.8c-9.2,0.8-18.4,1.2-27.6,2.2&#10;&#9;&#9;&#9;&#9;&#9;&#9;&#9;c-5.4,0.5-11.6,1.3-15.8,5c-15-6-31.3-9.4-47.5-10.3c18.7-17.5,50.4-8.3,70.2-24.8c0.4-0.3-0.1-0.9-0.5-0.7&#10;&#9;&#9;&#9;&#9;&#9;&#9;&#9;c-21.3,14.9-54.9,5.6-73.1,25.3c-11.5-0.4-23,0.5-33.8,2.6c1.8-2.3,3.1-4.9,5.5-6.8c3.8-3.2,8.7-4.9,13.3-6.8&#10;&#9;&#9;&#9;&#9;&#9;&#9;&#9;c5.6-2.2,11.7-4.7,14.7-10.2c0.1-0.2-0.2-0.5-0.4-0.3c-6.5,6.9-15.4,8.5-23.5,12.7c-4.5,2.3-11.1,6.3-11.7,11.8&#10;&#9;&#9;&#9;&#9;&#9;&#9;&#9;c-1.5,0.3-3,0.6-4.4,1c-5.3,1.3-10.6,2.9-15.8,4.8C234.6,308.8,248.5,295.4,266.9,288.9z M131.4,501c-4.1-8.4-0.7-19,7-23.8&#10;&#9;&#9;&#9;&#9;&#9;&#9;&#9;c1.3-0.8,0.2-2.7-1.2-2c-0.2,0.1-0.4,0.2-0.6,0.3c-12.8-2.1-30.7-12.1-23.6-27.5c4.4-9.5,15.1-7,22.6-3&#10;&#9;&#9;&#9;&#9;&#9;&#9;&#9;c6.9,3.8,13.4,8.3,20.7,11.2c6.9,2.8,14.4,3.5,21.5,1.5c1.6-0.4,3.2-1.1,4.8-1.4c2.4-0.5,2.1-0.5,3.8,1.8&#10;&#9;&#9;&#9;&#9;&#9;&#9;&#9;c2,2.8,1.5,1.5,1.1,5.1c-0.5,4.5-0.8,9-1.7,13.4c-3.2,17.3-13.6,31.3-31.8,34C145.1,512,135.8,510,131.4,501z M222.4,589.2&#10;&#9;&#9;&#9;&#9;&#9;&#9;&#9;c-3.5,5.9-7.7,10.4-15.2,8.9c-5.6-1.1-11.1-4-16.1-6.7c-9.7-5.4-19.9-14.2-19.9-26.3c0-11,8.8-17,16.7-23&#10;&#9;&#9;&#9;&#9;&#9;&#9;&#9;c0.7,0.5,1.4,1,2.1,1.4c1.9,1.2,3.9,2.3,5.9,3.3c-7.4,6.8-13,16-15.8,25.4c-0.2,0.8,0.9,1.1,1.2,0.3&#10;&#9;&#9;&#9;&#9;&#9;&#9;&#9;c3.9-9.9,9.7-17.6,17.7-24.3c1.7,0.7,3.3,1.4,5.1,1.9c-4.1,4.5-6.6,10.1-8.8,15.8c-0.1,0.3,0.4,0.6,0.6,0.3&#10;&#9;&#9;&#9;&#9;&#9;&#9;&#9;c2.6-5.7,6.6-10.5,10.5-15.3c2.6,0.8,5.2,1.4,7.8,1.8c1.1,0.3,2.2,0.7,3.3,1c-1,1.1-1.8,2.4-2.5,3.5c-1.6,2.5-2.7,5.3-3.4,8.2&#10;&#9;&#9;&#9;&#9;&#9;&#9;&#9;c-0.2,0.8,1,1.2,1.3,0.4c0.8-2.6,2-5,3.5-7.3c0.9-1.4,2.4-2.7,3.5-4.1c4.9,1.3,9.9,2.5,14.9,3.5&#10;&#9;&#9;&#9;&#9;&#9;&#9;&#9;C232.2,568.8,228.1,579.4,222.4,589.2z M345.4,546c-6,2-12.1,3.8-18.3,5.2c-13,3-26.3,4.6-39.7,5.1c-17.5,0.7-34.8-0.9-52-3.4&#10;&#9;&#9;&#9;&#9;&#9;&#9;&#9;c25.4-3.7,47.7-21.9,57.4-45.6c6.4-15.5,9-34.4,4.2-50.7c-0.3-0.9-1.7-0.7-1.6,0.2c0.5,14.9,0.5,29.6-4.9,43.7&#10;&#9;&#9;&#9;&#9;&#9;&#9;&#9;c-5.3,13.6-14,25.7-25.8,34.4c-22.5,16.6-54.3,18.2-76.8,0.5c-8.7-6.8-16.4-17.5-26.9-21c2.8-0.9,5.4-2,7.8-3.2&#10;&#9;&#9;&#9;&#9;&#9;&#9;&#9;c8.6-4.5,14.8-12.5,18.4-21.4c2-4.9,3.1-10.1,3.8-15.3c0.6-5,1.8-12.6-0.7-17.3c-1.3-2.4-3.8-3.5-6.4-3.5&#10;&#9;&#9;&#9;&#9;&#9;&#9;&#9;c-2,0-3.8,0.7-5.7,1.1c-4.1,0.8-8.3,0.5-12.4-0.5c-12.1-2.9-21.6-11.3-33.1-15.5c-3.6-1.3-7.4-1.9-11-1.4&#10;&#9;&#9;&#9;&#9;&#9;&#9;&#9;c2.4-4,4.3-8,7.2-11.7c3-3.8,6.3-7.5,8.9-11.7c2.5-4.1,3.5-8.3,4.4-13c0.5-2.6,0.7-5.3,1.6-7.8c1-2.8,2.8-5,4.2-7.5&#10;&#9;&#9;&#9;&#9;&#9;&#9;&#9;c0.3-0.5-0.3-1-0.8-0.8c-3.9,2-5.4,6.5-6.9,10.3c-2,4.9-3.6,9.9-6,14.6c-0.4-3.4-0.7-6.8-0.5-10.3c0.6-7.3,4-13.6,9.6-18.4&#10;&#9;&#9;&#9;&#9;&#9;&#9;&#9;c4.7-4.1,10.5-6.9,16.1-9.5c3.4-1.5,6.8-2.8,10.3-4c0.3-0.1,0.7-0.2,1-0.3c-0.4,0.9,0.7,1.5,1.3,0.7c0.1-0.1,0.1-0.2,0.2-0.3&#10;&#9;&#9;&#9;&#9;&#9;&#9;&#9;c-3.6,5.5-6.4,11.6-8.1,18.1c-0.2,0.7,0.8,1,1.1,0.3c7-21.2,27.3-37.8,49.5-40.3c12.7-1.4,23.9,2.6,32.1,12.5&#10;&#9;&#9;&#9;&#9;&#9;&#9;&#9;c8.8,10.7,10,23.8,14.9,36.3c0.3,0.7,1.4,0.6,1.4-0.2c-0.1-13.7-4.6-29.6-13.1-40.5c-8.3-10.6-21.2-14.9-34.5-13.5&#10;&#9;&#9;&#9;&#9;&#9;&#9;&#9;c-9.3,1-17.8,4.2-25.3,9.1c9.4-7.5,20-13.4,31.3-17.9c0.5,0.1,0.9,0,1.2-0.5c26.5-10.1,56.5-11.9,83.6-6&#10;&#9;&#9;&#9;&#9;&#9;&#9;&#9;c23.4,5.1,48.1,16.1,64.1,34.4c14.1,16.2,21.4,37.9,39.2,50.8c5.6,4.1,13,6.2,17.7,11.4c3.6,4,5,9.3,5.2,14.6&#10;&#9;&#9;&#9;&#9;&#9;&#9;&#9;c-0.1,0.2-0.2,0.4-0.3,0.6c-0.2,0.5,0,1,0.3,1.2c0,0.6,0,1.2,0,1.7c-0.7,15-8.5,27-17.6,38.3c-4.2,0.8-8.2,1.9-11.8,3.1&#10;&#9;&#9;&#9;&#9;&#9;&#9;&#9;c-10.3,3.4-19.9,8.3-30,12.3c-9.3,3.8-18.6,5.8-28.5,7.4c3-4,5.3-8.6,5.7-12.7c0.1-0.6-0.7-0.8-1.1-0.5&#10;&#9;&#9;&#9;&#9;&#9;&#9;&#9;c-2.6,2.5-4.1,6.1-6.3,9c-2.4,3.2-5.2,5.9-8,8.7c-6.7,6.7-16.7,9.8-25.2,13.8c-0.5,0.2-0.1,1,0.4,0.9c4.9-1.2,10.3-3,15.3-5.3&#10;&#9;&#9;&#9;&#9;&#9;&#9;&#9;c0,0,0,0,0,0c7.8,8.1,17.1,14.1,26.6,20c2.8,1.7,5.6,3.5,8.5,5.2C355.5,541.6,350.4,544.3,345.4,546z M431.4,537.8&#10;&#9;&#9;&#9;&#9;&#9;&#9;&#9;c-10.2,18.7-32.5,15.8-48.9,7.9c-18.9-9.1-35.4-22-53.7-32.1c3-1.5,5.9-3.2,8.5-5.1c7.7,8.2,17.8,13.7,29.3,13.1&#10;&#9;&#9;&#9;&#9;&#9;&#9;&#9;c0.7,0,0.7-1,0-1.1c-9.6-0.8-19-4.8-24.8-12.6c13.8,7.5,32.7,9.5,47.4,4.8c0.9-0.3,0.5-1.5-0.4-1.3c-8.5,1.3-16.9,2-25.5,0.2&#10;&#9;&#9;&#9;&#9;&#9;&#9;&#9;c-3.2-0.6-6.2-1.6-9.2-2.8c0.3,0,0.6,0.1,0.8,0.1c6.2,0.8,12.6,0.8,18.8,0c11-1.4,23.4-5,32-12.4c0.5-0.4-0.1-1.1-0.6-0.8&#10;&#9;&#9;&#9;&#9;&#9;&#9;&#9;c-10.9,4.7-20.9,9.6-33,10.6c-5.6,0.5-11.1,0.2-16.7-0.8c-1.2-0.2-2.4-0.6-3.6-1c11.8-0.6,23.6-6.3,34-10.8&#10;&#9;&#9;&#9;&#9;&#9;&#9;&#9;c7.6-3.3,15.1-6.6,23.1-8.8c7.9-2.2,19.1-4.6,26.7-0.4c8.7,4.8,8.2,17.7,6.4,26C440,520,435.9,529.3,431.4,537.8z M558.9,551&#10;&#9;&#9;&#9;&#9;&#9;&#9;&#9;c-9,8.3-21.3,11.6-33.1,13.6c-6.8,1.2-13.9,1.6-20.7-0.3c-6.1-1.7-11.5-5.3-16.5-9c-9.9-7.4-18.2-16.9-24.8-27.3&#10;&#9;&#9;&#9;&#9;&#9;&#9;&#9;c-1.1-1.7-3.8-1-3.8,1c-0.1,12.7,5,25.6,14.1,34.4c-6.6-3.5-13.1-6.9-18.8-12.2c-3.5-3.3-6.5-7-8.9-11.2&#10;&#9;&#9;&#9;&#9;&#9;&#9;&#9;c-1.8-3.3-2.6-7.8-4.7-11c1.2-3.1,2.3-6.2,3.2-9.2c2.9-8.8,4.8-19.1,1.9-28.2c-3.6-11.6-13.6-14.7-24.2-14.3&#10;&#9;&#9;&#9;&#9;&#9;&#9;&#9;c4.3-4.6,8.1-10.6,10.9-17.2c3.2,0.8,6.4,1.3,9.3,2.8c0.3,0.2,0.6-0.3,0.3-0.5c-2.7-1.8-5.5-3.8-8.6-4.8&#10;&#9;&#9;&#9;&#9;&#9;&#9;&#9;c0.3-0.8,0.6-1.5,0.8-2.3c12.3-1.8,19,12.2,25.4,20.7c6,7.8,12.9,14.7,20.8,20.5c0.3,0.3,0.8-0.3,0.5-0.6&#10;&#9;&#9;&#9;&#9;&#9;&#9;&#9;c-10.1-9-18.1-19.1-25.8-30.2c-4.7-6.8-11.4-13.6-19.9-13.5c0.9-3,1.5-6.1,1.8-9.2c2.2,0.2,4.5,0.2,6.7,0.5&#10;&#9;&#9;&#9;&#9;&#9;&#9;&#9;c4.3,0.6,8.6,1.4,12.7,2.8c8.5,2.7,14.9,7,19.7,14.6c3.3,5.3,6.2,10.7,10.5,15.2c4.4,4.7,9.5,8,15.3,10.8&#10;&#9;&#9;&#9;&#9;&#9;&#9;&#9;c0.3,0.1,0.5-0.3,0.2-0.4c-7.1-3.8-13.4-9.7-18-16.3c-3.9-5.6-6.4-12-11.2-17c-4.7-5-11.2-7.8-17.6-10&#10;&#9;&#9;&#9;&#9;&#9;&#9;&#9;c-5.2-1.8-11.9-3.8-18-3.8c0-1.9,0-3.7-0.3-5.6c6.5-6.5,14.6-9.5,24.3-10.6c10.6-1.1,21.3-1.1,31.9-2.7&#10;&#9;&#9;&#9;&#9;&#9;&#9;&#9;c18.1-2.7,35.2-9.8,45.2-25.9c0.1-0.2-0.2-0.4-0.3-0.2C527,414,501.9,419,480.6,419.7c-13.1,0.4-32.7-0.3-43.2,9.8&#10;&#9;&#9;&#9;&#9;&#9;&#9;&#9;c-1.1-4.5-3.2-8.7-6.5-12.2c-0.9-0.9-1.8-1.7-2.8-2.5c0.2,0,0.4-0.2,0.6-0.4c4.2-5.7,10-10.3,17.2-11.4c0,0,0,0,0,0&#10;&#9;&#9;&#9;&#9;&#9;&#9;&#9;c-7.6,0.7-14.6,3.9-18.9,10.5c-0.1,0.2-0.1,0.3-0.1,0.5c-1-0.7-2.1-1.4-3.2-2c1.9-1.9,3.3-4.4,5.4-6.3&#10;&#9;&#9;&#9;&#9;&#9;&#9;&#9;c2.8-2.5,5.9-4.3,9.3-5.9c6.1-2.9,12.7-4.6,19.2-6.4c11.9-3.2,23.1-6.9,30.9-17c0.1-0.1-0.1-0.3-0.2-0.2&#10;&#9;&#9;&#9;&#9;&#9;&#9;&#9;c-9.5,11.3-25.6,13.6-39,17.4c-5.9,1.7-11.8,3.7-17.1,6.8c-3.8,2.2-9.1,5.7-10.9,10.1c-2.1-1.2-4.3-2.3-6.3-3.6&#10;&#9;&#9;&#9;&#9;&#9;&#9;&#9;c-5.2-3.3-9.6-7.7-13.4-12.5c-0.3-0.4-0.6-0.8-0.9-1.2c5.9-32.5,45.1-34,71-36.3c13.5-1.2,27.2-3.8,38.9-11.3&#10;&#9;&#9;&#9;&#9;&#9;&#9;&#9;c8.5-5.5,15.2-13.2,19.6-22.3c0.3,14.5-5.3,28.4-15.7,38.7c-1.4,1.4,0.4,3.8,2.1,2.8c10.3-6.5,23.4-6.4,33.4-13.5&#10;&#9;&#9;&#9;&#9;&#9;&#9;&#9;c5.6-4,10.2-9.8,12.4-16.3c0.9,4.3,2,8.5,2.6,12.8c1,6.7,1.2,13.5,0.7,20.3c-0.9,12.3-5,24.6-12.4,34.5&#10;&#9;&#9;&#9;&#9;&#9;&#9;&#9;c-15.7,21.1-43.2,24.9-64.7,37.3c0,0,0,0,0,0c-1.6-0.1-2,2.5-0.4,2.8c9.4,1.5,18.5,5.8,25,12.8c6.3,6.8,10.2,15.3,14.9,23.3&#10;&#9;&#9;&#9;&#9;&#9;&#9;&#9;c6.8,11.5,18.5,25.1,32.5,27.7c-9.2,3.9-20.1,3.8-29.1-0.8c-1.4-0.7-3.3,0.5-2.8,2.1c6,19.4,27.5,28.2,45,19.4&#10;&#9;&#9;&#9;&#9;&#9;&#9;&#9;C570.7,536.3,565.9,544.6,558.9,551z"/>
						<path id="XMLID_3_" fill="#FFFFFF" d="M206,394.1c-4.2,0-7.5,4-7.5,8.9c0,4.9,3.4,8.9,7.5,8.9c4.2,0,7.5-4,7.5-8.9&#10;&#9;&#9;&#9;&#9;&#9;&#9;&#9;C213.5,398.1,210.2,394.1,206,394.1z"/>
						<path id="XMLID_5_" fill="#FFFFFF" d="M221.1,392.8c-2.5,0-4.5,2.4-4.5,5.3c0,2.9,2,5.3,4.5,5.3s4.5-2.4,4.5-5.3&#10;&#9;&#9;&#9;&#9;&#9;&#9;&#9;C225.7,395.2,223.6,392.8,221.1,392.8z"/>
					</g>
					<path id="XMLID_128_" fill="#61D8F0" d="M172.2,558.9c-0.7,1.9-1,3.9-1,6.2c0,12.1,10.1,20.9,19.9,26.3&#10;&#9;&#9;&#9;&#9;&#9;&#9;c5,2.7,10.5,5.6,16.1,6.7c3.1,0.6,5.7,0.2,7.9-1C194.6,594,174.8,579,172.2,558.9z"/>
					<g id="XMLID_125_">
						<g id="XMLID_161_">
							<g id="XMLID_162_">
								<path id="XMLID_163_" fill="#61D8F0" d="M409.4,549.5c-9.8-0.6-18.9-5.2-27.6-9.8c-16.7-8.9-33.2-18.2-49.4-28&#10;&#9;&#9;&#9;&#9;&#9;&#9;&#9;&#9;&#9;c-1.2,0.7-2.4,1.3-3.6,1.9c18.3,10.1,34.8,23,53.7,32.1c12.9,6.2,29.5,9.3,40.9,1.2C419.1,548.9,414.1,549.8,409.4,549.5z"/>
							</g>
						</g>
					</g>
				</g><path id="XMLID_97_" fill="#F980F3" d="M138,451.1c-4.7-1.4-9.5-2.7-14.4-2.9c-1.8,0-3.7,0.1-5.3,1c-1.7,1-2.9,2.8-3.2,4.7&#10;&#9;&#9;&#9;&#9;&#9;s0.1,4,1,5.7c0.4-3.8,2.5-7.3,6.1-8.7c1.1-0.4,2.3-0.7,3.4-0.9C128.9,449.2,134.7,450.3,138,451.1z" transform="matrix(-0.9902641773223877, 0.1392010897397995, 0.1392010897397995, 0.9902641773223877, 518.1296997070312, -294.7081527709961)"/><linearGradient id="XMLID_281_" gradientUnits="userSpaceOnUse" x1="42.3406" y1="606.9356" x2="42.3406" y2="867.3049">
						<stop offset="0" style="stop-color:#7EE770"/>
						<stop offset="1" style="stop-color:#2C8720"/>
					</linearGradient><linearGradient id="XMLID_282_" gradientUnits="userSpaceOnUse" x1="85.8178" y1="700.0331" x2="85.8178" y2="960.4023">
						<stop offset="0" style="stop-color:#7EE770"/>
						<stop offset="1" style="stop-color:#2C8720"/>
					</linearGradient><linearGradient id="XMLID_283_" gradientUnits="userSpaceOnUse" x1="163.2305" y1="624.4559" x2="163.2305" y2="862.2527">
						<stop offset="0" style="stop-color:#7EE770"/>
						<stop offset="1" style="stop-color:#2C8720"/>
					</linearGradient><linearGradient id="XMLID_284_" gradientUnits="userSpaceOnUse" x1="380.8777" y1="640.163" x2="380.8777" y2="877.9598">
						<stop offset="0" style="stop-color:#7EE770"/>
						<stop offset="1" style="stop-color:#2C8720"/>
					</linearGradient><linearGradient id="XMLID_285_" gradientUnits="userSpaceOnUse" x1="26.8032" y1="722.9916" x2="26.8032" y2="960.7884">
						<stop offset="0" style="stop-color:#7EE770"/>
						<stop offset="1" style="stop-color:#2C8720"/>
					</linearGradient><linearGradient id="XMLID_286_" gradientUnits="userSpaceOnUse" x1="202.9452" y1="683.6328" x2="202.9452" y2="921.4295" gradientTransform="matrix(-1 0 0 1 405.8904 0)">
						<stop offset="0" style="stop-color:#7EE770"/>
						<stop offset="1" style="stop-color:#2C8720"/>
					</linearGradient><linearGradient id="XMLID_287_" gradientUnits="userSpaceOnUse" x1="271.0756" y1="706.1433" x2="271.0756" y2="863.986">
						<stop offset="0" style="stop-color:#7EE770"/>
						<stop offset="1" style="stop-color:#2C8720"/>
					</linearGradient><linearGradient id="XMLID_288_" gradientUnits="userSpaceOnUse" x1="297.64" y1="746.9945" x2="297.64" y2="904.8371">
						<stop offset="0" style="stop-color:#7EE770"/>
						<stop offset="1" style="stop-color:#2C8720"/>
					</linearGradient><linearGradient id="XMLID_289_" gradientUnits="userSpaceOnUse" x1="351.5005" y1="707.7479" x2="351.5005" y2="870.5588">
						<stop offset="0" style="stop-color:#7EE770"/>
						<stop offset="1" style="stop-color:#2C8720"/>
					</linearGradient><linearGradient id="XMLID_290_" gradientUnits="userSpaceOnUse" x1="250.0817" y1="748.8123" x2="250.0817" y2="911.6232">
						<stop offset="0" style="stop-color:#7EE770"/>
						<stop offset="1" style="stop-color:#2C8720"/>
					</linearGradient><linearGradient id="XMLID_291_" gradientUnits="userSpaceOnUse" x1="441.574" y1="683.6328" x2="441.574" y2="867.0851">
						<stop offset="0" style="stop-color:#7EE770"/>
						<stop offset="1" style="stop-color:#2C8720"/>
					</linearGradient><linearGradient id="XMLID_293_" gradientUnits="userSpaceOnUse" x1="558.8184" y1="593.6466" x2="558.8184" y2="883.9997">
						<stop offset="0" style="stop-color:#7EE770"/>
						<stop offset="1" style="stop-color:#2C8720"/>
					</linearGradient><linearGradient id="XMLID_294_" gradientUnits="userSpaceOnUse" x1="595.28" y1="642.5112" x2="595.28" y2="932.8643">
						<stop offset="0" style="stop-color:#7EE770"/>
						<stop offset="1" style="stop-color:#2C8720"/>
					</linearGradient><linearGradient id="XMLID_295_" gradientUnits="userSpaceOnUse" x1="514.0745" y1="700.0331" x2="514.0745" y2="875.3423">
						<stop offset="0" style="stop-color:#7EE770"/>
						<stop offset="1" style="stop-color:#2C8720"/>
					</linearGradient><linearGradient id="XMLID_296_" gradientUnits="userSpaceOnUse" x1="487.1643" y1="737.3971" x2="487.1643" y2="912.7064">
						<stop offset="0" style="stop-color:#7EE770"/>
						<stop offset="1" style="stop-color:#2C8720"/>
					</linearGradient>
</svg>