<?xml version="1.0" encoding="utf-8"?>
<svg id="master-artboard" viewBox="0 0 694.7957763671875 549.4705200195312" version="1.1" xmlns="http://www.w3.org/2000/svg" x="0px" y="0px" style="enable-background:new 0 0 1400 980;" width="694.7957763671875px" height="549.4705200195312px"><rect id="ee-background" x="0" y="0" width="694.7957763671875" height="549.4705200195312" style="fill: white; fill-opacity: 0; pointer-events: none;"/>





<g transform="matrix(2.0553219318389893, 0, 0, 2.0553219318389893, -1986.5150854587555, -346.25830459594727)">
	<path class="st2" d="M979.2,375.2c0,6.6,5.4,11.9,12,11.9h33.7L991.1,419l70.7-30.6l218.4-1.3c6.7,0,12-5.3,12-11.9V181.1&#10;&#9;&#9;c0-6.6-5.4-11.9-12-11.9l-288.9,42.9c-6.7,0-12,5.3-12,11.9V375.2z" style="fill: rgb(246, 246, 246);"/>
	<g>
		<path d="M981.6,364.6l0-2.7C981.6,362.2,981.6,362.9,981.6,364.6z"/>
		<path d="M981.2,367.1c0,0.1,0,0.2,0,0.2C981.2,367.3,981.2,367.2,981.2,367.1z"/>
		<path d="M1089.9,393.5c-1,0-1.9,0.1-2.4,0.2C1089,393.7,1089.7,393.6,1089.9,393.5z"/>
		<path d="M1251.4,383.2c-0.1,0.1-0.1,0.1-0.1,0.1C1251.5,383.3,1251.6,383.3,1251.4,383.2z"/>
		<path d="M981.4,332.6c0,0.4,0,0.9,0,1.2C981.5,334.1,981.5,332.9,981.4,332.6z"/>
		<path d="M1051.2,398.2c-0.1,0.1-0.2,0.2-0.3,0.2C1051.1,398.3,1051.1,398.3,1051.2,398.2z"/>
		<path d="M983.6,233.7c0-0.4,0-0.8,0-1.2C983.6,232.9,983.6,233.4,983.6,233.7z"/>
		<path d="M1285.5,391.8c0.8-0.3,1.2-0.5,1.4-0.7C1286.1,391.5,1285.4,391.8,1285.5,391.8z"/>
		<path d="M1285.8,390.3c-0.6,0.3-1.2,0.4-1.7,0.6c-0.5,0.2-0.9,0.3-1.3,0.3c-0.7,0.2-1.1,0.3-1.2,0.3c-0.3,0.1,0.3,0.2,1.2,0.1&#10;&#9;&#9;&#9;c1.9,0,4.9-1,4.1-0.5c1.5-0.6,3.6-2,4.8-3.1c0.6-0.6,1-1.1,1.2-1.3c0.1-0.2,0-0.1-0.6,0.4c1.2-0.9,2.5-2.4,3.5-4.4&#10;&#9;&#9;&#9;c1-1.9,1.6-4.3,1.6-6.7l0-0.9l0-0.6c0-0.4,0-0.8,0-1.2c0-0.8,0-1.6-0.1-2.4c0-1.5,0-3,0.2-4.1c-0.1-0.2-0.3,2.5-0.5-0.7&#10;&#9;&#9;&#9;c-0.1-4.8,0.3-4.5,0.5-6.4c-0.2-1.4-0.4-8.8-0.3-8c-0.2-3.2-0.8,3.4-1.1-1.1c-0.5-3-0.1-7.2-0.2-10.7c0.4-4.3,0.3,4.3,0.4,6.1&#10;&#9;&#9;&#9;l-0.2-12.2c0.3-3.6,0.5,1.6,0.5,5.2c0.3-4.8,0-11.1-0.4-12.5c0.1-3,0-4.6,0.2-7.5c0.2,2.8,1,2.7,1.1,7.1c0,7.3-0.6-2.7-0.7,3.6&#10;&#9;&#9;&#9;l0.5,0.5c-0.3,2.7,0.1,4.8,0.1,7.7c-0.1,1.6-0.2-0.4-0.2-1.4c0,5.2-0.2,9.3,0.3,13.2c0.4-7-0.1-17.5,0.4-20.6l-0.6-13.9&#10;&#9;&#9;&#9;c-0.2,0-0.6,4.8-0.9,0.9c0.5-1.6,0.8-5.7,0.9-11.1c-0.6,2-0.5-8.6-1-5.9c0.3,2.5-0.2,3.8-0.2,4.1c0-5.2-0.5-0.7-0.6-3.6&#10;&#9;&#9;&#9;c0.1-9.5,0.4,0.4,0.6-9c0.3,2,0.8,7,1.1,12.1c0.3-0.4,0-5.2,0.3-7.3c-0.3,3.1-0.6-2.1-0.7,0.4c-0.2-7.5-0.8-16.3-1-25.4&#10;&#9;&#9;&#9;c0.9,1.4,0.7,15.4,1.7,12.5c-0.1-4.5-0.6-4.5-0.5-8c0.5-3,0.1-10.5,0-16.6l-0.3,2.7c-0.2-2.3,0-6.6,0-9.3l0.1,0.7l-0.2-2.7&#10;&#9;&#9;&#9;c0-0.4,0-0.5,0.1-0.5c-0.3-2.9,0-10.4-0.2-16c-0.4,0,0,5.5-0.1,8.2c-0.1,0.7-0.3,5.9-0.6,3.4c0-7-0.5-11.8-0.5-19.7l-0.1,2.5&#10;&#9;&#9;&#9;c-0.3-2.5-0.1-5.9-0.2-9.6c0.3-6.8,0.6,5,0.8,0.9c0.4,2.7,0,7.3,0.5,8l0.6-4.3c-0.4-3.6,0.2-7.5,0.1-10l-0.3,2.7&#10;&#9;&#9;&#9;c-0.5-0.5-0.1-3,0-4.3l-0.7,1.8c-0.1,3.9,0.5,6.6,0.1,9.5c-0.2-7-0.8-5.4-0.8-13.8c0.3-0.4,0.1,1.6,0.3,2.5&#10;&#9;&#9;&#9;c0.2-2.9-0.4-5.9-0.1-10.5c0.2,2.7,0.4,7,0.8,3.6l-0.5-2.5c0.1-2.1,0.3-1.3,0.3-2.1c0.1-3.1-0.5,0.7-0.4-4.1&#10;&#9;&#9;&#9;c0.1-0.7,0.2-2.3,0.3-1.6c0-5.5-0.2-2.7-0.4-7.8c0,4.6-0.8,4.8-0.8,0c0-1.7,0-3.3,0-4.7c0-1.7-0.4-3.4-0.9-4.9&#10;&#9;&#9;&#9;c-0.5-1.5-1.3-2.8-2.1-3.9c-0.9-1.2-1.8-2.2-2.9-3.2c0,0-0.2-0.1-0.5-0.3c-0.3-0.2-0.7-0.4-1.2-0.6c-0.4-0.2-0.9-0.3-1.2-0.4&#10;&#9;&#9;&#9;c-0.3-0.1-0.6-0.2-0.6-0.2c0.6,0.1,0.6,0,0.2-0.2c-0.4-0.2-1.1-0.5-2.1-0.7c-0.5-0.1-1-0.2-1.5-0.3c-0.5-0.1-1-0.1-1.7-0.1&#10;&#9;&#9;&#9;c-0.3,0-0.6,0.1-0.9,0.1c-0.2,0-0.4,0.1-0.6,0.1c-0.4,0-0.7,0.1-1,0.1c-0.2-0.1,0.3-0.2,1.2-0.4c0.2,0,0.6-0.1,1-0.2&#10;&#9;&#9;&#9;c0.4,0,0.8,0,1.2,0c0.4,0,0.8,0.1,1.2,0.1c0.4,0.1,0.8,0.1,1.2,0.2c1.6,0.3,3.2,1,4.3,1.6c0.6,0.3,1,0.5,1.4,0.7&#10;&#9;&#9;&#9;c0.3,0.2,0.6,0.2,0.6,0.2c-2.3-1.8-3.1-2-2.9-2.1c0.1,0,0.4,0.1,0.8,0.2c0.4,0.2,0.9,0.4,1.3,0.6c-2.8-1.7-3.5-1.5-3.7-1.4&#10;&#9;&#9;&#9;c-0.2,0.1,0,0.4-1.3,0.2c0,0-0.6-0.3-1.5-0.4c-0.5-0.1-1-0.2-1.5-0.2c-0.3,0-0.7,0-1-0.1c-0.3,0-0.7,0.1-1,0.1&#10;&#9;&#9;&#9;c-1.7,0.2-3,0.3-1.7-0.1c-4.1,0.6-4.7,1.2-7.7,1.6c0.4-0.3,0.9-0.6,0.6-0.8c-0.3,0.2-4.2,0.6-5,0.7c0.7,0-1.3,0.6,2.2,0&#10;&#9;&#9;&#9;c-0.8,0.5-8.3,1.3-8.1,1.6c-0.4-0.4-7.6,1-11.4,1.4c0.5,1,6.8-1.4,8.2-0.7c-4.9,1.1-16.6,2.5-24.5,4.2c-6.9,0.8-0.1-0.4-1.5-0.6&#10;&#9;&#9;&#9;c6.3-1.1,8-1,13.4-2c-6,0.7-15.9,2.3-20.3,3.3c-6.6,1-7.4,0-15.4,1.4c1.1,0.2,1,0.3,3.5,0.1c-2.1,0.4-4.6,0.7-6.9,1&#10;&#9;&#9;&#9;c-1.4,0.4,3.6-0.3,0.4,0.4c-1.3,0.1-3.9,0.5-3.4,0.1l0.5-0.1c-7.6,1.5-5.6,0-12.1,1.6c0.6,0.1,1.9-0.3,3.6-0.5&#10;&#9;&#9;&#9;c1.3,0.1-2.7,1.1-5.7,1.6c0.5-0.3-2.7,0.3-4.8,0.6c-1.5-0.2,5.3-0.9,6.3-1.3l-5.9,0.8l1.2-0.1l-6.3,1.3c4.4-0.8,2.2,0.2,0.3,0.5&#10;&#9;&#9;&#9;c-4.4,0.6-8.9,1.2-8.4,0.6c-0.5,0.5-5.9,1.3-9.8,2c4.3-0.5,0.6,0.3-0.6,0.6l-6.4,0.5c6.7-1.1-1.5-0.2,0.1-0.7&#10;&#9;&#9;&#9;c1.9-0.8,6-1.1,9.5-1.6c-7,0.2-9.7,1.9-15.7,2.4c0-0.2,0.5-0.5,3.1-0.9c-1.1,0-5.4,1.2-9.5,1.6c1.1,0,3.5,0.1-0.6,0.8l-5.4,0.3&#10;&#9;&#9;&#9;c-6.2,0.8-2,0.9-7.1,1.9l3.4-0.1c-0.5,0.5-6.9,1-7,1.5c3.2-0.5,4.9-1.1,8.3-1.5c1.3,0.3-4.2,0.9-6.1,1.4c-6.9,0.8-5.5,0.6-10.7,1&#10;&#9;&#9;&#9;c-0.3-0.7,8.3-2.2,7.1-3c-6.7,1.1-16.4,2.8-20.8,3.2c-6,1.1-5.4,1.6-4.4,1.9c-2.5,0.5-3.7,0.6-5.3,0.7l2.8-0.7&#10;&#9;&#9;&#9;c-7.4,1.3-11.6,2.2-19.4,3.4c-4.4,0.8-2.5,1-1.4,1.2l-4.8,0.8l0.7,0c-1,0.6-5.3,1.1-8.4,1.6c0-0.2,1.9-0.5,1.7-0.6&#10;&#9;&#9;&#9;c-2.8,0.2-7.1,0.9-9.4,1.5c0-0.2,1.8-1,5.2-1.3c0.4,0,0.2,0.1,0.6,0.1l5.6-1.1c-6.5,1.2-10.5,1.3-10.4,0.8&#10;&#9;&#9;&#9;c-6.5,1.2,5.4-0.3-2.4,1.1c-10.4,0.5-19.4,3.2-25.3,2.6c-4.7,1-10.3,2.3-17.7,3.5c0.1,0.4-4.9,0.9-4.1,1.3&#10;&#9;&#9;&#9;c7.2-0.5,13.1-2.8,18.9-2.8c3.1-0.7,2-0.9,3.4-1.3c2.8-0.5,5.5-0.8,5.9-0.6c-6.5,1.2-1.6,1.3-9.9,2.5c1.1,0.2,7.8-0.9,10.8-1.3&#10;&#9;&#9;&#9;c-0.8,0.3,0.1,0.4,2.1,0.3c-2.1,0.7-6.8,1.7-9.2,2.3c0.8-0.3-0.8-0.2-0.1-0.4l-8.6,1.9c-2.7,0.1-3.5-0.1-2.1-0.5&#10;&#9;&#9;&#9;c-4.8,0.6-12.8,2.4-13,1.7c-6.2,1,2,0.1,2.6,0.2l-0.5,0.1l6.5-1c0.8,0.6-7.5,0.9-8.4,1.8c-0.4,0.7-2.7,1-5.5,1.1&#10;&#9;&#9;&#9;c-1.4,0.1-2.9,0.2-4.3,0.2c-0.7,0-1.4,0.1-2.1,0.2c-0.2,0-0.3,0-0.5,0.1c-0.2,0-0.4,0-0.6,0c-0.3,0-0.6,0-0.9,0.1&#10;&#9;&#9;&#9;c0,0,0.3-0.1,0.8-0.2c0.6-0.1,1.2-0.4,1.9-0.6c1.3-0.4,2.6-0.9,2.6-0.9s-1.1,0.2-2.3,0.4c-0.6,0.1-1.1,0.2-1.6,0.3&#10;&#9;&#9;&#9;c-0.2,0.1-0.4,0.1-0.5,0.1c-0.1,0-0.2,0-0.2,0c2.6-0.7,2.5-1.4,6.5-2.3c-1.6,0.2-3.4,0.5-5.2,0.7c-0.4,0-1,0.2-1.2,0.1&#10;&#9;&#9;&#9;c-0.5,0-1,0-1.5,0.1c-0.5,0.1-1,0.1-1.5,0.3c-0.5,0.1-1,0.3-1.5,0.4c-1.9,0.7-3.5,1.8-4.8,3c-1.2,1.2-2,2.5-2.5,3.6&#10;&#9;&#9;&#9;c-1.1,1.5-1.5,2.3-1.6,1.4c-0.2,0.9-0.4,1.8-0.4,2.7c-0.1,0.8-0.1,1.7-0.1,2.4c0,1.3-0.1,2.6-0.1,3.8c-0.2,2.4-0.4,4.7-0.4,7.5&#10;&#9;&#9;&#9;c0.4,5.9,0.5-5.9,1-1.6c-0.2,1.8,0,5,0,6.6c-0.2-1.8,0.1-8,0.3-12.3c0,3.2,0.5,2.9,0.7,3.8l0.1-5.4c0.6,0.4,0,6.6,0.3,9.1&#10;&#9;&#9;&#9;c-0.5-1.6-0.5-0.7-1.1-2.3c0.2,4.6,0.2,11.6-0.1,15.6c-0.2,2.3-0.3-2-0.4-3.2c-0.4,1.1,0.2,4.6-0.2,5.5c-0.3-0.7,0-2.9-0.1-4.5&#10;&#9;&#9;&#9;l-0.2,13.6c-0.2,0-0.3-3.4-0.2-5.5c-0.2,4.1-0.1,7.1,0.6,12c-0.2,4.6-0.5,10-0.8,8.4c0.1,2.1,0.3,0.7,0.5,0.7&#10;&#9;&#9;&#9;c-0.1,6.3,0.6,7,0.7,10.7l0.4-2.8c-0.4,6.1,0.7,1.4,0.3,6.8c-0.4-0.9-0.9-0.5-1.3,0.4c0.4,0.9,0,4.3,0,6.6c0.4-1.4,0.4,5,0.8,1.2&#10;&#9;&#9;&#9;c0.3,5.4-0.2,7.9,0.3,11.8c0.1-2.5,0.4,4.6,0.7,2.5c0,5.2-0.5,8.8-0.9,7.4c0-1.8,0.2-4.7-0.1-4.5l0.1,9.5&#10;&#9;&#9;&#9;c-0.2,2.3-0.3,5.4-0.8,5.7c0.5,3-0.4,8.9,0.3,11.3c-0.4-3.2,0.1-5.7,0.2-7l0.1,1.5c0-0.2,0-0.5,0-0.8l0.8,4.1&#10;&#9;&#9;&#9;c0.3-3.9-0.5-0.7-0.5-6.3c0.8-4.8,1.2,10.9,1.6,5.9c0.2-4.1-0.5-3.4-0.8-6.8l0,0.9l-0.3-7.7c0.3-0.4,0.5,2,0.5,2&#10;&#9;&#9;&#9;c0-9.3,0.4-10.7,0.5-20.8c-0.1,0.7-0.9,2.7-1-1.8c-0.2-3.2,0.3-3.6,0.3-6.3c0.1,1.6,0.5,3,0.2,5.2l0.6-0.2&#10;&#9;&#9;&#9;c0.7,7.5,1.2,3.6,1.4,13.8c0.4,0.5,0.6,7.9,0.5,13.4l0.4-2.7c0.7,5.7-0.6,1.1,0,8.4c-0.7,3-1.6,8.6-2.2,4.5&#10;&#9;&#9;&#9;c-0.2,5.2,0.2,7,0.2,11.6c-0.6,2.9-0.7-1.4-1.3-0.9c0.1,3.4,0.3,7.7,0.7,5.2l-0.2,6.5c-0.1,0.2-0.1-2.1-0.1-3&#10;&#9;&#9;&#9;c-0.1,2.5,0.2,7.3,0.4,8.8c0-0.5-0.1-2.2,0-2.9c0.2,2.7,0.5,7.5,0.6,7.9c-0.3-3.9,0.4-4.3,0-8.4c0.2,0.4,0.5,1.1,0.4,3.2&#10;&#9;&#9;&#9;c0.4-3.4,0.3-6.8,0.7-8.2c-0.3,2.9,0.1,4.7,0.2,5.3c0.1-2.6,0-7.7-0.2-9.4c0.7-0.4-0.1-10,0.6-6.6c-0.2-0.5-0.3-4.3-0.1-6.3&#10;&#9;&#9;&#9;c0.3,0.2,0.5,5.2,0.8,7.3c0.3,10-0.5-0.2-0.7,2.2l0,7.6c0.1-0.8,0.5,3.1,0.4-1.9c0.4,2.3,0.7,7.1,0.4,11.1c0.2,0.9,0.2-2,0.2-2.9&#10;&#9;&#9;&#9;c0.2,0.9,0.9,5.7,1-0.5c0,1.8-0.3-3-0.6,0.2c-0.1-2.5,0.2-9.3,0.6-6.6c-0.1-3-0.4-8.8-0.5-11.3c0.3-0.7,0.1,2.1,0.3,3.4l-0.2-8.8&#10;&#9;&#9;&#9;l-0.3,2.5c0.2-6.4-0.6-10.5-0.8-15.7c0.5,0.7,0.6,5,0.9,8.4c0.7-3.2-0.3-2.1-0.2-7.5c0.1-0.7,0.2-0.9,0.4-0.6l-0.5-4.3&#10;&#9;&#9;&#9;c0.1-1.2,0.2-0.5,0.2,0c-0.6-7.3-0.8,0.2-1-9.7c-0.3,5.9,0.4,5,0.3,10c-0.4,2.9-0.7-5.7-0.9-7.1c0.1-4.8,0.9-5.4,0.5-11.5&#10;&#9;&#9;&#9;c0.3,4.3,0.5,0.2,0.5,6.3c0.3,3.4,0.2-1.8,0.6-2.5c-0.1-1.6-0.6,1.1-0.5-3.4l0.1,0.2l-0.6-7.3c0.3-6.8-0.7-15.4,0-20l-0.6,1.1&#10;&#9;&#9;&#9;c0-4.3-0.1-10.4-0.2-13.4c0.3,0.7,0.4,3.6,0.5,6.6c0.1-7.7-0.2-14.5-0.7-19.7c-0.4,3.8-0.4,4.3-0.7,7.9c-0.8-5,0.5-5.9,0.1-12.4&#10;&#9;&#9;&#9;c0.6-0.2,0.5,2,1,0.4c-0.4-2.7-0.3-7.2-0.6-10.2c0.5-1.6,1,1.2,1,7.9c-0.5,5,0.4,10.6-0.1,14.7l0.3-2.5c0.2,5,0.1,8,0.3,12.3&#10;&#9;&#9;&#9;l-0.1-0.2l0.6,2.1v-2.3c0.3,1.6,0.8,6.4,0.8,7.9c-0.1-7.2-1-7.7-1.5-11.1c0-6.4,1-9,0.5-13.3c0.3-0.4,0.5-3.9,0.8-1.1&#10;&#9;&#9;&#9;c0.1,3.6-0.2,6.1,0.2,6.4c0-3.8,0.2-2.3,0.1-8c-0.5-1.1-1-5.4-1.4-9.5c-0.3-4.3-0.2-9.8-0.1-13.3c0,4.3,0.5,8.6,0.9,7.5&#10;&#9;&#9;&#9;c-0.5-2.5,0.4-8.4-0.3-7.1c0-2.5,0-5.9,0.1-8.7c0-0.2,0-0.3,0-0.5c0-0.1,0-0.2,0-0.4c0-0.2,0-0.4,0.1-0.6c0.1-0.4,0.2-0.7,0.3-1&#10;&#9;&#9;&#9;c0.2-0.6,0.5-0.9,0.7-0.9c-0.2,0.7-0.4,1.4-0.5,2.1l0,0.5c0,0.1,0,0.2,0,0.3l0,0.4c0,0.6,0,1.1,0,1.7c0,2.2-0.1,4.4,0,6.4&#10;&#9;&#9;&#9;c0-1.1,0.2-2.2,0.3-1.5l-0.1,5.9c0.3-4.5,0.5-3.6,0.4-9.3c0,0.4-0.1,1.1-0.2,0.5c0-0.7,0-1.5,0-2.3c0-0.4,0-0.8,0-1.2&#10;&#9;&#9;&#9;c0-0.2,0-0.4,0-0.6c0-0.2,0-0.2,0-0.4l0.6-0.1c-0.1-1.2,0.5-2.9,2-4.2c0.7-0.6,1.7-1.1,2.6-1.5c0.5-0.1,1-0.3,1.6-0.3l0.2,0&#10;&#9;&#9;&#9;c0.3,0,0.6,0,0.9-0.1l0.9-0.2l1.5-0.3l-0.7,0.2c6.2-0.8,6.6-2,13.3-3.1c-1.9,0.5-1,0.6-0.6,0.8c3.3-0.8,5.2-0.6,8.6-0.9&#10;&#9;&#9;&#9;c-4,0.3,2.5-1-0.3-0.7c-0.3-0.5,6.6-1.5,10.2-2c2.2,0.4-10.9,2-5.5,1.9c3.5-0.5,4.4-1,1.9-0.8c4.4-0.6,11.2-1.5,14.4-1.5&#10;&#9;&#9;&#9;c5.2-1.3,7.4-1.3,10.6-2.5c-2.8,0.5-2.9,1-6.5,1.2l3.8-1.1c5.1-0.8,9.3-0.9,12.8-1.4l-3.7,0.8l0.2-0.1c-1.4,0.4-6.2,1-5.6,1.3&#10;&#9;&#9;&#9;c3.3-1,6-0.9,10.4-1.9l-0.2,0.1c7.7-1.6,13.6-1.2,18.4-2.9c-1.4,0.2-4.3,0.3-3.5-0.1c1.8,0,6.6-0.8,6.4-0.5l-1.6,0.3&#10;&#9;&#9;&#9;c4.4-0.6,7.1-0.9,8.7-1.3c1.2-0.5-0.1-0.6,3-1.3c7.8-0.9-3,1.3,2.3,0.8l7.2-1.4l1.6,0.1c10.8-1.3,19-3.6,30.5-5.3&#10;&#9;&#9;&#9;c0.3,0.5-8,2-10.8,2.4c3.6,0,8.6-1.5,13.5-1.8c4.4-0.6,7.7-1.6,7-1.8c5.4-1,3.9-0.3,4.7-0.3c1.7-0.9,8.6-1.7,13-2.5l0.3,0.3&#10;&#9;&#9;&#9;l6.8-1.4c-1.8,0.2-0.2-0.3-0.3-0.5l1.8-0.2c-6.9,0.1-15.1,2.9-22.2,2.9c2.1-0.4-0.8-0.2,1.3-0.6c1.8-0.2,2.1-0.2,2.3-0.1&#10;&#9;&#9;&#9;c1-0.4,3.8-1.1,0.1-0.5c0.1-0.7,7.5-1.7,12.6-2.7c4.1-0.2-4.1,1.3-6.2,2c1.9-0.3,3.5-0.9,6.3-1.1l-0.6,0.6c7-1.3,1.9-0.8,3.4-1.5&#10;&#9;&#9;&#9;c1.8-1,6.4-0.9,8.3-1.3l-2.1,0.4c5.5-0.6,6.7-1.3,11.6-2l2.4,0.1c-6.3,0.4-7.5,1.9-11.1,2.1c9.1-0.8-1.8,1.4-4.5,2.3&#10;&#9;&#9;&#9;c3.9-0.7,7.4-1.1,9.6-1.2c5.6-1.5,11.9-1.5,17.2-3.1c3-0.4-2.6,0.8,0.6,0.3c5.8-0.8,12-1.8,18.2-3c3.2-0.5,2.7-0.1,3.6,0&#10;&#9;&#9;&#9;c15.4-2,21.3-4.1,38.1-6.3l-2.4,0.7c3.5-0.5,6.6-0.8,8.3-1.5c2.3,0.1,6-0.6,9.9-1.3c1.9-0.4,3.9-0.7,5.8-1&#10;&#9;&#9;&#9;c0.9-0.1,1.8-0.2,2.7-0.3c0.2,0,0.4,0,0.6,0c0.1,0,0.1,0,0.1,0l0.1,0c0,0,0.1,0.1,0.1,0.1c0.1,0,0.2,0.1,0.3,0.1&#10;&#9;&#9;&#9;c1.1,0.1,1.9,0.4,2.6,0.7c0.7,0.3,1.2,0.5,1.7,0.8c0.2,0.1,0.5,0.3,0.7,0.5c0.2,0.2,0.5,0.4,0.7,0.6c0.4,0.4,0.9,1,1.3,1.9&#10;&#9;&#9;&#9;c-0.2,0-0.9-0.8-0.5,0.9c0.1,0.2,0.1,0.4,0.1,0.5c0,0.2,0.1,0.3,0.1,0.5l0,0.6l0,0.9c0,1.2,0,2.4,0.1,3.6c0,2.4,0.1,4.7,0.1,7&#10;&#9;&#9;&#9;c0,4.7,0.1,9.3,0.1,14c0.1,9.4,0.1,19.1,0.2,29.7c-0.1-0.2-0.1-1.2-0.2-1.8c-0.1,13.8,0.8,27.4,0.5,38.8c0.1,2.2,0.3,8.6,0.7,6.6&#10;&#9;&#9;&#9;c0-2.7,0.5-3,0.8-2.9c0.4,10.2-0.7,5-0.6,11.8c-0.7,2.2-0.5-4.3-1.1-4.3l0.5,9.8c-0.2,5.5,0.2,11.1-0.2,15.9&#10;&#9;&#9;&#9;c0.1-2.2-0.5-0.7-0.3-4.3c0,0.5,0.1,0.2,0.1,0.7c0.1-8.2-0.3-4.5-0.5-11.8c0.2,6.4,0.4,15.2,0.2,20.9c0.5-1.3,0.2,4.6,0.5,6.3&#10;&#9;&#9;&#9;l0,0.4c0.2,0,0.4,3.6,0.4,4.6l-0.6,1.4c0.1,2.5,0.3-0.7,0.4,1.8c0.1,3.6,0.2,16.3-0.4,17.2c0,4.3,0.4,5.5,0.3,10&#10;&#9;&#9;&#9;c-0.2-0.4-0.2-1.4-0.3-1.6c-0.1,4.7,0,10-0.1,15.2c0,1.3,0,2.6,0,3.9c0,0.9-0.2,1.7-0.4,2.5c-0.6,1.5-1.6,2.8-2.8,3.6&#10;&#9;&#9;&#9;c-0.9,0.7-2,1.3-3.1,1.5c-0.3,0.1-0.5,0.1-0.8,0.2c-0.3,0-0.6,0-0.8,0.1c-0.8,0-1.6,0.1-2.3,0.1c-3.1,0.1-5.8,0.3-8.1,0.5&#10;&#9;&#9;&#9;c2-0.1,7.7,0,4.1,0.4c-2,0.3-5,0.2-8,0.3c0.7-0.3-7.7-0.3-1.6-0.5c-1.5-0.7-13.1,0.2-13-0.5c-1.4,0.2-10.1,0.2-13.3,0.6&#10;&#9;&#9;&#9;c-0.7-0.3,4.7-0.2,4.7-0.5l-3.9,0.1l0-0.2c-7.5-0.1-8.9,0.7-13.4,0.9l0.2-0.1l-3,0.1l3.6-0.6c-4.8,0.1-7.3,0.6-12.7,0.8l-0.5-0.2&#10;&#9;&#9;&#9;l-3.2,0.2c0.5,0,0.7-0.1,0.4-0.2c-3,0.6-10,0.4-12.9,0.9c-2.1-0.1-4-0.7-6.8-0.3l0.5-0.7c7.1-0.1,2.7,0.5,10.2,0.2&#10;&#9;&#9;&#9;c-5.6-0.8-21.1-0.6-31.5-0.5c-8.4,0.5-22.2-0.1-25.7,0.9l0.9-0.4l-14.1-0.3c-12,0.2-24.3,0-33.4,0.6l-2.5-0.3&#10;&#9;&#9;&#9;c-3.8,0.5-9.6,0.7-15.7,0.8c-3,0.1-6.1,0.2-9.1,0.2c-1.5,0.1-2.9,0.1-4.2,0.1c-1.5,0.1-3,0.1-4.3,0.2c-0.8,0.4-1.6,0.8-2,1&#10;&#9;&#9;&#9;c-0.5,0.3-0.9,0.5-1.3,0.7c-0.8,0.5-1.5,0.9-2.1,1.3c-5,1.8,1.3-1.1,1.7-1.6c-3.7,1.5-9.4,4.9-13.1,5.8c-0.1-0.2,5-2.4,2.7-1.5&#10;&#9;&#9;&#9;c-2.8,0.8-3.6,2-6.8,2.9c1.5-0.2-4.4,2.9-8.8,4.8c0.8-0.3,0.8-0.3,1.2-0.4c0.8,0-2.5,1.4-4.3,2.2c0,0,0.1-0.1,0.6-0.4&#10;&#9;&#9;&#9;c-5.3,2.4-10.9,5-16.6,7.5c-5.1,2.3-10.6,4.7-16.1,7.2c3.5-3.4,7.3-6.9,11-10.3c4.2-3.9,8.4-7.8,12.5-11.6l-4.1,4.3&#10;&#9;&#9;&#9;c1.7-1.7,4-3.9,6.2-6c2.2-2.1,4.4-4,5.5-5l-0.4,0.5c0.9-0.7,1.6-1.4,2.3-2c-3.1-0.1-5.6,0.1-7.8,0.2c-2.2,0.1-4,0.2-6.9-0.1&#10;&#9;&#9;&#9;l1.4-0.1c-6.1,0-8.7-0.2-12.2-0.3c-3.3-0.1-6.6-0.2-10.7,0c-0.8,0-1.5-0.1-2.1-0.1c-0.5-0.1-0.9-0.1-1.3-0.2&#10;&#9;&#9;&#9;c-0.4-0.1-0.7-0.2-0.9-0.3c-0.3-0.1-0.5-0.2-0.7-0.3c-0.2-0.1-0.4-0.2-0.6-0.3c-0.2-0.1-0.4-0.3-0.6-0.4c-0.4-0.3-0.9-0.7-1.5-1.2&#10;&#9;&#9;&#9;c-1.1-0.9-1.8-1.7-2.2-2.3c-0.5-0.6-0.7-0.9-0.8-0.9c0,0,0.1,0.3,0.3,0.6c0.2,0.3,0.3,0.6,0.3,0.6c0.1,0.4,0.1,0.4-0.1,0.2&#10;&#9;&#9;&#9;c-0.2-0.2-0.5-0.6-0.8-1.2c-0.3-0.6-0.5-1.3-0.7-2c-0.1-0.4-0.1-0.7-0.2-1.1c0-0.3-0.1-0.7-0.1-0.9c-0.2,0.8-0.6,1.1-0.9,2&#10;&#9;&#9;&#9;c-0.1,0.2-0.1,0.5-0.1,0.8c0,0.3,0,0.7,0.1,1.2c0.2,1,0.6,2.3,1.7,3.8c2,2,3.1,2.8,4.4,3.6c0.3,0.2,0.7,0.4,1,0.6&#10;&#9;&#9;&#9;c0.4,0.2,0.8,0.3,1.3,0.5c1,0.3,2.3,0.4,3.8,0.4c3.6-0.8,9,0.6,14.7-0.1c-3,0.5,6.8,0.3,1.8,0.9c0.3,0.1,0.7,0.1,1.1,0.1&#10;&#9;&#9;&#9;c0.2,0,0.5,0,0.8,0c0.2,0,0.4,0,0.6,0c0.8,0,1.8-0.1,3-0.1c2.2-0.1,5-0.2,6.2,0c-0.2,0.1-0.3,0.3-0.5,0.4c0-0.1,0-0.1-0.1-0.1&#10;&#9;&#9;&#9;c-0.3,0.1-0.5,0.1-0.9,0.1c0.3,0,0.5,0,0.7,0c-2,2.1-2.6,1.8-4.3,3.5l0.9-0.1c-0.6,0.8-1.4,1-2,1.7c0.3-0.3,0.9-0.7,1.3-1&#10;&#9;&#9;&#9;c0.4-0.3,0.8-0.4,0.6-0.1c-0.5,0.6-1,1.1-1.5,1.6c-0.5,0.6-0.9,1-2.1,2.1c-0.1,0,0.2-0.5,0.6-0.9c0.3-0.3,0.6-0.7,0.9-1.1&#10;&#9;&#9;&#9;c0,0-0.9,0.8-1.8,1.6c-1.2,1.1-2.6,2.3-2.9,2.4c0.8-0.8,1.7-1.8,2.7-2.8c1.1-1.1,1.2-1.4,1.5-1.8c-1.1,1-1.7,1.4-1.9,1.7&#10;&#9;&#9;&#9;c-0.5,0.4-0.4,0.3-0.3,0.2c0.2-0.3,1-1.2-1,0.4c0.8-0.3-0.7,1.2-2.8,3.2c-2.1,2-4.9,4.6-6.7,6.3c-0.9,0.5,2.5-2.5,3.1-3.3&#10;&#9;&#9;&#9;c-2.3,1.8-4.4,3.5-6.1,5.1c-1.7,1.6-3.2,3-4.5,4.4c-1.3,1.4-2.7,2.8-4.3,4.4c-1.6,1.6-3.4,3.4-6.1,5.8c-0.1,0,0.8-0.9,1.3-1.4&#10;&#9;&#9;&#9;c-1.4,1.4-3,2.8-4.5,4.2c-1.6,1.4-3.2,2.8-4.4,3.9c1.2-0.5,2.5-1.1,4.1-1.9c2.6-1,2.1-0.6,2.1-0.5c0,0.2,0.5,0.1,5.3-1.9&#10;&#9;&#9;&#9;c-0.2-0.3,2.3-1.3,5.3-2.6c3-1.3,6.4-2.7,7.2-3.5l6.2-2.2c3.4-1.7,3.2-1.9,3.8-2.5c0.6-0.5,1.8-1.3,7-3.6c4.8-1.9,4.8-1.6,4-1&#10;&#9;&#9;&#9;c-0.7,0.6-2.2,1.6,1.2,0.3c0.1,0,0.4-0.3,0.8-0.6c0.4-0.3,0.7-0.5,0.7-0.5l3.4-1.2l-0.5,0.2c1.9-1,5.6-2.4,5.7-2.2&#10;&#9;&#9;&#9;c-0.3,0.3-2.4,1.2-2.6,1.5c3.1-1.7,13.4-4.7,16.4-7.2c2-0.7,6-2.4,5.6-1.9c1.6-1.2,8.8-3.6,11.3-5c0,0,0,0.1,0,0.1&#10;&#9;&#9;&#9;c0,0,0.1,0,0.1,0c0,0,0.1,0,0.2,0.1c0,0,0.1,0,0.1,0l0,0c0.1,0,0.3,0,0.4,0c0.6,0,1.1,0,1.7,0c-2.9-0.2-1.1-0.4,0.9-0.6&#10;&#9;&#9;&#9;c2.5,0.3,9.7,0,10.8,0.6c3.9-0.3,2.5-0.7,3.4-1.1c2.5,0.3,10.6,0.2,9.2,0.9c-2.2-0.1-7-0.2-6.1,0.3c4.1,0.2,1.8-0.2,5.2-0.3&#10;&#9;&#9;&#9;c-0.3,0.1,2.3,0.4,1.7,0.6c2-0.1,4.8-0.1,7.7,0c-4.5-0.3,2.9-0.5,0.2-0.7l-4.3,0.5c-5.2,0.1-1.1-0.4-3.1-0.5&#10;&#9;&#9;&#9;c9.1-0.2,7.3-0.8,15.9-1.2c1.6,0.1,4.5,0.3,5.4,0.3c-2.9,0.1-2.3,0.7-0.7,0.8c4.8-0.5,8.6,0.3,12.5,0.4c-3.4-0.1-1.6-0.5-0.4-0.7&#10;&#9;&#9;&#9;c8.2-0.4,3.2,0.2,6.8,0.5c12.7-0.1,20.7,0.6,30.9,0.1l-4.8-0.5l-1.6,0.5c-3.8-0.4,0.7-1.2,2.8-1.5c0.5,0.2,6.8,0,4.3,0.3l6.1-0.3&#10;&#9;&#9;&#9;c-0.9-0.2-4.8-0.1-2-0.4c2,0.2,8.2,0.2,4.3,0.6c3.2,0,7.3-0.2,6.6-0.5c5.2-0.1-0.5,0.7-2.8,0.9c4.1,0,3.6,0.5,2.3,0.6l5.7-0.1&#10;&#9;&#9;&#9;c-1.2,0.2-1.2,0.4-2.5,0.5c3.8,0.2,6.4-0.4,9.6,0l1.4-0.5c10.4,0.3,9.3,0.4,19,0.4l-1.6-0.3c7.3-0.6,5.4,0.5,15.2,0.2&#10;&#9;&#9;&#9;c5.5-0.2,9.1-0.4,8.4-0.9c3.2-0.2,3.9,0.1,5.4,0.3c2.5-0.3,7.8-0.9,11.8-0.6c-2.7,0.2-4.8,0.3-7.3,0.4c0.7,0.5,8.6,0.1,12.7,0.3&#10;&#9;&#9;&#9;c2.9-0.3,12.2-1,17.3-1.4c-2.3-0.4-1.5-1,3.2-1.5c-0.4,0.2,1.2,0.2,3.3,0.3c0.5,0,1.1,0,1.6,0l0.8,0c0.3,0,0.7,0,1,0&#10;&#9;&#9;&#9;c0.7,0,1.3-0.1,1.9-0.2c0.6-0.1,1.2-0.2,1.6-0.3c-0.9,0.4,1.3,0,2.7-0.6c0.7-0.3,1.2-0.5,1-0.3c-0.1,0.1-0.9,0.8-3,1.6&#10;&#9;&#9;&#9;c-1.2,0.3-2.2,0.4-3.2,0.4c-0.5,0-1.1,0-1.7,0c-0.3,0-0.5,0-0.9,0c-0.3,0-0.6,0-0.9,0c0.4,0.1,0.9,0.2,1.7,0.2&#10;&#9;&#9;&#9;c0.4,0,0.9,0.1,1.5,0c0.5,0,1.1-0.1,1.7-0.2c2.4-0.3,5.2-1.4,7.6-3.4c-0.1,0.1-0.2,0.3-0.5,0.6c-0.3,0.3-0.7,0.6-1.2,1&#10;&#9;&#9;&#9;c-1,0.7-2.4,1.6-4,2.1C1287.1,390.1,1286.1,390.4,1285.8,390.3z"/>
		<path d="M981.4,332.6c0-0.2,0-0.5,0-0.7l-0.1,0.9C981.4,332.5,981.4,332.5,981.4,332.6z"/>
		<path d="M1296.7,250.2c0-0.4-0.1-1-0.2-1C1296.6,249.6,1296.6,250,1296.7,250.2z"/>
		<path d="M1270.1,166.5c0.1,0,0.1,0.1,0.2,0.1C1270.4,166.6,1270.4,166.6,1270.1,166.5z"/>
		<path d="M977.7,338.9l-0.1-1.7C977.6,337.8,977.7,338.1,977.7,338.9z"/>
	</g>
</g>


</svg>